<svg xmlns="http://www.w3.org/2000/svg" viewBox="0 0 127.341 121.014"><defs><style>.cls-1,.cls-2{fill:#9b9b9b;}.cls-1{fill-rule:evenodd;}</style></defs><title>marcaRecurso 16</title><g id="Capa_2" data-name="Capa 2"><g id="Capa_1-2" data-name="Capa 1"><path id="Trazado_124" data-name="Trazado 124" class="cls-1" d="M27.124,90.994h1.624V88.105H31.4V90.99h1.617V84.114H31.4V86.64H28.748V84.114H27.124Z"/><path id="Trazado_125" data-name="Trazado 125" class="cls-1" d="M34.017,87.555a3.662,3.662,0,0,0,1.04,2.613,3.423,3.423,0,0,0,2.469,1.052,3.491,3.491,0,0,0,2.79-1.411,3.878,3.878,0,0,0-.3-4.871,3.474,3.474,0,0,0-2.491-1.047,3.428,3.428,0,0,0-2.469,1.04,3.689,3.689,0,0,0-1.039,2.627m1.689,0a1.839,1.839,0,1,1,1.819,2.108A1.949,1.949,0,0,1,35.706,87.6l0-.042Z"/><path id="Trazado_126" data-name="Trazado 126" class="cls-1" d="M43.436,90.994h1.641V85.551h2.178V84.114h-6v1.437h2.186Z"/><path id="Trazado_127" data-name="Trazado 127" class="cls-1" d="M47.893,90.994H52.17V89.548H49.486V88.186H51.75V86.779H49.486V85.531H52.13V84.114H47.893Z"/><path id="Trazado_128" data-name="Trazado 128" class="cls-1" d="M53.276,90.994H57.6V89.521H54.922V84.114H53.276Z"/><path id="Trazado_129" data-name="Trazado 129" class="cls-1" d="M71.325,86.29l.174-1.759a3.644,3.644,0,0,0-2.112-.65,3.55,3.55,0,0,0-2.553,1.06,3.691,3.691,0,0,0-1.02,2.617,3.627,3.627,0,0,0,1.368,2.916,3.545,3.545,0,0,0,2.2.749,3.634,3.634,0,0,0,2.049-.612l.112-1.819a3.24,3.24,0,0,1-2.079.874,1.956,1.956,0,0,1-2-1.914c0-.07,0-.14.007-.21A1.991,1.991,0,0,1,69.3,85.4c.053,0,.107-.007.16-.007a2.559,2.559,0,0,1,1.867.91"/><path id="Trazado_130" data-name="Trazado 130" class="cls-1" d="M71.572,91h1.654l.446-1h2.791l.438,1h1.716L75.193,83.9h-.108Zm2.578-2.188.909-2.158.892,2.158Z"/><path id="Trazado_131" data-name="Trazado 131" class="cls-1" d="M78.676,89.051l.13,1.838a6.327,6.327,0,0,0,1.829.331,2.252,2.252,0,0,0,2.49-1.985,2.288,2.288,0,0,0,.014-.262c0-1.1-.708-1.6-1.712-2.158l-.805-.448a.746.746,0,0,1-.475-.623c0-.339.278-.553.745-.553a3.618,3.618,0,0,1,1.7.65V84.224a5.549,5.549,0,0,0-1.741-.349,2,2,0,0,0-2.229,1.734c-.007.056-.012.112-.014.168a2.207,2.207,0,0,0,1.332,1.963l.464.26c.7.407,1.15.6,1.15,1.079,0,.38-.352.673-.945.673a3.728,3.728,0,0,1-1.949-.7"/><rect id="Rectángulo_35" data-name="Rectángulo 35" class="cls-2" x="83.817" y="84.114" width="1.645" height="6.88"/><path id="Trazado_132" data-name="Trazado 132" class="cls-1" d="M86.911,90.994h1.517v-3.75l4.294,4.014h.147V84.111H91.354V87.9l-4.288-4.013h-.155Z"/><path id="Trazado_133" data-name="Trazado 133" class="cls-1" d="M93.879,87.555a3.657,3.657,0,0,0,1.039,2.613,3.424,3.424,0,0,0,2.469,1.052,3.482,3.482,0,0,0,2.787-1.411,3.87,3.87,0,0,0-.3-4.87A3.468,3.468,0,0,0,97.387,83.9a3.414,3.414,0,0,0-2.469,1.04,3.689,3.689,0,0,0-1.039,2.627m1.689,0a1.84,1.84,0,1,1,1.819,2.108,1.95,1.95,0,0,1-1.83-2.061l0-.05Z"/><path id="Trazado_134" data-name="Trazado 134" class="cls-1" d="M60,87.926a1.688,1.688,0,1,1,.5,1.2,1.689,1.689,0,0,1-.5-1.2"/><path id="Trazado_135" data-name="Trazado 135" class="cls-1" d="M0,120.25H5.636l1.521-3.413H16.67l1.492,3.413h5.865l-11.694-24.2h-.367Zm8.785-7.458,3.119-7.359,3.05,7.359Z"/><path id="Trazado_136" data-name="Trazado 136" class="cls-1" d="M40.8,104.205l.6-6A12.468,12.468,0,0,0,34.2,95.984,12.125,12.125,0,0,0,25.485,99.6,12.58,12.58,0,0,0,22,108.517a12.36,12.36,0,0,0,4.678,9.944,12.053,12.053,0,0,0,7.493,2.552,12.421,12.421,0,0,0,7-2.087l.362-6.237a10.974,10.974,0,0,1-7.091,2.982c-4.011,0-6.764-2.916-6.764-7.23s2.818-7.324,6.764-7.324a8.689,8.689,0,0,1,6.367,3.083"/><path id="Trazado_137" data-name="Trazado 137" class="cls-1" d="M42.5,120.25h5.633l1.521-3.413h9.513l1.49,3.413H66.53l-11.695-24.2h-.366Zm8.781-7.458,3.119-7.359,3.044,7.359Z"/><path id="Trazado_138" data-name="Trazado 138" class="cls-1" d="M68.284,120.244h5.438V111.03h.794l6.265,9.214h6.4l-7.158-10.077a6.8,6.8,0,0,0,4.375-6.5,6.47,6.47,0,0,0-2.75-5.238c-2.024-1.457-4.341-1.657-7.324-1.657h-6.03Zm6.367-19.192c3.084,0,4.609.829,4.609,3.181,0,2.12-1.494,3.317-4.34,3.317H73.726v-6.5Z"/><path id="Trazado_139" data-name="Trazado 139" class="cls-1" d="M85.709,120.25h5.637l1.522-3.413h9.518l1.49,3.413h5.863l-11.694-24.2h-.363Zm8.787-7.458,3.119-7.359,3.051,7.359Z"/><path id="Trazado_140" data-name="Trazado 140" class="cls-1" d="M112.719,120.244H118.3V108.875l9.046-12.1h-5.933L116,104.2l-4.9-7.425H104.34l8.386,12.332Z"/><path id="Trazado_141" data-name="Trazado 141" class="cls-2" d="M64.57,3.052A3.052,3.052,0,1,1,67.625,6.1,3.051,3.051,0,0,1,64.57,3.052v0"/><path id="Trazado_142" data-name="Trazado 142" class="cls-2" d="M64.632,3.051A3.051,3.051,0,1,1,67.681,6.1h0a3.051,3.051,0,0,1-3.051-3.051"/><path id="Trazado_143" data-name="Trazado 143" class="cls-2" d="M56.576,3.052a3.053,3.053,0,1,1,3.053,3.053h0a3.053,3.053,0,0,1-3.053-3.051"/><path id="Trazado_144" data-name="Trazado 144" class="cls-2" d="M64.57,11.119a3.052,3.052,0,1,1,3.055,3.051,3.051,3.051,0,0,1-3.055-3.051v0"/><path id="Trazado_145" data-name="Trazado 145" class="cls-2" d="M64.632,11.12a3.049,3.049,0,1,1,.892,2.159,3.05,3.05,0,0,1-.892-2.159"/><path id="Trazado_146" data-name="Trazado 146" class="cls-2" d="M56.576,11.119a3.053,3.053,0,1,1,3.053,3.052h0a3.052,3.052,0,0,1-3.053-3.052"/><path id="Trazado_147" data-name="Trazado 147" class="cls-2" d="M48.519,11.119a3.052,3.052,0,1,1,3.052,3.052h0a3.051,3.051,0,0,1-3.052-3.052"/><path id="Trazado_148" data-name="Trazado 148" class="cls-2" d="M80.678,19.188a3.054,3.054,0,1,1,3.056,3.051h0a3.053,3.053,0,0,1-3.055-3.051"/><path id="Trazado_149" data-name="Trazado 149" class="cls-2" d="M72.624,19.188a3.054,3.054,0,1,1,3.056,3.051h0a3.054,3.054,0,0,1-3.053-3.051"/><path id="Trazado_150" data-name="Trazado 150" class="cls-2" d="M64.57,19.188a3.052,3.052,0,1,1,3.052,3.051h0a3.051,3.051,0,0,1-3.052-3.051"/><path id="Trazado_151" data-name="Trazado 151" class="cls-2" d="M64.632,19.188a3.049,3.049,0,1,1,.892,2.159,3.049,3.049,0,0,1-.892-2.159"/><path id="Trazado_152" data-name="Trazado 152" class="cls-2" d="M56.576,19.19a3.053,3.053,0,1,1,3.054,3.051h0a3.053,3.053,0,0,1-3.053-3.051"/><path id="Trazado_153" data-name="Trazado 153" class="cls-2" d="M48.519,19.19a3.052,3.052,0,1,1,3.053,3.051h0a3.053,3.053,0,0,1-3.053-3.051"/><path id="Trazado_154" data-name="Trazado 154" class="cls-2" d="M40.462,19.188a3.054,3.054,0,1,1,3.057,3.051h0a3.054,3.054,0,0,1-3.053-3.051"/><path id="Trazado_155" data-name="Trazado 155" class="cls-2" d="M88.737,27.26a3.051,3.051,0,1,1,3.052,3.054,3.051,3.051,0,0,1-3.052-3.054v0"/><path id="Trazado_156" data-name="Trazado 156" class="cls-2" d="M80.678,27.262a3.054,3.054,0,1,1,3.055,3.053,3.054,3.054,0,0,1-3.055-3.053h0"/><path id="Trazado_157" data-name="Trazado 157" class="cls-2" d="M72.624,27.262a3.054,3.054,0,1,1,3.054,3.053h0a3.053,3.053,0,0,1-3.051-3.053"/><path id="Trazado_158" data-name="Trazado 158" class="cls-2" d="M32.405,27.262a3.054,3.054,0,1,1,3.055,3.053,3.053,3.053,0,0,1-3.055-3.053h0"/><path id="Trazado_159" data-name="Trazado 159" class="cls-2" d="M96.792,35.326a3.051,3.051,0,1,1,3.051,3.055,3.051,3.051,0,0,1-3.051-3.055v0"/><path id="Trazado_160" data-name="Trazado 160" class="cls-2" d="M88.736,35.326a3.051,3.051,0,1,1,3.049,3.055,3.051,3.051,0,0,1-3.049-3.055v0"/><path id="Trazado_161" data-name="Trazado 161" class="cls-2" d="M80.678,35.326a3.054,3.054,0,1,1,3.055,3.055,3.053,3.053,0,0,1-3.055-3.055v0"/><path id="Trazado_162" data-name="Trazado 162" class="cls-2" d="M72.624,59.339a3.054,3.054,0,1,1,3.058,3.05h-.007a3.054,3.054,0,0,1-3.051-3.05"/><path id="Trazado_163" data-name="Trazado 163" class="cls-2" d="M32.405,35.326a3.054,3.054,0,1,1,3.055,3.055,3.053,3.053,0,0,1-3.055-3.055v0"/><path id="Trazado_164" data-name="Trazado 164" class="cls-2" d="M24.352,35.326a3.052,3.052,0,1,1,.9,2.161,3.054,3.054,0,0,1-.9-2.161"/><path id="Trazado_165" data-name="Trazado 165" class="cls-2" d="M96.792,43.4a3.051,3.051,0,1,1,3.051,3.051A3.051,3.051,0,0,1,96.792,43.4h0"/><path id="Trazado_166" data-name="Trazado 166" class="cls-2" d="M88.737,43.4a3.051,3.051,0,1,1,3.051,3.051A3.051,3.051,0,0,1,88.737,43.4h0"/><path id="Trazado_167" data-name="Trazado 167" class="cls-2" d="M40.462,51.248A3.054,3.054,0,1,1,43.516,54.3h0a3.053,3.053,0,0,1-3.051-3.053"/><path id="Trazado_168" data-name="Trazado 168" class="cls-2" d="M32.405,43.4a3.054,3.054,0,1,1,3.056,3.051h0A3.053,3.053,0,0,1,32.405,43.4"/><path id="Trazado_169" data-name="Trazado 169" class="cls-2" d="M24.352,43.4a3.054,3.054,0,1,1,3.057,3.051h0A3.054,3.054,0,0,1,24.352,43.4"/><path id="Trazado_170" data-name="Trazado 170" class="cls-2" d="M16.3,43.4a3.053,3.053,0,1,1,3.054,3.051h0A3.053,3.053,0,0,1,16.3,43.4"/><path id="Trazado_171" data-name="Trazado 171" class="cls-2" d="M112.9,51.459a3.051,3.051,0,1,1,3.048,3.054h0a3.051,3.051,0,0,1-3.044-3.054"/><path id="Trazado_172" data-name="Trazado 172" class="cls-2" d="M104.85,51.459a3.051,3.051,0,1,1,.892,2.16,3.05,3.05,0,0,1-.892-2.16"/><path id="Trazado_173" data-name="Trazado 173" class="cls-2" d="M96.792,51.459a3.051,3.051,0,1,1,3.052,3.054,3.052,3.052,0,0,1-3.052-3.054v0"/><path id="Trazado_174" data-name="Trazado 174" class="cls-2" d="M32.405,51.459a3.054,3.054,0,1,1,3.055,3.054,3.053,3.053,0,0,1-3.055-3.054v0"/><path id="Trazado_175" data-name="Trazado 175" class="cls-2" d="M24.352,51.459a3.054,3.054,0,1,1,3.054,3.054h0a3.054,3.054,0,0,1-3.054-3.054"/><path id="Trazado_176" data-name="Trazado 176" class="cls-2" d="M120.959,59.531a3.051,3.051,0,1,1,3.054,3.051,3.051,3.051,0,0,1-3.054-3.051v0"/><path id="Trazado_177" data-name="Trazado 177" class="cls-2" d="M112.9,59.531a3.051,3.051,0,1,1,3.051,3.051h-.007a3.05,3.05,0,0,1-3.044-3.051"/><path id="Trazado_178" data-name="Trazado 178" class="cls-2" d="M104.85,59.531a3.047,3.047,0,1,1,.892,2.159,3.047,3.047,0,0,1-.892-2.159"/><path id="Trazado_179" data-name="Trazado 179" class="cls-2" d="M96.792,59.531a3.051,3.051,0,1,1,3.051,3.051,3.051,3.051,0,0,1-3.051-3.051h0"/><path id="Trazado_180" data-name="Trazado 180" class="cls-2" d="M24.352,59.531a3.054,3.054,0,1,1,3.057,3.051h0a3.054,3.054,0,0,1-3.053-3.051"/><path id="Trazado_181" data-name="Trazado 181" class="cls-2" d="M16.3,59.533a3.053,3.053,0,1,1,3.054,3.051h0A3.053,3.053,0,0,1,16.3,59.533"/><path id="Trazado_182" data-name="Trazado 182" class="cls-2" d="M8.242,59.531A3.054,3.054,0,1,1,11.3,62.582h0a3.054,3.054,0,0,1-3.053-3.051"/><path id="Trazado_183" data-name="Trazado 183" class="cls-2" d="M120.959,67.6a3.051,3.051,0,1,1,3.054,3.051,3.051,3.051,0,0,1-3.054-3.051v0"/><path id="Trazado_184" data-name="Trazado 184" class="cls-2" d="M112.9,67.6a3.051,3.051,0,1,1,3.051,3.051h-.007A3.051,3.051,0,0,1,112.9,67.6"/><path id="Trazado_185" data-name="Trazado 185" class="cls-2" d="M104.85,67.6a3.049,3.049,0,1,1,.892,2.158,3.049,3.049,0,0,1-.892-2.158"/><path id="Trazado_186" data-name="Trazado 186" class="cls-2" d="M96.792,67.6a3.051,3.051,0,1,1,3.051,3.051A3.051,3.051,0,0,1,96.792,67.6h0"/><path id="Trazado_187" data-name="Trazado 187" class="cls-2" d="M24.352,67.6a3.054,3.054,0,1,1,3.057,3.051h0A3.055,3.055,0,0,1,24.352,67.6"/><path id="Trazado_188" data-name="Trazado 188" class="cls-2" d="M16.3,67.6a3.053,3.053,0,1,1,3.054,3.051h0A3.053,3.053,0,0,1,16.3,67.6"/><path id="Trazado_189" data-name="Trazado 189" class="cls-2" d="M8.242,67.6A3.054,3.054,0,1,1,11.3,70.653h0A3.055,3.055,0,0,1,8.242,67.6"/><path id="Trazado_190" data-name="Trazado 190" class="cls-2" d="M112.9,75.671a3.051,3.051,0,1,1,3.048,3.054h0a3.051,3.051,0,0,1-3.044-3.054"/><path id="Trazado_191" data-name="Trazado 191" class="cls-2" d="M104.85,75.671a3.047,3.047,0,1,1,.892,2.16,3.048,3.048,0,0,1-.892-2.16"/><path id="Trazado_192" data-name="Trazado 192" class="cls-2" d="M16.3,75.67a3.053,3.053,0,1,1,3.051,3.054h0A3.052,3.052,0,0,1,16.3,75.67"/><path id="Trazado_193" data-name="Trazado 193" class="cls-2" d="M8.242,75.671A3.054,3.054,0,1,1,11.3,78.725h0a3.054,3.054,0,0,1-3.051-3.054"/><path id="Trazado_194" data-name="Trazado 194" class="cls-2" d="M.277,59.533A3.052,3.052,0,1,1,3.33,62.584h0A3.052,3.052,0,0,1,.277,59.533"/><path id="Trazado_195" data-name="Trazado 195" class="cls-2" d="M.277,67.6A3.052,3.052,0,1,1,3.33,70.653h0A3.052,3.052,0,0,1,.277,67.6"/><path id="Trazado_196" data-name="Trazado 196" class="cls-2" d="M16.188,51.459a3.054,3.054,0,1,1,3.054,3.054h0a3.054,3.054,0,0,1-3.054-3.054"/><path id="Trazado_197" data-name="Trazado 197" class="cls-1" d="M83.734,67.282l4.418-2.231,4.433,2.231-.753-4.9,3.492-3.523-4.895-.8-2.27-4.41-2.268,4.407-4.9.8,3.491,3.522Z"/><path id="Trazado_198" data-name="Trazado 198" class="cls-1" d="M104.887,48.2l4.418-2.232,4.431,2.232-.751-4.9,3.491-3.524-4.895-.8-2.274-4.409-2.269,4.409-4.9.8,3.492,3.524Z"/><path id="Trazado_199" data-name="Trazado 199" class="cls-1" d="M41.337,45.551l4.428-2.23,4.431,2.23-.755-4.9,3.491-3.521-4.893-.8-2.274-4.408-2.271,4.408-4.894.8,3.491,3.521Z"/><path id="Trazado_200" data-name="Trazado 200" class="cls-1" d="M4.764,55.759l4.428-2.232,4.432,2.232-.756-4.9,3.493-3.519-4.9-.8-2.272-4.41-2.271,4.41-4.892.8,3.485,3.524Z"/><path id="Trazado_201" data-name="Trazado 201" class="cls-2" d="M64.57,59.339a3.052,3.052,0,1,1,3.053,3.05h0a3.052,3.052,0,0,1-3.052-3.05"/><path id="Trazado_202" data-name="Trazado 202" class="cls-2" d="M72.624,51.248A3.054,3.054,0,1,1,75.678,54.3h0a3.053,3.053,0,0,1-3.051-3.053"/><path id="Trazado_203" data-name="Trazado 203" class="cls-2" d="M64.57,51.248A3.052,3.052,0,1,1,67.623,54.3a3.053,3.053,0,0,1-3.053-3.053v0"/><path id="Trazado_204" data-name="Trazado 204" class="cls-2" d="M56.573,59.339a3.054,3.054,0,1,1,3.057,3.05h0a3.053,3.053,0,0,1-3.053-3.05"/><path id="Trazado_205" data-name="Trazado 205" class="cls-2" d="M56.573,51.248A3.054,3.054,0,1,1,59.626,54.3h0a3.053,3.053,0,0,1-3.053-3.053"/><path id="Trazado_206" data-name="Trazado 206" class="cls-2" d="M48.519,51.248a3.051,3.051,0,1,1,3.05,3.053,3.051,3.051,0,0,1-3.05-3.053h0"/><path id="Trazado_207" data-name="Trazado 207" class="cls-2" d="M48.022,59.339a3.054,3.054,0,1,1,3.058,3.05h0a3.055,3.055,0,0,1-3.055-3.05"/><path id="Trazado_208" data-name="Trazado 208" class="cls-2" d="M40.1,59.339a3.052,3.052,0,1,1,3.055,3.05h0a3.052,3.052,0,0,1-3.055-3.05"/><path id="Trazado_209" data-name="Trazado 209" class="cls-2" d="M31.875,59.531a3.054,3.054,0,1,1,3.056,3.051h0a3.053,3.053,0,0,1-3.052-3.051"/><path id="Trazado_210" data-name="Trazado 210" class="cls-1" d="M73.374,15.077,77.8,12.851l4.432,2.231-.756-4.9,3.492-3.523-4.895-.8L77.8,1.446,75.53,5.854l-4.894.8,3.492,3.523Z"/><path id="Trazado_211" data-name="Trazado 211" class="cls-1" d="M73.374,15.077,77.8,12.851l4.432,2.231-.756-4.9,3.492-3.523-4.895-.8L77.8,1.446,75.53,5.854l-4.894.8,3.492,3.523Z"/><path id="Trazado_212" data-name="Trazado 212" class="cls-2" d="M80.678,51.281a3.054,3.054,0,1,1,3.055,3.055,3.053,3.053,0,0,1-3.055-3.055v0"/><path id="Trazado_213" data-name="Trazado 213" class="cls-2" d="M89.057,51.281A3.051,3.051,0,1,1,92.1,54.336h0a3.05,3.05,0,0,1-3.044-3.055"/><path id="Trazado_214" data-name="Trazado 214" class="cls-2" d="M48.519,19.251A3.052,3.052,0,1,1,51.572,22.3a3.052,3.052,0,0,1-3.053-3.053v0"/><path id="Trazado_215" data-name="Trazado 215" class="cls-2" d="M48.519,27.319a3.052,3.052,0,1,1,3.052,3.052h0a3.051,3.051,0,0,1-3.052-3.052"/><path id="Trazado_216" data-name="Trazado 216" class="cls-2" d="M40.452,27.284a3.054,3.054,0,1,1,3.058,3.05h0a3.054,3.054,0,0,1-3.054-3.05"/></g></g></svg>