<svg xmlns="http://www.w3.org/2000/svg" viewBox="0 0 227.302 61.88"><defs><style>.cls-1{fill:#9b9b9b;}</style></defs><title>marcaRecurso 18</title><g id="Capa_2" data-name="Capa 2"><g id="Capa_1-2" data-name="Capa 1"><path class="cls-1" d="M226.283,40.084a1.227,1.227,0,0,0-.564.171l-.027.013-.022.014-.048.033-.019.01-.015.014c-.294.237-.782.62-1.531,1.206a27.948,27.948,0,0,1-2.335,1.631,26.33,26.33,0,0,1-2.6,1.449,4.962,4.962,0,0,1-2.1.577.56.56,0,0,1-.57-.381,4.128,4.128,0,0,1-.32-1.811v-.558c0-.076,0-.158.012-.247a46.08,46.08,0,0,0,4.053-4.28,43.516,43.516,0,0,0,3.434-4.717,32.632,32.632,0,0,0,2.306-4.333,9.307,9.307,0,0,0,.9-3.5,2.053,2.053,0,0,0-2.136-2.322,5.448,5.448,0,0,0-3.611,1.606,18.717,18.717,0,0,0-3.129,3.759,31.869,31.869,0,0,0-2.62,5,44.685,44.685,0,0,0-1.717,4.766,25.646,25.646,0,0,0-5.617.643,19.537,19.537,0,0,0-4.571,1.647,9.674,9.674,0,0,0-2.923,2.231c-.077.093-.157.194-.243.313l-.019.011c-.062.037-.123.073-.188.109a29.688,29.688,0,0,1-2.948,1.475,6.014,6.014,0,0,1-2.243.591c-.493,0-.566-.109-.566-.515a3.161,3.161,0,0,1,.307-1.343,14.3,14.3,0,0,1,.773-1.458c.281-.463.55-.877.791-1.222a2.02,2.02,0,0,0,.505-1.144,1.309,1.309,0,0,0-.655-1.142,2.352,2.352,0,0,0-1.24-.3c-.208,0-.4.016-.534.025-.165.016-.419.021-.78.021-.6,0-1.243-.023-1.928-.067a3.093,3.093,0,0,1-.982-.161,1.463,1.463,0,0,0-.905-.329c-.723,0-1.066.806-1.2,1.109v.008l0,.008a3.253,3.253,0,0,1-.744,1.024c-.185.184-.383.377-.588.572l-.031.018-.02.014-.019.015c-.315.252-.829.657-1.53,1.206s-1.473,1.087-2.334,1.632a26.86,26.86,0,0,1-2.6,1.448,4.981,4.981,0,0,1-2.1.577,1.089,1.089,0,0,1-.839-.328,2.017,2.017,0,0,1-.33-1.4c0-.2.015-.427.042-.689A6.94,6.94,0,0,1,177.49,42l0-.011,0-.008c.064-.357.124-.714.192-1.128l0-.039v-.037a1.176,1.176,0,0,0-.869-1.179l-.009,0h-.01a2.382,2.382,0,0,0-.572-.069,3,3,0,0,0-1.135.24,2.085,2.085,0,0,0-1,.75l0,.009,0,.007a8.484,8.484,0,0,1-1.473,1.68A18.1,18.1,0,0,1,170.29,44a14.79,14.79,0,0,1-2.613,1.352,6.5,6.5,0,0,1-2.36.506,1.641,1.641,0,0,1-1.051-.263.643.643,0,0,1-.255-.533,2.654,2.654,0,0,1,.6-1.426,7.71,7.71,0,0,1,2-1.8,13.474,13.474,0,0,1,3.4-1.539,16.69,16.69,0,0,1,4.718-.687,1.076,1.076,0,0,0,1.2-1.065c0-.2-.078-.85-1.057-.971l-.029,0h-.028a.283.283,0,0,1-.061-.007,2.282,2.282,0,0,0-.451-.039,20.457,20.457,0,0,0-10.579,2.854c-.306.187-.6.382-.881.575a.978.978,0,0,0-1.014-.96,1.167,1.167,0,0,0-.563.17l-.028.012-.028.018-.055.039-.024.018-.024.017a3.5,3.5,0,0,1-2.4.84,4.955,4.955,0,0,1-1.17-.165,3.87,3.87,0,0,1-1.158-.491,2.813,2.813,0,0,1-.832-.794,1.834,1.834,0,0,1-.29-1.067.932.932,0,0,0-1.018-.927,1.79,1.79,0,0,0-.914.315,4.836,4.836,0,0,0-.8.6,7.858,7.858,0,0,0-.642.671,1.555,1.555,0,0,0-.43,1.013,1.505,1.505,0,0,0,.045.367c.019.076.047.173.09.3l0,.01.007.012q.085.222.171.474a1.391,1.391,0,0,1,.054.418c0,.1,0,.174-.007.228a6.446,6.446,0,0,1-.559.461c-.5.376-1.067.77-1.7,1.176s-1.258.767-1.87,1.081a5.935,5.935,0,0,1-.614.279c.024-.085.054-.177.091-.279.149-.419.324-.867.519-1.336.21-.5.4-1,.558-1.5a5.1,5.1,0,0,0,.269-1.555,2.145,2.145,0,0,0-.612-1.571,2.645,2.645,0,0,0-1.944-.61,5.915,5.915,0,0,0-2.948.792,36.211,36.211,0,0,0-2.966,2.137,21.136,21.136,0,0,1-2.326,1.593,30.571,30.571,0,0,1-3.523,1.795,20.375,20.375,0,0,1-3.364,1.125,13.168,13.168,0,0,1-2.908.371,4.9,4.9,0,0,1-2.628-.6,1.8,1.8,0,0,1-.8-1.68,3,3,0,0,1,.124-.878c.391.067.792.118,1.2.152.581.045,1.148.068,1.687.068a14.238,14.238,0,0,0,2.457-.194,8.635,8.635,0,0,0,2.007-.588A4.078,4.078,0,0,0,133.5,41.2a2.627,2.627,0,0,0,.639-1.731,1.922,1.922,0,0,0-1.17-1.809,5.412,5.412,0,0,0-2.279-.417,11.435,11.435,0,0,0-2.155.22,17.44,17.44,0,0,0-2.285.609,15.935,15.935,0,0,0-2.222.951,10.09,10.09,0,0,0-1.628,1.054c-.046-.015-.091-.029-.138-.04-.16-.043-.315-.09-.46-.138a2.112,2.112,0,0,0-.83-.192.99.99,0,0,0-1.113.973.952.952,0,0,0,.487.811l.01.009.014.008c.092.053.188.1.28.152a23.094,23.094,0,0,1-3.141,2.02,8.909,8.909,0,0,1-3.938,1.24,1.359,1.359,0,0,1-1.316-.66,4.689,4.689,0,0,1-.5-2.369,14.8,14.8,0,0,1,.177-2.193c.1-.662.244-1.36.426-2.073a22.519,22.519,0,0,0,6.492-2.738,30.592,30.592,0,0,0,5.675-4.46,24.155,24.155,0,0,0,3.886-5.018,9.77,9.77,0,0,0,1.492-4.646,3.447,3.447,0,0,0-1.077-2.663,4.549,4.549,0,0,0-3.152-.962,9.049,9.049,0,0,0-5.247,1.881,24.206,24.206,0,0,0-4.781,4.632,40.433,40.433,0,0,0-4.029,6.185,38.774,38.774,0,0,0-2.65,6.15c-.746.062-1.513.091-2.282.091a1.266,1.266,0,0,0-1.011.4,1.1,1.1,0,0,0-.287.706.907.907,0,0,0,.926.929c.135,0,.329.006.613.022s.632.024,1.063.024h.323a21.259,21.259,0,0,0-.424,2.171c-.3.258-.8.642-1.493,1.14-.756.545-1.594,1.1-2.491,1.646s-1.785,1.037-2.64,1.458a4.438,4.438,0,0,1-1.791.575.429.429,0,0,1-.092-.006.651.651,0,0,1-.005-.093,1.726,1.726,0,0,1,.136-.6c.106-.281.227-.584.39-.984.141-.345.27-.675.382-.979a2.856,2.856,0,0,0,.207-.978,1.281,1.281,0,0,0-.538-1.126,1.582,1.582,0,0,0-.9-.264,2.1,2.1,0,0,0-1.506.551c-.473.381-1.025.854-1.642,1.408s-1.232,1.079-1.854,1.58a19.7,19.7,0,0,1-1.726,1.255,2.063,2.063,0,0,1-1,.419.554.554,0,0,1-.219-.028.535.535,0,0,1-.018-.162,2.219,2.219,0,0,1,.148-.6l.4-1.187c.142-.434.271-.852.383-1.246a4.245,4.245,0,0,0,.187-1.108,2.717,2.717,0,0,0-.824-2.2,3.026,3.026,0,0,0-1.988-.631,6.071,6.071,0,0,0-1.588.23,10.62,10.62,0,0,0-1.647.6,9.751,9.751,0,0,0-1.557.876c-.094.064-.179.129-.266.193l-.054.043a.838.838,0,0,0-.082.039l-.025.011-.024.017-.052.037-.024.012-.022.019a6.086,6.086,0,0,1-1.742,1.061,4.778,4.778,0,0,1-1.734.345,2.927,2.927,0,0,1-2.043-.745,2.989,2.989,0,0,1-.8-2.33.932.932,0,0,0-1.019-.927,1.568,1.568,0,0,0-.727.208,1.345,1.345,0,0,0-.75-.3l-.029,0h-.031l-.059-.007a2.293,2.293,0,0,0-.452-.039,16.752,16.752,0,0,0-4.917.661,15.244,15.244,0,0,0-3.1,1.312l-4.513,1-4.85.821-2.714.471a10.764,10.764,0,0,0,3.719-8.42,10.989,10.989,0,0,0-8.978-10.794,35.234,35.234,0,0,0,7.934-5.8S66.678,9.13,64.768,2.538C64.308.952,62.537,0,60,0c-.319,0-.639.017-.954.048-4.385.444-9.109,3-14.039,7.609A84.973,84.973,0,0,0,32.952,22.35c-.692,1.029-1.358,2.057-2,3.075h0l-.007.014c-2.99,4.721-5.45,9.21-7.147,12.477l-2.8,4.9L5.9,40.6a42.719,42.719,0,0,0-4.317-.82H1.578c-.283,0-1.123,0-1.457.615-.243.448-.122,1.032.372,1.8,3.68,5.7,11.833,8.59,14.9,9.679l.337.121-3.2,5.581c-.342.569-.7,1.181-1.067,1.842a1.675,1.675,0,0,0-.171.338,1.524,1.524,0,0,0,.232,1.508l0,.01.009.008a1.585,1.585,0,0,0,.681.5,1.547,1.547,0,0,0,1.877-.64c.048-.074.43-.839.43-.839l4.246-7.585c1.714.22,3.546.533,5.466.594a54.012,54.012,0,0,0,15.144-2.07c5.157-1.6,12.718-6.452,16.033-6.88h.043l.045-.009,7.823-1.566a4.318,4.318,0,0,0-.483,1.905,3.356,3.356,0,0,0,1.427,2.727,6.616,6.616,0,0,0,4.061,1.037,12.968,12.968,0,0,0,3.306-.418,13.248,13.248,0,0,0,2.86-1.111,11.154,11.154,0,0,0,2.246-1.574A7.738,7.738,0,0,0,77.923,44a6.752,6.752,0,0,0,1.889.267,7.235,7.235,0,0,0,2.973-.646,9.815,9.815,0,0,0,1.856-1.106,2.9,2.9,0,0,0,.323-.206l.011-.006.01-.008c1.755-1.371,2.7-1.657,3.174-1.657.043,0,.073,0,.094,0,0,.021,0,.05,0,.092a1.368,1.368,0,0,1-.256.7c-.27.424-.527.814-.783,1.2a14.733,14.733,0,0,0-.833,1.422,4.08,4.08,0,0,0-.455,1.9,2.016,2.016,0,0,0,1.041,1.825,3.427,3.427,0,0,0,1.746.5,7.125,7.125,0,0,0,3.01-.651,15.4,15.4,0,0,0,2.4-1.369c.493-.349.94-.677,1.33-.977a3.748,3.748,0,0,0-.078.721,1.988,1.988,0,0,0,.686,1.682,2.509,2.509,0,0,0,1.558.453,8.055,8.055,0,0,0,3.023-.754,32,32,0,0,0,3.383-1.719c1.135-.662,2.2-1.348,3.155-2.043.191-.135.374-.27.549-.4a6.413,6.413,0,0,0,.936,3.161,3.794,3.794,0,0,0,3.412,1.615,8.571,8.571,0,0,0,3-.608,19.31,19.31,0,0,0,3.1-1.5q.9-.531,1.843-1.175a4.08,4.08,0,0,0,2.027,2.854,9.063,9.063,0,0,0,5.062,1.265,19.522,19.522,0,0,0,6.993-1.542,29.033,29.033,0,0,0,8.019-5.108c.743-.493,1.293-.854,1.676-1.1.033-.022.068-.042.1-.062a3.483,3.483,0,0,1-.135.619c-.115.373-.25.795-.414,1.288-.159.475-.305.981-.434,1.5a7.173,7.173,0,0,0-.208,1.764,1.79,1.79,0,0,0,1.95,1.947,6.157,6.157,0,0,0,2.394-.621,25.27,25.27,0,0,0,2.59-1.343c.854-.506,1.671-1.043,2.433-1.6.608-.445,1.116-.821,1.508-1.115a4.255,4.255,0,0,0,1.184.6,6.044,6.044,0,0,0,1.8.265,7.224,7.224,0,0,0,1.89-.258,9.911,9.911,0,0,0,1.715-.63l.061-.03a4.15,4.15,0,0,0-.964,2.412,2.321,2.321,0,0,0,1.087,1.935,4.9,4.9,0,0,0,2.822.666,11.287,11.287,0,0,0,3.212-.5,22.023,22.023,0,0,0,3.177-1.228,18.308,18.308,0,0,0,2.935-1.747c.377-.274.73-.554,1.058-.835v.216a3.954,3.954,0,0,0,.917,2.9,3.239,3.239,0,0,0,2.4.913,7.954,7.954,0,0,0,2.891-.656,23.286,23.286,0,0,0,3.15-1.561c1.038-.615,2.048-1.276,3.01-1.968.784-.568,1.494-1.123,2.107-1.653.223-.175.421-.335.616-.5a7.082,7.082,0,0,0,.753-.728,4.906,4.906,0,0,0,1.147.179c.5.027,1.236.044,2.2.048-.033.037-.069.074-.1.108-.351.381-.7.806-1.049,1.269a8.644,8.644,0,0,0-.913,1.526,4.2,4.2,0,0,0-.421,1.8,2.2,2.2,0,0,0,2.461,2.368,7.283,7.283,0,0,0,2.285-.433,24.7,24.7,0,0,0,2.524-1.035c.661-.309,1.326-.649,1.988-1.009a2.827,2.827,0,0,0,1.215,1.562,6.163,6.163,0,0,0,3.39.775,11.987,11.987,0,0,0,4.883-1.11,22.356,22.356,0,0,0,3.644-2.072,5.356,5.356,0,0,0,.491,1.782,2.335,2.335,0,0,0,2.2,1.307,8.1,8.1,0,0,0,2.953-.658,23.141,23.141,0,0,0,3.147-1.561c1.036-.613,2.048-1.274,3.013-1.968a28.729,28.729,0,0,0,2.468-1.97l.009-.006.008-.006a1.2,1.2,0,0,0,.359-.852A.986.986,0,0,0,226.283,40.084Zm-9.154-2.829c.33-1.178.731-2.37,1.188-3.54s.952-2.3,1.484-3.386a21.472,21.472,0,0,1,1.642-2.806,9.908,9.908,0,0,1,1.64-1.864,2.136,2.136,0,0,1,1.145-.567,1.333,1.333,0,0,1,.01.186,6.779,6.779,0,0,1-.661,2.416,29.732,29.732,0,0,1-1.952,3.742,51.79,51.79,0,0,1-2.938,4.311c-.554.738-1.134,1.462-1.74,2.163C217.006,37.694,217.066,37.473,217.129,37.255Zm-90,2.853a4.842,4.842,0,0,1,2.128-.639,1.152,1.152,0,0,1,.613.1.18.18,0,0,1,.044.043c0,.108-.145.4-.686.81a3.433,3.433,0,0,1-2.111.592,8.967,8.967,0,0,1-1.177-.09A5.837,5.837,0,0,1,127.124,40.108ZM114.98,30.533a39.435,39.435,0,0,1,3.219-5.571,21.237,21.237,0,0,1,3.618-4.072,5.285,5.285,0,0,1,3.294-1.48.617.617,0,0,1,.585.314,2.446,2.446,0,0,1,.3,1.323,9.99,9.99,0,0,1-.854,3.562,17.029,17.029,0,0,1-2.609,4.3,20.648,20.648,0,0,1-4.428,3.972,17.985,17.985,0,0,1-5.02,2.324A39.6,39.6,0,0,1,114.98,30.533Zm-97.726,18.8c-7.294-1.556-11.2-4.967-11.468-5.2L15.97,45.609l.011,0h.008l3.209.334Zm14.875.445a47.533,47.533,0,0,1-7.286.333,37.856,37.856,0,0,1-4.464-.261c.254-.41.472-.776.673-1.114,1.122-1.892,1.39-2.341,3.286-2.341.332,0,12.628-.173,12.628-.173l7.953-.662C42.69,47.145,40.472,48.473,32.129,49.782Zm17.544-7.5c-3.273.351-11,1.119-15.292,1.119H34.3c-4.2-.011-8.068-.265-9.653-.382.31-.552.737-1.359,1.288-2.4a171.282,171.282,0,0,1,13.468-22.14C46.756,8.633,53.478,3.117,59.317,3.637c2.043.183,4.215,2.17-1.044,8.78-.2.225-.433.47-.65.7-.161.177-.349.387-.55.607A48.46,48.46,0,0,1,44.8,22.143c-.079,0-.163-.006-.244,0a22.857,22.857,0,0,0-5.923.97c-1.908.892-2.623,1.746-2.2,2.734.078.191.442.316.794.374,2.2-.846,11.448-3.9,15.252,2.805C57.392,37.7,49.673,42.286,49.673,42.286Zm24.274,1.433a4.009,4.009,0,0,1-.906,1.218,4.837,4.837,0,0,1-1.514.925,5.752,5.752,0,0,1-2.121.365,2.273,2.273,0,0,1-1.728-.615,2.007,2.007,0,0,1-.606-1.483,2.959,2.959,0,0,1,.4-1.395,3.769,3.769,0,0,1,.718-.923l.029-.005,0-.03A5.931,5.931,0,0,1,68.8,41.3a8.45,8.45,0,0,1,2.5-1.168,12.773,12.773,0,0,1,2.785-.48,1.328,1.328,0,0,0-.157.611,1.467,1.467,0,0,0,.046.368c.019.07.045.17.085.285a3.752,3.752,0,0,1,.131.677,7.138,7.138,0,0,1,.063.95A2.783,2.783,0,0,1,73.947,43.719Zm139-2.79c-.077.43-.144.861-.2,1.287a22.312,22.312,0,0,1-3.98,2.748,8.294,8.294,0,0,1-3.885,1.077.8.8,0,0,1-.66-.22,1.011,1.011,0,0,1-.231-.716,2.842,2.842,0,0,1,.482-1.39,5.177,5.177,0,0,1,1.655-1.6,11.8,11.8,0,0,1,3.149-1.373,16.85,16.85,0,0,1,3.827-.59C213.038,40.423,212.988,40.681,212.944,40.929Z"/><path class="cls-1" d="M171.892,59.615a2.377,2.377,0,0,1-2.885.582,2.872,2.872,0,0,1-.867-.677,3.248,3.248,0,0,1-.58-.959,3.051,3.051,0,0,1-.21-1.114,3.138,3.138,0,0,1,.206-1.134,3.209,3.209,0,0,1,.573-.946,2.74,2.74,0,0,1,.873-.654,2.812,2.812,0,0,1,2.5.117,2.38,2.38,0,0,1,.843.929l-.574.4a1.775,1.775,0,0,0-.706-.764,1.979,1.979,0,0,0-.989-.249,1.706,1.706,0,0,0-.812.194,2.042,2.042,0,0,0-.625.516,2.391,2.391,0,0,0-.4.74,2.7,2.7,0,0,0-.142.867,2.5,2.5,0,0,0,.158.894,2.45,2.45,0,0,0,.431.738,2.027,2.027,0,0,0,.649.505,1.86,1.86,0,0,0,.814.182,2.233,2.233,0,0,0,1.735-.93v-.815h-1.27v-.565h1.9v2.94h-.633Z"/><path class="cls-1" d="M173.406,60.412l2.424-5.9h.616l2.417,5.9h-.8l-.695-1.727h-2.478l-.689,1.727Zm2.733-5.033-1.1,2.723H177.2Z"/><path class="cls-1" d="M185.092,60.412v-4.56l-1.96,3.5h-.423l-1.969-3.5v4.56h-.747v-5.9h.79l2.134,3.828,2.144-3.828h.781v5.9Z"/><path class="cls-1" d="M187.592,60.412v-5.89h.75v5.89Z"/><path class="cls-1" d="M190.843,55.912v4.5H190.1v-5.9h.58l3.655,4.594V54.522h.749v5.89h-.632Z"/><path class="cls-1" d="M201.011,59.615a2.384,2.384,0,0,1-2.89.582,2.914,2.914,0,0,1-.865-.677,3.1,3.1,0,0,1-.576-.959,2.992,2.992,0,0,1-.212-1.114,3.179,3.179,0,0,1,.2-1.134,3.233,3.233,0,0,1,.574-.946,2.751,2.751,0,0,1,.873-.654,2.814,2.814,0,0,1,2.506.117,2.367,2.367,0,0,1,.841.929l-.574.4a1.767,1.767,0,0,0-.7-.764,1.975,1.975,0,0,0-.985-.249,1.7,1.7,0,0,0-.814.194,2.027,2.027,0,0,0-.627.516,2.287,2.287,0,0,0-.395.74,2.62,2.62,0,0,0-.144.867,2.571,2.571,0,0,0,.158.894,2.434,2.434,0,0,0,.433.738,1.977,1.977,0,0,0,.647.505,1.867,1.867,0,0,0,.812.182,2.241,2.241,0,0,0,1.74-.93v-.815h-1.273v-.565h1.9v2.94h-.628Z"/><path class="cls-1" d="M205.56,60.412v-5.9h2.461a1.592,1.592,0,0,1,.716.161,1.846,1.846,0,0,1,.569.432,2.152,2.152,0,0,1,.368.606,1.9,1.9,0,0,1,.133.687,2.014,2.014,0,0,1-.124.7,1.926,1.926,0,0,1-.354.607,1.727,1.727,0,0,1-.551.423,1.58,1.58,0,0,1-.708.158h-1.763v2.118Zm.747-2.782h1.723a.925.925,0,0,0,.421-.1.942.942,0,0,0,.319-.265,1.457,1.457,0,0,0,.21-.4,1.533,1.533,0,0,0,.071-.472,1.378,1.378,0,0,0-.085-.483,1.348,1.348,0,0,0-.234-.389,1.028,1.028,0,0,0-.341-.257.923.923,0,0,0-.409-.092h-1.675Z"/><path class="cls-1" d="M210.049,60.412l2.427-5.9h.612l2.418,5.9h-.8l-.695-1.727h-2.477l-.69,1.727Zm2.733-5.033-1.1,2.723h2.16Z"/><path class="cls-1" d="M216.637,60.412v-5.9h2.524a1.62,1.62,0,0,1,.719.161,1.861,1.861,0,0,1,.564.432,2.054,2.054,0,0,1,.372.606,1.9,1.9,0,0,1,.132.687,2,2,0,0,1-.088.593,1.784,1.784,0,0,1-.251.519,1.631,1.631,0,0,1-.388.4,1.49,1.49,0,0,1-.512.241l1.43,2.26h-.849l-1.345-2.118h-1.561v2.118Zm.747-2.782h1.786a.875.875,0,0,0,.418-.1,1.024,1.024,0,0,0,.321-.27,1.336,1.336,0,0,0,.207-.395,1.478,1.478,0,0,0,.075-.464,1.235,1.235,0,0,0-.088-.469,1.325,1.325,0,0,0-.231-.391,1.068,1.068,0,0,0-.34-.267.942.942,0,0,0-.413-.094h-1.735Z"/><path class="cls-1" d="M222.49,60.412v-5.89h.752v3.257l3.039-3.264h.805l-2.366,2.6,2.5,3.3H226.4l-2.141-2.866-1.021,1.064v1.8Z"/></g></g></svg>