<svg xmlns="http://www.w3.org/2000/svg" viewBox="0 0 181.749 91.134"><defs><style>.cls-1{fill:#9b9b9b;}</style></defs><title>marcaRecurso 17</title><g id="Capa_2" data-name="Capa 2"><g id="Capa_1-2" data-name="Capa 1"><path id="Trazado_217" data-name="Trazado 217" class="cls-1" d="M100.279,20.45C86.773,13.99,91.246,0,91.246,0c-9.794,10.67-8.272,18.732-1,25.527C78.42,22.175,78.24,15.9,78.24,15.9c-1.933,7.81.347,14.641,9.349,18.282h0c-10.52,1.406-13.937-4.338-13.937-4.338.821,8.151,7.8,12.469,16.043,12.118a.293.293,0,0,1-.026.018c-6.74,4.7-9.5,2.533-9.5,2.533,5.948,6.9,10.822,2.814,14.741,1.025,6.771-3.086,10.779-.311,10.779-.311C105.984,44.237,113.573,26.809,100.279,20.45Zm5.008,24.121,0,.012c.073.123.142.234.2.326-.059-.1-.126-.209-.2-.339Z"/><path id="Trazado_218" data-name="Trazado 218" class="cls-1" d="M105.633,44.08c.1-3.816.753-15.4-10.233-17.272a51.9,51.9,0,0,1-5.2-1.28,35.126,35.126,0,0,0,5.977,5.034C104.224,35.325,105.477,41.559,105.633,44.08Z"/><path id="Trazado_219" data-name="Trazado 219" class="cls-1" d="M104.226,42.956c-2.42-3.684-6.3-10.2-15.4-8.976-.447.061-.87.146-1.289.2a31.263,31.263,0,0,0,4.351,1.376C98.784,37.22,102.459,40.661,104.226,42.956Z"/><path id="Trazado_220" data-name="Trazado 220" class="cls-1" d="M89.64,41.96a22.543,22.543,0,0,0,2.489-.241c9.329-1.417,13.507,3.508,13.507,3.508C104.694,43.685,96.278,37.36,89.64,41.96Z"/><path id="Trazado_221" data-name="Trazado 221" class="cls-1" d="M64.322,85.7h.465v2.338h2.778V85.7h.463V91h-.463V88.485H64.787V91h-.465Z"/><path id="Trazado_222" data-name="Trazado 222" class="cls-1" d="M69.375,88.347a3.193,3.193,0,0,1,.189-1.116,2.722,2.722,0,0,1,.526-.879,2.416,2.416,0,0,1,.81-.58,2.7,2.7,0,0,1,2.085,0,2.367,2.367,0,0,1,.812.58,2.643,2.643,0,0,1,.526.879,3.381,3.381,0,0,1,0,2.235,2.634,2.634,0,0,1-.526.883,2.3,2.3,0,0,1-.812.578,2.747,2.747,0,0,1-2.085,0,2.337,2.337,0,0,1-.81-.578,2.705,2.705,0,0,1-.526-.883A3.21,3.21,0,0,1,69.375,88.347Zm.462,0a2.854,2.854,0,0,0,.146.921,2.209,2.209,0,0,0,.421.741,1.973,1.973,0,0,0,.664.5,2.212,2.212,0,0,0,1.748,0,1.959,1.959,0,0,0,.663-.5,2.178,2.178,0,0,0,.422-.741,2.944,2.944,0,0,0,0-1.842,2.223,2.223,0,0,0-.421-.742,1.941,1.941,0,0,0-.663-.493,2.212,2.212,0,0,0-1.748,0,1.954,1.954,0,0,0-.664.493,2.258,2.258,0,0,0-.421.742,2.855,2.855,0,0,0-.147.921Z"/><path id="Trazado_223" data-name="Trazado 223" class="cls-1" d="M76.726,86.146h-1.7V85.7h3.861v.449h-1.7V91h-.462Z"/><path id="Trazado_224" data-name="Trazado 224" class="cls-1" d="M79.96,85.7H83v.449H80.422v1.889h2.416v.45H80.422v2.066h2.69V91H79.959Z"/><path id="Trazado_225" data-name="Trazado 225" class="cls-1" d="M84.3,85.7h.463v4.852h2.318V91H84.3Z"/><path id="Trazado_226" data-name="Trazado 226" class="cls-1" d="M94.1,90.166a2.163,2.163,0,0,1-.827.744,2.336,2.336,0,0,1-1.018.22,2.574,2.574,0,0,1-1.042-.206,2.293,2.293,0,0,1-.81-.578,2.673,2.673,0,0,1-.528-.883,3.232,3.232,0,0,1-.188-1.119,3.169,3.169,0,0,1,.188-1.116,2.7,2.7,0,0,1,.529-.878,2.356,2.356,0,0,1,.81-.58,2.557,2.557,0,0,1,1.042-.209,2.336,2.336,0,0,1,.944.19,1.9,1.9,0,0,1,.769.64l-.38.338a1.394,1.394,0,0,0-.592-.546,1.693,1.693,0,0,0-.74-.173,2.057,2.057,0,0,0-.874.18,1.919,1.919,0,0,0-.664.493,2.279,2.279,0,0,0-.422.742,2.988,2.988,0,0,0,0,1.842,2.229,2.229,0,0,0,.422.741,1.947,1.947,0,0,0,.664.5,2.072,2.072,0,0,0,.874.18,1.622,1.622,0,0,0,.393-.05,1.711,1.711,0,0,0,.4-.146,2.01,2.01,0,0,0,.366-.254,1.646,1.646,0,0,0,.309-.372Z"/><path id="Trazado_227" data-name="Trazado 227" class="cls-1" d="M96.919,85.7H97.4L99.488,91H98.97l-.541-1.408H95.794L95.232,91h-.484Zm.22.538L95.98,89.142h2.281Z"/><path id="Trazado_228" data-name="Trazado 228" class="cls-1" d="M100.719,90.018a1.237,1.237,0,0,0,.473.5,1.334,1.334,0,0,0,.665.165,1.268,1.268,0,0,0,.436-.073,1.15,1.15,0,0,0,.354-.209,1,1,0,0,0,.24-.326,1.031,1.031,0,0,0,.085-.431.881.881,0,0,0-.107-.455.913.913,0,0,0-.293-.3,2.348,2.348,0,0,0-.413-.2c-.153-.054-.31-.11-.47-.163a5.021,5.021,0,0,1-.471-.188,1.557,1.557,0,0,1-.41-.272,1.256,1.256,0,0,1-.293-.423,1.609,1.609,0,0,1-.11-.629,1.411,1.411,0,0,1,.133-.626,1.319,1.319,0,0,1,.349-.458,1.567,1.567,0,0,1,.512-.275,1.915,1.915,0,0,1,.6-.094,1.869,1.869,0,0,1,.756.153,1.468,1.468,0,0,1,.6.512l-.4.308a1.223,1.223,0,0,0-.411-.392,1.116,1.116,0,0,0-.558-.133,1.464,1.464,0,0,0-.43.064,1.016,1.016,0,0,0-.353.19.9.9,0,0,0-.244.31,1.038,1.038,0,0,0-.091.439.891.891,0,0,0,.191.608,1.293,1.293,0,0,0,.473.338,4.642,4.642,0,0,0,.615.22,2.994,2.994,0,0,1,.619.25,1.394,1.394,0,0,1,.474.439,1.363,1.363,0,0,1,.19.776,1.479,1.479,0,0,1-.127.635,1.385,1.385,0,0,1-.341.469,1.356,1.356,0,0,1-.494.287,1.719,1.719,0,0,1-.586.1,2.227,2.227,0,0,1-.907-.184,1.684,1.684,0,0,1-.709-.618Z"/><path id="Trazado_229" data-name="Trazado 229" class="cls-1" d="M104.751,85.7h.466V91h-.466Z"/><path id="Trazado_230" data-name="Trazado 230" class="cls-1" d="M106.855,85.7h.6l3.026,4.643h.013V85.7h.465V91h-.6l-3.028-4.642h-.012V91h-.464Z"/><path id="Trazado_231" data-name="Trazado 231" class="cls-1" d="M112.3,88.347a3.142,3.142,0,0,1,.191-1.116,2.69,2.69,0,0,1,.526-.878,2.369,2.369,0,0,1,.81-.58,2.688,2.688,0,0,1,2.083,0,2.4,2.4,0,0,1,.815.58,2.743,2.743,0,0,1,.526.879,3.411,3.411,0,0,1,0,2.235,2.733,2.733,0,0,1-.526.883,2.341,2.341,0,0,1-.816.578,2.742,2.742,0,0,1-2.083,0,2.306,2.306,0,0,1-.81-.578,2.678,2.678,0,0,1-.526-.883,3.185,3.185,0,0,1-.191-1.119Zm.463,0a2.774,2.774,0,0,0,.146.921,2.2,2.2,0,0,0,.423.741,1.967,1.967,0,0,0,.659.5,2.212,2.212,0,0,0,1.748,0,1.959,1.959,0,0,0,.663-.5,2.175,2.175,0,0,0,.421-.741,2.944,2.944,0,0,0,0-1.842,2.223,2.223,0,0,0-.421-.742,1.941,1.941,0,0,0-.663-.493,2.212,2.212,0,0,0-1.748,0,1.935,1.935,0,0,0-.659.493,2.246,2.246,0,0,0-.423.742,2.8,2.8,0,0,0-.145.921Z"/><path id="Trazado_232" data-name="Trazado 232" class="cls-1" d="M37.158,70.084H28.614l-.586,1.427a14.637,14.637,0,0,0-1.3,4.047,1.81,1.81,0,0,0,.691,1.537,2.839,2.839,0,0,0,1.765.522v.766H22.5v-.766a3.586,3.586,0,0,0,2.23-1.054,12.857,12.857,0,0,0,1.757-3.46q.084-.247.8-1.924l6.536-15.61h.649l7.515,17.867,1.025,2.356a3.133,3.133,0,0,0,.936,1.255,3.439,3.439,0,0,0,1.766.569v.766H36.87v-.766a6.587,6.587,0,0,0,2.2-.239.934.934,0,0,0,.572-.952,9.737,9.737,0,0,0-.762-2.173Zm-.283-.747-3.982-9.59-3.965,9.59Z"/><path id="Trazado_233" data-name="Trazado 233" class="cls-1" d="M71.814,78.38H65.758q-1.609-1.132-4.928-5.906-1.061-1.527-2.206-2.928a11.48,11.48,0,0,0-1.575-1.708A2.335,2.335,0,0,0,55.7,67.53h-.9v5A29.632,29.632,0,0,0,54.93,76a1.755,1.755,0,0,0,.663,1.22,3.724,3.724,0,0,0,2.065.4h1.077v.766H47.968v-.766H48.7a3.906,3.906,0,0,0,2-.366,1.67,1.67,0,0,0,.7-1.136,25.047,25.047,0,0,0,.151-3.591V61.489a23.759,23.759,0,0,0-.151-3.467,1.474,1.474,0,0,0-.663-1.078,5.213,5.213,0,0,0-2.224-.3h-.381V55.565H56.46a18.854,18.854,0,0,1,5.235.6,6.985,6.985,0,0,1,3.258,1.954A4.649,4.649,0,0,1,66.2,61.372a5.027,5.027,0,0,1-1.627,3.766A8.123,8.123,0,0,1,59.8,67.079q1.407.68,4.545,4.911a22.716,22.716,0,0,0,4.015,4.5,6.046,6.046,0,0,0,3.45,1.128ZM54.808,66.765q1.245-.034,2.572-.1a9.682,9.682,0,0,0,2.3-.366,3.606,3.606,0,0,0,2.538-2.375,6.569,6.569,0,0,0,.35-2.289,5.755,5.755,0,0,0-1.187-3.8q-1.186-1.426-5.167-1.427c-.411,0-.878.023-1.411.067Z"/><path id="Trazado_234" data-name="Trazado 234" class="cls-1" d="M94.415,78.894,78.5,57.811v15.61a10.664,10.664,0,0,0,.191,2.553A2.171,2.171,0,0,0,79.78,77.1a5.555,5.555,0,0,0,2.687.512v.766H74.073v-.766a6.039,6.039,0,0,0,2.456-.586,1.914,1.914,0,0,0,1-1.025,12.387,12.387,0,0,0,.158-2.587V61.485a15.921,15.921,0,0,0-.241-3.467,1.626,1.626,0,0,0-.763-1.129,6.732,6.732,0,0,0-2.333-.247v-.765h6.638l13.323,17.6V60.031A4.967,4.967,0,0,0,94,57.94a2.157,2.157,0,0,0-1.253-.947,6.579,6.579,0,0,0-2.27-.348V55.88h8.162v.765a5.934,5.934,0,0,0-2.248.548,2.036,2.036,0,0,0-1.045,1.036,6.565,6.565,0,0,0-.226,2.05V78.894Z"/><path id="Trazado_235" data-name="Trazado 235" class="cls-1" d="M112.04,70.084H103.5l-.58,1.427a14.56,14.56,0,0,0-1.3,4.047,1.8,1.8,0,0,0,.69,1.537,2.84,2.84,0,0,0,1.767.522v.766H97.389v-.766a3.6,3.6,0,0,0,2.229-1.054,12.974,12.974,0,0,0,1.757-3.46q.081-.247.794-1.924l6.536-15.61h.648l7.515,17.867,1.025,2.356a3.14,3.14,0,0,0,.936,1.255,3.451,3.451,0,0,0,1.769.57v.766h-8.844v-.766a6.587,6.587,0,0,0,2.2-.239.932.932,0,0,0,.573-.952,9.793,9.793,0,0,0-.764-2.173Zm-.284-.747-3.976-9.59-3.971,9.59Z"/><path id="Trazado_236" data-name="Trazado 236" class="cls-1" d="M129.541,78.91H128.51l-7.76-17.885c-.141-.321-.37-.878-.676-1.658a5.143,5.143,0,0,0-1.362-2.141,3.952,3.952,0,0,0-2.3-.581V55.88H126.1v.765a7.367,7.367,0,0,0-2.432.264,1,1,0,0,0-.621,1.014,8.235,8.235,0,0,0,.782,2.255l6.467,14.934,5.194-12.427a14.448,14.448,0,0,0,1.31-4.065q0-1.9-2.7-1.977v-.765h6.867v.765a2.807,2.807,0,0,0-1.837.747,5.765,5.765,0,0,0-1.379,2.089l-1.509,3.534Z"/><path id="Trazado_237" data-name="Trazado 237" class="cls-1" d="M151.657,70.084h-8.543l-.586,1.427a14.513,14.513,0,0,0-1.293,4.047,1.811,1.811,0,0,0,.687,1.537,2.847,2.847,0,0,0,1.767.522v.766H137v-.766a3.6,3.6,0,0,0,2.223-1.052,12.892,12.892,0,0,0,1.757-3.461q.083-.248.8-1.924l6.538-15.61h.648l7.513,17.867,1.029,2.356a3.147,3.147,0,0,0,.939,1.255,3.433,3.433,0,0,0,1.766.569v.766h-8.84v-.766a6.587,6.587,0,0,0,2.2-.239.935.935,0,0,0,.575-.952,9.681,9.681,0,0,0-.766-2.173Zm-.278-.747-3.986-9.59-3.965,9.59Z"/><path id="Trazado_238" data-name="Trazado 238" class="cls-1" d="M181.749,71.76v6.621H162.473v-.766h.666a3.919,3.919,0,0,0,2-.366,1.686,1.686,0,0,0,.712-1.136,23.674,23.674,0,0,0,.156-3.591V61.49a22.566,22.566,0,0,0-.156-3.467,1.5,1.5,0,0,0-.664-1.078,5.15,5.15,0,0,0-2.214-.3h-.5V55.88h10.8v.765h-1a5.485,5.485,0,0,0-2.172.273,1.448,1.448,0,0,0-.687,1.021,20.961,20.961,0,0,0-.173,3.55v11.78a20.187,20.187,0,0,0,.132,3.05,1.43,1.43,0,0,0,.721.952,5.99,5.99,0,0,0,2.531.34h1.708a9.678,9.678,0,0,0,3.075-.366,4.31,4.31,0,0,0,1.908-1.591,12.431,12.431,0,0,0,1.65-3.9Z"/><path id="Trazado_239" data-name="Trazado 239" class="cls-1" d="M11.661,55.974a8.381,8.381,0,0,1,5.251,1.8,5.832,5.832,0,0,1,1.1,1.125,17.369,17.369,0,0,1,1.935,4.067h.774V56.193h-.775a2.879,2.879,0,0,1-.528,1.791,2.246,2.246,0,0,1-.513.512c-.013-.016-.031-.034-.044-.05A9.349,9.349,0,0,0,15.8,56.169a10.083,10.083,0,0,0-4.63-1.052,11.435,11.435,0,0,0-5.682,1.446,9.749,9.749,0,0,0-4.034,4.428A14.394,14.394,0,0,0,.011,67.353a11.17,11.17,0,0,0,3.136,8.272,10.941,10.941,0,0,0,8.076,3.127,9.8,9.8,0,0,0,7.59-3.3c.029-.032.06-.061.092-.094a5.733,5.733,0,0,1,.556.911,3.328,3.328,0,0,1,.252.57,6.419,6.419,0,0,1,.283.919h.725V70.985h-.775a9.083,9.083,0,0,1-1.919,3.942A5.99,5.99,0,0,1,15.642,76.9a8.85,8.85,0,0,1-3.747.889,7.2,7.2,0,0,1-5.731-2.73q-2.3-2.731-2.3-7.859,0-5.41,2.11-8.321a6.676,6.676,0,0,1,5.692-2.908Z"/></g></g></svg>