<svg xmlns="http://www.w3.org/2000/svg" viewBox="0 0 230.249 72.922"><defs><style>.cls-1{fill:#9b9b9b;}</style></defs><title>marcaRecurso 12</title><g id="Capa_2" data-name="Capa 2"><g id="Capa_1-2" data-name="Capa 1"><path class="cls-1" d="M35.455,69.247a1.184,1.184,0,0,1-1.228,1.176A35.225,35.225,0,0,1,34.227,0a1.183,1.183,0,0,1,1.228,1.176V9.142a1.176,1.176,0,0,1-1.131,1.17,24.918,24.918,0,0,0,0,49.8,1.177,1.177,0,0,1,1.131,1.171Z"/><path class="cls-1" d="M51.751,0H50.369a.927.927,0,0,0-.927.927V7.683a.927.927,0,0,0,.927.927h1.382a7.429,7.429,0,1,1,0,14.857H50.369a.927.927,0,0,0-.927.927V31.15a.927.927,0,0,0,.927.927h1.382A16.039,16.039,0,1,0,51.751,0Z"/><path class="cls-1" d="M73,66.477l-3.818-3.793a15.444,15.444,0,0,0-2.472-18.743,15.68,15.68,0,0,0-22.506.444,15.518,15.518,0,0,0-.083,20.962,15.684,15.684,0,0,0,18.66,3.375l3.883,3.858a1.172,1.172,0,0,0,1.655,0L73,67.93A1.024,1.024,0,0,0,73,66.477ZM51.7,59.765a6.236,6.236,0,0,1,0-9.708,6.338,6.338,0,0,1,7.951,0,6.235,6.235,0,0,1,0,9.707A6.34,6.34,0,0,1,51.7,59.765Z"/><path class="cls-1" d="M85.643,46.676c0-6.311,4.365-10.508,10.9-10.508a10.558,10.558,0,0,1,8.119,3.308l-2.475,2.5A6.967,6.967,0,0,0,96.6,39.421c-4.142,0-6.894,2.918-6.894,7.283,0,4.421,2.807,7.34,6.95,7.34a6.769,6.769,0,0,0,6-3.253l2.641,2.363a10.317,10.317,0,0,1-8.73,4.143C90.036,57.3,85.643,53.043,85.643,46.676Z"/><path class="cls-1" d="M106.77,49.512c0-4.643,3.225-7.756,8.034-7.756,4.782,0,8.007,3.113,8.007,7.756,0,4.671-3.225,7.785-8.007,7.785C110,57.3,106.77,54.183,106.77,49.512Zm12.121,0c0-2.724-1.64-4.531-4.087-4.531-2.473,0-4.114,1.807-4.114,4.531s1.641,4.532,4.114,4.532C117.251,54.044,118.891,52.237,118.891,49.512Z"/><path class="cls-1" d="M134.985,41.756l-.25,3.475c-3.113,0-5.171,1.5-5.171,3.753v8.035h-3.781V42.034h3.642l.056,2A6.782,6.782,0,0,1,134.985,41.756Z"/><path class="cls-1" d="M146.327,41.756l-.25,3.475c-3.114,0-5.171,1.5-5.171,3.753v8.035h-3.782V42.034h3.643l.056,2A6.782,6.782,0,0,1,146.327,41.756Z"/><path class="cls-1" d="M148.132,37.363a2.176,2.176,0,0,1,2.252-2.252,2.153,2.153,0,0,1,2.224,2.252,2.131,2.131,0,0,1-2.224,2.224A2.154,2.154,0,0,1,148.132,37.363Zm.362,4.671h3.781V57.019h-3.781Z"/><path class="cls-1" d="M170.123,50.875H159.28c.277,2.112,1.389,3.447,3.586,3.447a4.655,4.655,0,0,0,3.67-1.779l2.919,1.473a7.683,7.683,0,0,1-6.534,3.281c-4.587,0-7.645-3.059-7.645-7.673,0-4.727,2.974-7.868,7.478-7.868,4.477,0,7.479,3,7.479,7.534A13.874,13.874,0,0,1,170.123,50.875ZM159.28,48.317h6.977c-.277-2.28-1.472-3.586-3.5-3.586C160.753,44.731,159.585,46.037,159.28,48.317Z"/><path class="cls-1" d="M187.691,47.594v9.425H183.91V48.206a3.515,3.515,0,0,0-7.006,0v8.813h-3.781V42.034h3.642l.056,1.89a6.1,6.1,0,0,1,4.892-2.168A5.583,5.583,0,0,1,187.691,47.594Z"/><path class="cls-1" d="M199.615,53.544V56.6a10.243,10.243,0,0,1-3.837.7,4.416,4.416,0,0,1-4.587-4.727V37.641h3.781v4.393h4.42V45.12h-4.42v6.672A2.036,2.036,0,0,0,197,54.044,6.631,6.631,0,0,0,199.615,53.544Z"/><path class="cls-1" d="M216.017,50.875H205.174c.278,2.112,1.39,3.447,3.586,3.447a4.652,4.652,0,0,0,3.67-1.779l2.919,1.473a7.681,7.681,0,0,1-6.533,3.281c-4.587,0-7.646-3.059-7.646-7.673,0-4.727,2.975-7.868,7.479-7.868,4.476,0,7.478,3,7.478,7.534A13.65,13.65,0,0,1,216.017,50.875Zm-10.843-2.558h6.978c-.278-2.28-1.473-3.586-3.5-3.586C206.648,44.731,205.48,46.037,205.174,48.317Z"/><path class="cls-1" d="M218.323,55.517l1.418-2.28a8.173,8.173,0,0,0,4.308,1.113c1.391,0,2.336-.584,2.336-1.5s-1.056-1.417-2.558-1.807l-1.251-.333c-2.53-.667-4.253-1.64-4.253-4,0-2.974,2.335-4.948,5.893-4.948a9.915,9.915,0,0,1,5.644,1.473L228.275,45.7a7.692,7.692,0,0,0-3.809-.972c-1.362,0-2.307.5-2.307,1.362,0,.89.945,1.307,2.252,1.64l1.251.361c2.557.668,4.587,1.835,4.587,4.476,0,2.836-2.5,4.727-6.255,4.727A8.549,8.549,0,0,1,218.323,55.517Z"/><path class="cls-1" d="M85.893,19.664c0-6.311,4.171-10.509,10.4-10.509a10.054,10.054,0,0,1,7.756,3.336l-1.334,1.363a8.173,8.173,0,0,0-6.339-2.947c-4.948,0-8.256,3.5-8.256,8.757,0,5.31,3.28,8.869,8.2,8.869a8.085,8.085,0,0,0,6.867-3.587l1.445,1.335a10.09,10.09,0,0,1-8.34,4C90.064,30.284,85.893,26.031,85.893,19.664Z"/><path class="cls-1" d="M107.464,10.267a1.349,1.349,0,1,1,1.363,1.335A1.331,1.331,0,0,1,107.464,10.267Zm.362,5.032h2V30.006h-2Z"/><path class="cls-1" d="M114.219,24.391V15.3h2v8.9a4.477,4.477,0,0,0,8.952,0V15.3h2v9.092c0,3.531-2.586,5.893-6.478,5.893S114.219,27.949,114.219,24.391Z"/><path class="cls-1" d="M145.494,8.321V30.006h-1.947l-.055-3.169a6.073,6.073,0,0,1-5.867,3.447c-4.114,0-7.061-3.03-7.061-7.59,0-4.586,2.947-7.672,7.061-7.672a6.073,6.073,0,0,1,5.867,3.447V8.321Zm-2,14.346c0-3.531-2.169-5.894-5.394-5.894-3.253,0-5.421,2.363-5.421,5.921,0,3.5,2.168,5.867,5.421,5.867C141.323,28.561,143.492,26.2,143.492,22.667Z"/><path class="cls-1" d="M164.007,15.3V30.006h-1.946l-.056-3.169a6.071,6.071,0,0,1-5.866,3.447c-4.114,0-7.061-3.03-7.061-7.59,0-4.586,2.947-7.672,7.061-7.672a6.071,6.071,0,0,1,5.866,3.447l.056-3.17Zm-2,7.368c0-3.531-2.169-5.894-5.393-5.894-3.253,0-5.421,2.363-5.421,5.921,0,3.5,2.168,5.867,5.421,5.867C159.836,28.561,162.005,26.2,162.005,22.667Z"/><path class="cls-1" d="M182.52,8.321V30.006h-1.946l-.056-3.169a6.071,6.071,0,0,1-5.866,3.447c-4.114,0-7.062-3.03-7.062-7.59,0-4.586,2.948-7.672,7.062-7.672a6.071,6.071,0,0,1,5.866,3.447V8.321Zm-2,14.346c0-3.531-2.169-5.894-5.394-5.894-3.252,0-5.42,2.363-5.42,5.921,0,3.5,2.168,5.867,5.42,5.867C178.349,28.561,180.518,26.2,180.518,22.667Z"/><path class="cls-1" d="M208.4,8.321V30.006h-1.946l-.056-3.169a6.071,6.071,0,0,1-5.866,3.447c-4.115,0-7.062-3.03-7.062-7.59,0-4.586,2.947-7.672,7.062-7.672a6.071,6.071,0,0,1,5.866,3.447V8.321Zm-2,14.346c0-3.531-2.169-5.894-5.394-5.894-3.253,0-5.421,2.363-5.421,5.921,0,3.5,2.168,5.867,5.421,5.867C204.228,28.561,206.4,26.2,206.4,22.667Z"/><path class="cls-1" d="M225.883,23.39H214.152c.25,3.2,1.973,5.282,4.892,5.282a5.849,5.849,0,0,0,4.754-2.5l1.53.862a7.332,7.332,0,0,1-6.284,3.252c-4.2,0-7.034-3.058-7.034-7.645,0-4.559,2.781-7.617,6.979-7.617,4.142,0,6.923,2.974,6.923,7.45C225.912,22.722,225.912,23.167,225.883,23.39Zm-11.731-1.418h9.675c-.167-3.281-2-5.338-4.838-5.338S214.346,18.691,214.152,21.972Z"/></g></g></svg>