<svg xmlns="http://www.w3.org/2000/svg" viewBox="0 0 185.335 28.943"><defs><style>.cls-1{fill:#9b9b9b;}</style></defs><title>marcaRecurso 23</title><g id="Capa_2" data-name="Capa 2"><g id="Capa_1-2" data-name="Capa 1"><path class="cls-1" d="M33.467,28.943H27.753a5.97,5.97,0,0,1-6.023-7.271l1.224-7.131A9.008,9.008,0,0,1,31.472,7.27h5.714a5.97,5.97,0,0,1,6.023,7.271l-1.224,7.131A9.008,9.008,0,0,1,33.467,28.943Zm-2.65-17.851a4.274,4.274,0,0,0-4.042,3.449l-1.223,7.131a2.832,2.832,0,0,0,2.857,3.45h5.713a4.274,4.274,0,0,0,4.042-3.45l1.224-7.131a2.832,2.832,0,0,0-2.858-3.449Z"/><path class="cls-1" d="M175.485,28.943h-5.713a5.97,5.97,0,0,1-6.023-7.271l1.223-7.131a9.009,9.009,0,0,1,8.519-7.271H179.2a5.971,5.971,0,0,1,6.024,7.271L184,21.672A9.008,9.008,0,0,1,175.485,28.943Zm-2.65-17.851a4.272,4.272,0,0,0-4.041,3.449l-1.224,7.131a2.833,2.833,0,0,0,2.858,3.45h5.713a4.275,4.275,0,0,0,4.042-3.45l1.223-7.131a2.831,2.831,0,0,0-2.858-3.449Z"/><path class="cls-1" d="M149.992,7.27H145.44L146.575.656A.538.538,0,0,0,146.031,0h-1.894a1.572,1.572,0,0,0-1.489,1.271l-1.03,6h-5.925a.851.851,0,0,0-.805.688l-.42,2.446a.564.564,0,0,0,.57.688h5.925l-1.935,11.272a5.4,5.4,0,0,0,5.451,6.579h1.953a1,1,0,0,0,.948-.809l.381-2.22a.65.65,0,0,0-.657-.792h-1.969a2.262,2.262,0,0,1-2.285-2.758l1.934-11.272h4.552a.85.85,0,0,0,.8-.688l.42-2.446A.564.564,0,0,0,149.992,7.27Z"/><path class="cls-1" d="M164.071,7.27h-5.788L159.418.656A.538.538,0,0,0,158.874,0H156.98a1.572,1.572,0,0,0-1.489,1.271l-1.03,6h-4.277a.851.851,0,0,0-.805.688l-.42,2.446a.564.564,0,0,0,.57.688h4.277l-1.934,11.272a5.4,5.4,0,0,0,5.45,6.579h1.953a1,1,0,0,0,.948-.809l.381-2.22a.65.65,0,0,0-.656-.792h-1.97a2.263,2.263,0,0,1-2.285-2.758l1.934-11.272h5.788a.852.852,0,0,0,.806-.688l.419-2.446A.564.564,0,0,0,164.071,7.27Z"/><path class="cls-1" d="M82.862,28.374H79.641a1.781,1.781,0,0,1-1.5-.753L68.526,13.5c-.21-.309-.748-.123-.818.284l-2.389,13.92a.914.914,0,0,1-.865.739H62.061a1.765,1.765,0,0,1-1.493-.748L51.1,13.783c-.2-.286-.692-.113-.757.262l-1.529,8.913a.707.707,0,0,1-.669.571H45.523A.518.518,0,0,1,45,22.9L47.285,9.578a2.855,2.855,0,0,1,2.7-2.308H51.3a.689.689,0,0,1,.582.292L62.323,22.9,64.655,9.306A2.52,2.52,0,0,1,67.04,7.27h1.815a.81.81,0,0,1,.684.343L80.527,23.755l1.917-11.172a.666.666,0,0,1,.631-.538h2.7a.475.475,0,0,1,.48.579L83.675,27.68A.859.859,0,0,1,82.862,28.374Z"/><path class="cls-1" d="M85.959,6.7H84.77a1.824,1.824,0,0,0-1.728,1.475l-.2,1.188a1.21,1.21,0,0,0,1.222,1.476h1.188a1.826,1.826,0,0,0,1.729-1.476l.2-1.188A1.21,1.21,0,0,0,85.959,6.7Z"/><path class="cls-1" d="M47.372,24.6H46.183a1.824,1.824,0,0,0-1.728,1.476l-.2,1.188a1.21,1.21,0,0,0,1.222,1.475h1.188a1.825,1.825,0,0,0,1.729-1.475l.2-1.188A1.211,1.211,0,0,0,47.372,24.6Z"/><path class="cls-1" d="M12.5,25.122H6.787a2.83,2.83,0,0,1-2.858-3.45l1.224-7.131a4.267,4.267,0,0,1,4.041-3.449h5.713A2.831,2.831,0,0,1,17.444,12.5a.8.8,0,0,0,1.1.258l1.586-.834a1.383,1.383,0,0,0,.673-1.858A5.982,5.982,0,0,0,15.563,7.27H9.85a9,9,0,0,0-8.519,7.271L.107,21.672a5.964,5.964,0,0,0,6.024,7.271h5.713a8.767,8.767,0,0,0,6.321-2.92,1.093,1.093,0,0,0-.071-1.68l-1.485-.952a.788.788,0,0,0-1,.215A4.183,4.183,0,0,1,12.5,25.122Z"/><path class="cls-1" d="M124.015,25.122H118.3a2.83,2.83,0,0,1-2.857-3.45l1.223-7.131a4.269,4.269,0,0,1,4.042-3.449h5.713a2.833,2.833,0,0,1,2.537,1.407.8.8,0,0,0,1.1.258l1.586-.834a1.384,1.384,0,0,0,.673-1.858,5.982,5.982,0,0,0-5.244-2.795h-5.713a9,9,0,0,0-8.519,7.271l-1.224,7.131a5.964,5.964,0,0,0,6.024,7.271h5.713a8.768,8.768,0,0,0,6.321-2.92,1.093,1.093,0,0,0-.071-1.68l-1.486-.952a.787.787,0,0,0-.994.215A4.186,4.186,0,0,1,124.015,25.122Z"/><path class="cls-1" d="M103.889,7.27H98.175a9,9,0,0,0-8.518,7.271l-1.224,7.131a5.964,5.964,0,0,0,6.024,7.271h5.713a8.879,8.879,0,0,0,6.854-3.55.587.587,0,0,0-.072-.87l-1.5-.961a1.441,1.441,0,0,0-1.756.306,4.128,4.128,0,0,1-2.87,1.254H95.112a2.83,2.83,0,0,1-2.857-3.45l1.223-7.131a4.269,4.269,0,0,1,4.042-3.449h5.713a2.829,2.829,0,0,1,2.858,3.449l-.326,1.9H92.942a1.875,1.875,0,0,0-1.776,1.515l-.27,1.573a.6.6,0,0,0,.608.733h15.589a2.274,2.274,0,0,0,2.153-1.838l.666-3.882A5.965,5.965,0,0,0,103.889,7.27Z"/></g></g></svg>