<svg xmlns="http://www.w3.org/2000/svg" viewBox="0 0 178.994 123.184"><defs><style>.cls-1{fill:#9b9b9b;}</style></defs><title>marcaRecurso 25</title><g id="Capa_2" data-name="Capa 2"><g id="Capa_1-2" data-name="Capa 1"><path class="cls-1" d="M77.135,20.848A12.142,12.142,0,0,0,80.629,8.732,32.433,32.433,0,0,0,63.386,22.689,12.143,12.143,0,0,0,77.135,20.848Z"/><path class="cls-1" d="M89.637,0V4.851c18.731.33,33.881,18.07,33.881,39.831s-15.15,39.5-33.881,39.831v4.852c21.406-.325,38.733-20.242,38.733-44.683S111.043.325,89.637,0Z"/><path class="cls-1" d="M87.136,84.454c-18.061-1.186-32.442-18.57-32.442-39.772S69.075,6.1,87.136,4.91V.049C66.4,1.221,49.843,20.792,49.843,44.682S66.4,88.144,87.136,89.316Z"/><path class="cls-1" d="M114.79,66.728l.046-.073Z"/><path class="cls-1" d="M114.156,48.366V42.75H105.12V33.635L101.9,31.669l-3.218,1.966V42.75H89.648v5.616h0v33.6a27.416,27.416,0,0,0,4.27-.409V48.366h2.476V80.987a28.332,28.332,0,0,0,4.27-1.554V48.366h2.476V78.153a31.266,31.266,0,0,0,4.27-2.968V48.366h2.476V72.93a35.863,35.863,0,0,0,4.27-5.228V48.366Z"/><polygon class="cls-1" points="103.132 78.166 103.14 78.162 103.14 78.153 103.132 78.158 103.132 78.166"/><path class="cls-1" d="M114.2,67.631l-.047.071v0C114.172,67.68,114.187,67.655,114.2,67.631Z"/><path class="cls-1" d="M116.632,40.275V56.8h0v6.645a41.922,41.922,0,0,0,4.348-18.761c0-20.568-14.3-37.3-31.873-37.3a27.393,27.393,0,0,0-6.09.691,14.565,14.565,0,0,1,.493,4.657l7.264,1.058-.356,2.449-7.261-1.057a14.706,14.706,0,0,1-1.126,3.172L92.4,24.585l-1.275,2.122L80.752,20.473a14.637,14.637,0,0,1-1.942,2.2c-.078.071-.162.133-.241.2l7.646,10.255-1.985,1.48L76.579,24.345a14.564,14.564,0,0,1-3.043,1.424l3.432,13.774-2.4.6-3.438-13.8c-.341.051-.683.1-1.027.124a14.86,14.86,0,0,1-2.131.015L65.888,40.909l-2.45-.354,2.085-14.446a14.591,14.591,0,0,1-3.384-1.272,41.812,41.812,0,0,0-4.906,19.846,42.436,42.436,0,0,0,2.956,15.661V48.366h2.476V65.488a36.667,36.667,0,0,0,4.27,5.948V48.366h2.476v25.61a32.054,32.054,0,0,0,4.27,3.332V48.366h2.476V78.752a28.643,28.643,0,0,0,4.27,1.809v-32.2H82.9v32.9a27.4,27.4,0,0,0,4.271.632V56.8h0V40.275h9.036V32.247l4.456-2.723V23.286H97.446V20.811h3.218V16.85h2.476v3.961h3.218v2.475H103.14v6.238l4.456,2.723v8.028Z"/><path class="cls-1" d="M87.83,81.944c-.22-.01-.438-.03-.657-.045v.008C87.391,81.922,87.611,81.933,87.83,81.944Z"/><path class="cls-1" d="M12.361,119.512v2.455a10.313,10.313,0,0,1-5.018,1.217c-4.41,0-7.343-3.325-7.343-8.3,0-4.932,2.933-8.212,7.321-8.212a10.45,10.45,0,0,1,4.845,1.064v4.845H9.254v-3.258a14.525,14.525,0,0,0-1.672-.11c-2.629,0-4.41,2.282-4.41,5.692,0,3.455,1.933,5.735,4.8,5.735A9.456,9.456,0,0,0,12.361,119.512Z"/><path class="cls-1" d="M29.285,109.324h-1.7v8.124c0,3.454-2.454,5.736-6.169,5.736s-6.17-2.282-6.17-5.736v-8.124H13.579V106.89h6.387v2.434H18.315v7.994a3.114,3.114,0,1,0,6.213,0v-7.994H22.877V106.89h6.408Z"/><path class="cls-1" d="M44.645,120.533v2.433H40.517l-2.78-6.039H35.26v3.606h1.651v2.433H30.524v-2.433H32.2V109.324H30.524V106.89H38c3.346,0,5.54,2.043,5.54,5.084a4.649,4.649,0,0,1-2.8,4.366l2.02,4.193Zm-9.385-6.018h2.585a2.542,2.542,0,1,0-.043-5.083H35.26Z"/><path class="cls-1" d="M60.83,109.324H59.136v8.124c0,3.454-2.455,5.736-6.17,5.736s-6.17-2.282-6.17-5.736v-8.124H45.124V106.89H51.51v2.434H49.859v7.994a3.114,3.114,0,1,0,6.213,0v-7.994H54.421V106.89H60.83Z"/><path class="cls-1" d="M73.8,118.3v4.671H61.96v-1.911l7.647-11.623H65v1.847H62.07V106.89H73.6v1.89L65.98,120.424h4.91V118.3Z"/><path class="cls-1" d="M90.681,109.324H88.986v8.124c0,3.454-2.455,5.736-6.169,5.736s-6.17-2.282-6.17-5.736v-8.124H74.974V106.89h6.387v2.434H79.71v7.994a3.114,3.114,0,1,0,6.213,0v-7.994H84.272V106.89h6.409Zm-6.887-3.476h-2.52l2.542-3.52h3.432Z"/><path class="cls-1" d="M108.582,119.512v2.455a10.313,10.313,0,0,1-5.018,1.217c-4.41,0-7.343-3.325-7.343-8.3,0-4.932,2.933-8.212,7.321-8.212a10.45,10.45,0,0,1,4.845,1.064v4.845h-2.911v-3.258a14.557,14.557,0,0,0-1.673-.11c-2.629,0-4.41,2.282-4.41,5.692,0,3.455,1.933,5.735,4.8,5.735A9.456,9.456,0,0,0,108.582,119.512Z"/><path class="cls-1" d="M125.507,109.324h-1.7v8.124c0,3.454-2.455,5.736-6.17,5.736s-6.169-2.282-6.169-5.736v-8.124H109.8V106.89h6.387v2.434h-1.651v7.994a3.114,3.114,0,1,0,6.213,0v-7.994H119.1V106.89h6.41Z"/><path class="cls-1" d="M141.822,120.533v2.433h-6.408v-2.433h1.629l-.782-2.455h-5.475L130,120.533h1.608v2.433h-6.387v-2.433h1.586l3.867-11.209h-1.8V106.89h6.648l4.715,13.643Zm-6.365-5-1.934-6.105-1.932,6.105Z"/><path class="cls-1" d="M154.054,111.778h-2.911v-2.346h-2.151v11.1h2.086v2.433h-7.256v-2.433h2.107v-11.1h-2.151v2.346h-2.932V106.89h13.208Z"/><path class="cls-1" d="M159.985,109.324v11.209h1.651v2.433h-6.387v-2.433h1.673V109.324h-1.673V106.89h6.387v2.434Z"/><path class="cls-1" d="M178.994,120.533v2.433h-6.408v-2.433h1.629l-.783-2.455h-5.474l-.782,2.455h1.608v2.433H162.4v-2.433h1.586l3.867-11.209h-1.8V106.89h6.648l4.715,13.643Zm-6.365-5-1.934-6.105-1.933,6.105Zm-.956-9.689h-2.52l2.542-3.52h3.432Z"/></g></g></svg>