<svg xmlns="http://www.w3.org/2000/svg" viewBox="0 0 155.499 30.558"><defs><style>.cls-1{fill:#9b9b9b;}.cls-2{fill:#fff;}</style></defs><title>marcaRecurso 8</title><g id="Capa_2" data-name="Capa 2"><g id="Capa_1-2" data-name="Capa 1"><path id="Trazado_68" data-name="Trazado 68" class="cls-1" d="M89.253,16.423A4.6,4.6,0,0,1,88,19.97a4.394,4.394,0,0,1-3.075,1.111,4.274,4.274,0,0,1-3.08-1.19A4.833,4.833,0,0,1,80.6,16.272V5.752H75.528v10.61a11.244,11.244,0,0,0,.667,4.115,6.933,6.933,0,0,0,1.819,2.682A7.387,7.387,0,0,0,80.887,24.7a14.283,14.283,0,0,0,3.982.518,14.654,14.654,0,0,0,4.017-.518A7.524,7.524,0,0,0,91.8,23.157a6.982,6.982,0,0,0,1.846-2.709,11.566,11.566,0,0,0,.681-4.234V5.752H89.255Z"/><path id="Trazado_69" data-name="Trazado 69" class="cls-1" d="M115.732,9.953v-.06a3.63,3.63,0,0,0-.271-1.474,3.486,3.486,0,0,0-.718-1.072,4.282,4.282,0,0,0-.815-.635v6.482a4.7,4.7,0,0,0,1.042-.869,3.423,3.423,0,0,0,.762-2.372Z"/><path id="Trazado_70" data-name="Trazado 70" class="cls-1" d="M66.276,17.038,57.182,5.752H52.127V24.6l.083.2h4.813V13.084L66.45,24.8h4.722V5.752H66.277Z"/><path id="Trazado_71" data-name="Trazado 71" class="cls-1" d="M34.963,5.6,26.932,24.8H32.17l1.089-2.842h8.86L43.237,24.8H48.6L40.571,5.6Z"/><path id="Trazado_72" data-name="Trazado 72" class="cls-1" d="M21.11,8.335a9.922,9.922,0,0,0-3.567-1.891,17.618,17.618,0,0,0-5.2-.692H5.3V24.8h6.8a17.114,17.114,0,0,0,5.277-.732,10.358,10.358,0,0,0,3.651-2,7.952,7.952,0,0,0,2.138-2.99,10.359,10.359,0,0,0,.723-3.922v-.061a10.2,10.2,0,0,0-.707-3.88A7.567,7.567,0,0,0,21.11,8.335Z"/><path id="Trazado_73" data-name="Trazado 73" class="cls-1" d="M113.928,16.255v7.639a5.412,5.412,0,0,0,.888-.543,4.083,4.083,0,0,0,1.231-1.474,4.317,4.317,0,0,0,.412-1.886v-.062a3.437,3.437,0,0,0-.9-2.6,5.755,5.755,0,0,0-1.636-1.077Z"/><rect id="Rect치ngulo_33" data-name="Rect치ngulo 33" class="cls-1" x="120.15" y="5.752" width="4.955" height="19.044"/><path id="Trazado_74" data-name="Trazado 74" class="cls-1" d="M147.215,8.184a10.423,10.423,0,0,0-3.323-2.113,11.5,11.5,0,0,0-8.319.014,10.487,10.487,0,0,0-3.34,2.139,9.993,9.993,0,0,0-2.214,3.174,9.471,9.471,0,0,0-.8,3.88v.062a9.615,9.615,0,0,0,2.981,7.028,10.438,10.438,0,0,0,3.324,2.113,11.53,11.53,0,0,0,8.32-.012,10.525,10.525,0,0,0,3.339-2.142,10,10,0,0,0,2.213-3.173,9.491,9.491,0,0,0,.8-3.88v-.061a9.618,9.618,0,0,0-2.982-7.028Z"/><path id="Trazado_75" data-name="Trazado 75" class="cls-1" d="M154.266,9.213a14.9,14.9,0,0,0-3.4-4.869,15.733,15.733,0,0,0-5-3.19,16.819,16.819,0,0,0-12.3.022A16.15,16.15,0,0,0,130.4,2.893V.456h-15.55V1.3c-.126-.048-.253-.091-.379-.135a15.6,15.6,0,0,0-5-.706H60.977V2.023L59.717.457H46.835V6.842L44.1.306H31.437L27.894,8.773a12.836,12.836,0,0,0-3.317-4.441,15.192,15.192,0,0,0-5.456-2.941,22.841,22.841,0,0,0-6.78-.934H0V30.1H12.1a22.358,22.358,0,0,0,6.925-1c.143-.048.284-.1.425-.146l-.478,1.141H35.815L36.9,27.251h1.6l1.119,2.842H62.315v-1.97L63.906,30.1H76.464V28.549A13.236,13.236,0,0,0,79.4,29.793a19.587,19.587,0,0,0,5.463.732,19.907,19.907,0,0,0,5.476-.725,13.292,13.292,0,0,0,3.043-1.285V30.1h16a17.14,17.14,0,0,0,4.694-.6c.267-.076.528-.16.785-.25v.853h15.55V27.721a16.078,16.078,0,0,0,3.143,1.684,16.821,16.821,0,0,0,12.295-.021,15.8,15.8,0,0,0,5.013-3.228,15.3,15.3,0,0,0,3.386-4.844,14.783,14.783,0,0,0,1.256-6.027v-.061a14.931,14.931,0,0,0-1.23-6Zm-.738,6.062a12.824,12.824,0,0,1-1.086,5.229,13.3,13.3,0,0,1-2.952,4.222,13.824,13.824,0,0,1-4.392,2.825,14.849,14.849,0,0,1-10.819.017,13.764,13.764,0,0,1-4.374-2.788,12.831,12.831,0,0,1-1.47-1.663v5.01H116.819V26.01a9.9,9.9,0,0,1-3.294,1.59,15.167,15.167,0,0,1-4.148.523H95.354V24.182A9.485,9.485,0,0,1,94,25.651,10.75,10.75,0,0,1,89.8,27.9a17.874,17.874,0,0,1-4.933.648,17.661,17.661,0,0,1-4.914-.649A10.717,10.717,0,0,1,75.8,25.645a9.677,9.677,0,0,1-1.3-1.414v3.893H64.851l-4.5-5.594v5.594H40.966l-1.119-2.843h-4.3l-1.086,2.843H21.93l1.607-3.839c-.1.1-.2.189-.309.28a13.66,13.66,0,0,1-4.814,2.659,20.363,20.363,0,0,1-6.313.9H1.969V2.423H12.342a20.873,20.873,0,0,1,6.194.846,13.175,13.175,0,0,1,4.755,2.55,10.877,10.877,0,0,1,2.974,4.137,13.5,13.5,0,0,1,.952,5.138v.4L32.75,2.272H42.786L48.8,16.642V2.423h9.977L62.95,7.6V2.423H83.937V16.27a2.148,2.148,0,0,0,.229,1.224.97.97,0,0,0,.765.255,1.122,1.122,0,0,0,.824-.234,2.2,2.2,0,0,0,.171-1.092v-14h23.551a13.893,13.893,0,0,1,4.368.6,8.413,8.413,0,0,1,2.974,1.7v-2.3h11.617v5.1a13.239,13.239,0,0,1,1.491-1.7A13.8,13.8,0,0,1,134.319,3a14.857,14.857,0,0,1,10.82-.018,13.753,13.753,0,0,1,4.374,2.79,12.939,12.939,0,0,1,4.016,9.443Z"/><path id="Trazado_76" data-name="Trazado 76" class="cls-2" d="M17,11.046A7.53,7.53,0,0,0,12.492,9.8H10.253V20.748h2.239A7.53,7.53,0,0,0,17,19.5a4.863,4.863,0,0,0,1.873-4.2v-.062A4.864,4.864,0,0,0,17,11.041M15.542,15.3a1.765,1.765,0,0,1-.5,1.5,3.34,3.34,0,0,1-1.458.534V13.2a3.316,3.316,0,0,1,1.458.534,1.765,1.765,0,0,1,.5,1.5Z"/><path id="Trazado_77" data-name="Trazado 77" class="cls-1" d="M34.244,19.055h6.932L37.71,9.848Z"/><path id="Trazado_78" data-name="Trazado 78" class="cls-2" d="M143.714,11.256a5.341,5.341,0,0,0-1.733-1.318,5.265,5.265,0,0,0-2.3-.5,5.181,5.181,0,0,0-2.274.5,5.41,5.41,0,0,0-1.725,1.294,5.622,5.622,0,0,0-1.08,1.843,6.284,6.284,0,0,0-.366,2.139v.061a6.252,6.252,0,0,0,.382,2.166,5.961,5.961,0,0,0,1.083,1.852,5.341,5.341,0,0,0,8.038.021,5.587,5.587,0,0,0,1.08-1.843,6.331,6.331,0,0,0,.366-2.138v-.062a6.221,6.221,0,0,0-.383-2.165,6.007,6.007,0,0,0-1.085-1.854m-1.862,4.08a3.025,3.025,0,0,1-.171,1.019,2.287,2.287,0,0,1-.439.758,2.073,2.073,0,0,1-.674.5,1.865,1.865,0,0,1-.829.169,1.955,1.955,0,0,1-.859-.169,1.991,1.991,0,0,1-.659-.5,2.7,2.7,0,0,1-.48-.829,2.951,2.951,0,0,1-.177-1.015v-.061a3.019,3.019,0,0,1,.17-1.019,2.268,2.268,0,0,1,.439-.756,2.12,2.12,0,0,1,.673-.5,1.9,1.9,0,0,1,.829-.168,1.968,1.968,0,0,1,.859.168,2,2,0,0,1,.659.5,2.68,2.68,0,0,1,.479.828,2.923,2.923,0,0,1,.178,1.014Z"/><path id="Trazado_79" data-name="Trazado 79" class="cls-1" d="M25.549,15.154v-.061a11.842,11.842,0,0,0-.831-4.507A9.245,9.245,0,0,0,22.2,7.077a11.6,11.6,0,0,0-4.162-2.222,19.279,19.279,0,0,0-5.7-.768H3.623V26.461h8.466a18.772,18.772,0,0,0,5.8-.816,11.982,11.982,0,0,0,4.233-2.329,9.59,9.59,0,0,0,2.583-3.608,12.027,12.027,0,0,0,.846-4.553m-8.345.151a3.258,3.258,0,0,1-1.187,2.855,5.935,5.935,0,0,1-3.529.927h-.577V11.475h.574a5.928,5.928,0,0,1,3.529.927A3.252,3.252,0,0,1,17.2,15.251Z"/><path id="Trazado_80" data-name="Trazado 80" class="cls-1" d="M64.612,12.315,57.979,4.084H50.463V24.93l-8.785-21H33.856L24.434,26.461h8.883l1.089-2.842h6.572L42.1,26.461H58.685V17.805l6.964,8.653h7.185V4.083h-8.22ZM36.648,17.383l1.06-2.815,1.059,2.815Z"/><path id="Trazado_81" data-name="Trazado 81" class="cls-1" d="M87.587,16.427a3.072,3.072,0,0,1-.711,2.318,2.749,2.749,0,0,1-1.949.673,2.625,2.625,0,0,1-1.922-.723,3.3,3.3,0,0,1-.739-2.425V4.087h-8.4V16.362a12.915,12.915,0,0,0,.782,4.728,8.583,8.583,0,0,0,2.264,3.315,9.044,9.044,0,0,0,3.514,1.9,15.979,15.979,0,0,0,4.446.586,16.309,16.309,0,0,0,4.476-.586,9.185,9.185,0,0,0,3.558-1.9A8.6,8.6,0,0,0,95.2,21.059a13.2,13.2,0,0,0,.8-4.848V4.087H87.592Z"/><rect id="Rect치ngulo_34" data-name="Rect치ngulo 34" class="cls-1" x="118.484" y="4.088" width="8.285" height="22.374"/><path id="Trazado_82" data-name="Trazado 82" class="cls-1" d="M150.933,10.663a11.3,11.3,0,0,0-2.572-3.688,12.127,12.127,0,0,0-3.848-2.451,13.2,13.2,0,0,0-9.571.016,12.151,12.151,0,0,0-3.865,2.483,11.629,11.629,0,0,0-2.581,3.7,11.133,11.133,0,0,0-.945,4.553v.062a11.285,11.285,0,0,0,3.5,8.238,12.12,12.12,0,0,0,3.849,2.451,13.2,13.2,0,0,0,9.569-.016,12.135,12.135,0,0,0,3.864-2.483,11.635,11.635,0,0,0,2.583-3.7,11.141,11.141,0,0,0,.945-4.554v-.061a11.314,11.314,0,0,0-.927-4.55m-7.419,4.672a4.729,4.729,0,0,1-.266,1.581,4.013,4.013,0,0,1-.76,1.3,3.788,3.788,0,0,1-1.2.9,3.533,3.533,0,0,1-1.551.333,3.609,3.609,0,0,1-1.581-.333,3.664,3.664,0,0,1-1.2-.909,4.316,4.316,0,0,1-.781-1.34,4.589,4.589,0,0,1-.281-1.59v-.061a4.675,4.675,0,0,1,.266-1.581,3.97,3.97,0,0,1,.761-1.3,3.787,3.787,0,0,1,1.2-.9,3.738,3.738,0,0,1,4.328.911,4.322,4.322,0,0,1,.783,1.34,4.56,4.56,0,0,1,.28,1.59Z"/><path id="Trazado_83" data-name="Trazado 83" class="cls-1" d="M96.944,4.148h13.3a7.438,7.438,0,0,1,5.107,1.584,5.034,5.034,0,0,1,1.779,3.919,4.825,4.825,0,0,1-1.271,3.362,5.694,5.694,0,0,1-2.477,1.478,6.5,6.5,0,0,1,3.646,1.968,5.267,5.267,0,0,1,1.171,3.506,5.853,5.853,0,0,1-.83,3.09,6.024,6.024,0,0,1-2.274,2.171,7.738,7.738,0,0,1-2.7.723q-2.4.3-3.184.3H96.944Zm7.168,8.669h3.09a3.661,3.661,0,0,0,2.314-.55,1.965,1.965,0,0,0,.652-1.59,1.856,1.856,0,0,0-.652-1.508,3.6,3.6,0,0,0-2.269-.543h-3.138Zm0,8.684h3.623a4.1,4.1,0,0,0,2.588-.627,2.068,2.068,0,0,0,.754-1.684,1.922,1.922,0,0,0-.745-1.576,4.3,4.3,0,0,0-2.612-.6h-3.608Z"/><path id="Trazado_84" data-name="Trazado 84" class="cls-2" d="M40.188,19.246,37.717,11.2l-2.446,8.048Z"/><path id="Trazado_85" data-name="Trazado 85" class="cls-1" d="M36.835,18.144,37.7,14.25l.875,3.894Z"/><path id="Trazado_86" data-name="Trazado 86" class="cls-1" d="M105.457,11.583V9.936h1.605a2,2,0,0,1,1.222.234.646.646,0,0,1,.219.555.723.723,0,0,1-.223.621c-.064.056-.349.236-1.253.236Z"/><path id="Trazado_87" data-name="Trazado 87" class="cls-1" d="M105.457,20.148V18.286h1.959a2.5,2.5,0,0,1,1.493.283.7.7,0,0,1,.277.6.81.81,0,0,1-.293.684,2.361,2.361,0,0,1-1.464.3Z"/></g></g></svg>