<svg xmlns="http://www.w3.org/2000/svg" viewBox="0 0 170.986 40.092"><defs><style>.cls-1{fill:#9b9b9b;fill-rule:evenodd;}</style></defs><title>marcaRecurso 9</title><g id="Capa_2" data-name="Capa 2"><g id="Capa_1-2" data-name="Capa 1"><path id="Trazado_121" data-name="Trazado 121" class="cls-1" d="M157.232,29.984h5.062V23.406c0-1.73.625-2.568,1.9-2.568,1.391,0,1.728.788,1.728,2.543v6.6h5.064V23.354c0-2.2-.073-3.743-1.059-4.919A4.5,4.5,0,0,0,166.3,16.9a5.363,5.363,0,0,0-4.465,2.209V17.231h-4.6V29.98ZM145.88,23.6c0-2.255.553-3.289,2.089-3.289s2.113,1.034,2.113,3.289-.575,3.313-2.113,3.313S145.88,25.856,145.88,23.6Zm-5.11,0c0,4.223,2.713,6.843,7.2,6.843s7.2-2.621,7.2-6.843-2.709-6.815-7.2-6.815-7.2,2.594-7.2,6.815Zm6.744-10.924-1.584,3.05h1.8l2.679-3.05Zm-13.2,10.97c0,1.922-.719,2.88-2.088,2.88q-2.087,0-2.089-2.88c0-2.017.625-2.951,2.135-2.951,1.392,0,2.043.96,2.043,2.952ZM125.22,35.094h4.917V28.78a4.233,4.233,0,0,0,3.6,1.637c3.411,0,5.641-2.621,5.641-6.772,0-4.1-2.3-6.741-5.542-6.741a4.694,4.694,0,0,0-4.129,1.968V17.238h-4.485V35.1Zm-8.017-5.11h5.112V12.728H117.2V29.985Zm-8.038-5.69a6.055,6.055,0,0,1,.023.646c0,1.684-.719,2.45-2.424,2.45-.936,0-1.44-.433-1.44-1.154,0-1.222,1.488-1.055,3.841-1.943Zm.457,5.69h5.086v-.362a1.256,1.256,0,0,1-.554-1.08v-7.1c0-1.7-.286-2.663-1.628-3.576a9.682,9.682,0,0,0-4.968-1.08c-4.466,0-6.765,1.488-6.815,4.343h4.943c.094-.863.644-1.272,1.7-1.272,1.226,0,1.824.313,1.824,1.055,0,1.176-1.053,1.055-3.5,1.367-3.766.479-5.542,1.272-5.542,4.105,0,2.567,1.607,4.059,4.512,4.059a6.577,6.577,0,0,0,4.63-1.684l.313,1.225ZM88.741,23.528c0-1.922.671-2.88,2.039-2.88,1.343,0,2.136,1.03,2.136,2.9,0,2.018-.649,3-2.136,3-1.391,0-2.039-1.009-2.039-3.022Zm-4.2,7.8c.336,2.351,2.5,3.764,6.143,3.764,5.16,0,7.126-1.676,7.126-6.116V17.238H93.325v1.655A4.8,4.8,0,0,0,89.148,16.9c-3.241,0-5.447,2.543-5.447,6.741,0,3.914,2.255,6.464,5.687,6.464a4.868,4.868,0,0,0,3.551-1.254v.7c0,1.932-.22,2.643-1.9,2.643-.913,0-1.367-.238-1.488-.856Z"/><path id="Trazado_122" data-name="Trazado 122" class="cls-1" d="M76.314,29.981h5.108V12.728h-5.11V29.981Zm-16.583,0h14.13v-4.2H65.27V23.118h6.991v-3.96H65.279v-2.3h8.255V12.726h-13.8Z"/><path id="Trazado_123" data-name="Trazado 123" class="cls-1" d="M45.651,0H0V34.761a5.349,5.349,0,0,0,5.331,5.331h40.32a5.344,5.344,0,0,0,5.331-5.331V5.332A5.344,5.344,0,0,0,45.651,0Zm-.337,20.08-4.12.089a.906.906,0,0,1-.435-.2l-9-10.43L8.137,35.021H21.394a.565.565,0,0,1,0,1.129H6.842a.571.571,0,0,1-.411-.944L31.358,8.315a.585.585,0,0,1,.827.008l.01.01,9.237,10.7,2.656-.057L32.177,5.325,6.1,33.262a.563.563,0,0,1-.841-.749l.017-.018,26.5-28.386a.6.6,0,0,1,.837.011L45.723,19.151a.57.57,0,0,1-.412.928Z"/></g></g></svg>