<svg xmlns="http://www.w3.org/2000/svg" viewBox="0 0 139.676 80.919"><defs><style>.cls-1{fill:#9b9b9b;}</style></defs><title>marcaRecurso 24</title><g id="Capa_2" data-name="Capa 2"><g id="Capa_1-2" data-name="Capa 1"><path id="Trazado_31" data-name="Trazado 31" class="cls-1" d="M2.375,80.913a3.818,3.818,0,0,1-1.332-.2,2.681,2.681,0,0,1-1.025-.7l.813-.867a1.806,1.806,0,0,0,.69.439,2.541,2.541,0,0,0,.873.138c.761,0,1.138-.28,1.138-.843a.7.7,0,0,0-.139-.524,1.06,1.06,0,0,0-.283-.215,1.551,1.551,0,0,0-.348-.091l-.779-.111a2.177,2.177,0,0,1-1.269-.6,1.845,1.845,0,0,1-.439-1.318,1.967,1.967,0,0,1,.6-1.507,2.284,2.284,0,0,1,1.643-.575,3.12,3.12,0,0,1,1.176.187,2.351,2.351,0,0,1,.912.607l-.8.843a1.37,1.37,0,0,0-.611-.366,2.246,2.246,0,0,0-.7-.1,1.018,1.018,0,0,0-.746.238.847.847,0,0,0-.213.895.827.827,0,0,0,.2.28.984.984,0,0,0,.545.209l.765.117a2.062,2.062,0,0,1,1.154.465A1.611,1.611,0,0,1,4.65,78a2.605,2.605,0,0,1,.119.837A1.9,1.9,0,0,1,4.1,80.364a2.631,2.631,0,0,1-1.723.549Z"/><path id="Trazado_32" data-name="Trazado 32" class="cls-1" d="M10.778,80.159a2.61,2.61,0,0,1-.77.559,2.561,2.561,0,0,1-1.946,0,2.732,2.732,0,0,1-.821-.605,1.9,1.9,0,0,1-.5-.992,11.791,11.791,0,0,1-.1-1.7,11.1,11.1,0,0,1,.1-1.7,1.824,1.824,0,0,1,.5-1,2.485,2.485,0,0,1,.8-.6,2.3,2.3,0,0,1,.979-.187,2.278,2.278,0,0,1,.96.187,2.6,2.6,0,0,1,.82.6,1.9,1.9,0,0,1,.5,1.006,9.293,9.293,0,0,1,.113,1.691,9.775,9.775,0,0,1-.106,1.7A2.009,2.009,0,0,1,10.778,80.159ZM9.842,75.5a1,1,0,0,0-.8-.373.95.95,0,0,0-.465.108,1.057,1.057,0,0,0-.376.293,1.068,1.068,0,0,0-.225.554,16.038,16.038,0,0,0,0,2.7,1.341,1.341,0,0,0,.3.646.955.955,0,0,0,.765.293.924.924,0,0,0,.746-.293,1.424,1.424,0,0,0,.31-.685,8.8,8.8,0,0,0,.066-1.318,8.73,8.73,0,0,0-.066-1.333,1.316,1.316,0,0,0-.248-.59Z"/><path id="Trazado_33" data-name="Trazado 33" class="cls-1" d="M13.616,80.86V74h1.255v5.679H17.8V80.86Z"/><path id="Trazado_34" data-name="Trazado 34" class="cls-1" d="M22.012,80.913a2.347,2.347,0,0,1-1.694-.67,2.309,2.309,0,0,1-.679-1.734V74H20.9v4.457a1.331,1.331,0,0,0,.3.925,1.034,1.034,0,0,0,.812.341,1.091,1.091,0,0,0,.828-.333,1.344,1.344,0,0,0,.3-.933V74h1.244V78.51a2.3,2.3,0,0,1-2.207,2.4c-.057,0-.114,0-.171,0Z"/><path id="Trazado_35" data-name="Trazado 35" class="cls-1" d="M28.854,80.914a2.36,2.36,0,0,1-.952-.193,2.652,2.652,0,0,1-.831-.616,1.8,1.8,0,0,1-.494-.981,10.4,10.4,0,0,1-.092-1.7,10.173,10.173,0,0,1,.1-1.7,1.943,1.943,0,0,1,.5-1,2.5,2.5,0,0,1,.818-.6,2.212,2.212,0,0,1,.952-.187,2.326,2.326,0,0,1,1.585.56,2.6,2.6,0,0,1,.8,1.607H29.958a1.392,1.392,0,0,0-.366-.7,1.088,1.088,0,0,0-1.475.015,1.352,1.352,0,0,0-.307.679,9.957,9.957,0,0,0-.066,1.326,11.769,11.769,0,0,0,.058,1.34,1.5,1.5,0,0,0,.313.659.92.92,0,0,0,.754.293,1,1,0,0,0,.723-.266,1.425,1.425,0,0,0,.366-.713h1.278a2.568,2.568,0,0,1-.8,1.6,2.33,2.33,0,0,1-1.582.571Z"/><path id="Trazado_36" data-name="Trazado 36" class="cls-1" d="M33.238,80.86V74H34.49v6.861Z"/><path id="Trazado_37" data-name="Trazado 37" class="cls-1" d="M40.818,80.159a2.619,2.619,0,0,1-.776.559,2.29,2.29,0,0,1-.962.193,2.344,2.344,0,0,1-.974-.193,2.688,2.688,0,0,1-.828-.605,1.882,1.882,0,0,1-.5-.992,10.985,10.985,0,0,1-.092-1.7,9.858,9.858,0,0,1,.1-1.7,1.877,1.877,0,0,1,.491-1,2.5,2.5,0,0,1,.821-.6,2.567,2.567,0,0,1,1.93,0,2.528,2.528,0,0,1,.823.6,2.049,2.049,0,0,1,.5,1.006,11.112,11.112,0,0,1,.1,1.691,10.624,10.624,0,0,1-.1,1.7,2.007,2.007,0,0,1-.541,1.039ZM39.874,75.5A1.058,1.058,0,0,0,38.6,75.23a1.187,1.187,0,0,0-.371.293,1.113,1.113,0,0,0-.23.554,10.113,10.113,0,0,0-.058,1.348A9.882,9.882,0,0,0,38,78.779a1.327,1.327,0,0,0,.3.646.972.972,0,0,0,.773.293.911.911,0,0,0,.742-.293,1.491,1.491,0,0,0,.307-.685,7.454,7.454,0,0,0,.069-1.318,8.246,8.246,0,0,0-.063-1.333,1.246,1.246,0,0,0-.255-.59Z"/><path id="Trazado_38" data-name="Trazado 38" class="cls-1" d="M47.474,80.86l-2.562-4.207V80.86H43.645V74h1.134l2.552,4.192V74h1.263v6.861Z"/><path id="Trazado_39" data-name="Trazado 39" class="cls-1" d="M51.007,80.86V74h4.252v1.2H52.277v1.616h2.545V78H52.277v1.684h2.982v1.183Z"/><path id="Trazado_40" data-name="Trazado 40" class="cls-1" d="M59.183,80.913a3.79,3.79,0,0,1-1.336-.2,2.623,2.623,0,0,1-1.025-.7l.813-.867a1.856,1.856,0,0,0,.684.439,2.7,2.7,0,0,0,.878.138c.757,0,1.142-.28,1.142-.843a.7.7,0,0,0-.146-.524.9.9,0,0,0-.274-.214,1.685,1.685,0,0,0-.349-.088l-.777-.111a2.145,2.145,0,0,1-1.269-.6,1.828,1.828,0,0,1-.439-1.318,1.936,1.936,0,0,1,.6-1.507,2.286,2.286,0,0,1,1.64-.575,3.205,3.205,0,0,1,1.184.187,2.334,2.334,0,0,1,.906.607l-.8.843A1.407,1.407,0,0,0,60,75.214a2.3,2.3,0,0,0-.709-.1,1.037,1.037,0,0,0-.746.238.821.821,0,0,0-.252.629.89.89,0,0,0,.041.266.855.855,0,0,0,.2.28,1,1,0,0,0,.545.209l.768.117A2.049,2.049,0,0,1,61,77.318a1.58,1.58,0,0,1,.449.684,2.529,2.529,0,0,1,.124.837,1.9,1.9,0,0,1-.663,1.529A2.666,2.666,0,0,1,59.183,80.913Z"/><path id="Trazado_41" data-name="Trazado 41" class="cls-1" d="M66.68,80.86V74h1.256v6.861Z"/><path id="Trazado_42" data-name="Trazado 42" class="cls-1" d="M74.172,80.86,71.61,76.653V80.86H70.357V74h1.119l2.562,4.192V74H75.3v6.861Z"/><path id="Trazado_43" data-name="Trazado 43" class="cls-1" d="M78.966,75.193v1.684h2.553v1.2H78.966v2.788H77.711V74h4.256v1.2Z"/><path id="Trazado_44" data-name="Trazado 44" class="cls-1" d="M87.882,80.159a2.584,2.584,0,0,1-.779.559,2.286,2.286,0,0,1-.964.192,2.328,2.328,0,0,1-.97-.192,2.6,2.6,0,0,1-.826-.605,1.767,1.767,0,0,1-.491-.992,9.876,9.876,0,0,1-.108-1.7,10.067,10.067,0,0,1,.108-1.7,1.964,1.964,0,0,1,.491-1,2.569,2.569,0,0,1,.817-.6,2.273,2.273,0,0,1,.979-.187,2.239,2.239,0,0,1,.958.187,2.621,2.621,0,0,1,.823.6,1.988,1.988,0,0,1,.5,1.006,10.388,10.388,0,0,1,.094,1.691,10.175,10.175,0,0,1-.094,1.7A2,2,0,0,1,87.882,80.159ZM86.945,75.5a1.061,1.061,0,0,0-1.274-.265,1.182,1.182,0,0,0-.366.293,1.127,1.127,0,0,0-.233.554,9.946,9.946,0,0,0-.055,1.348,10.931,10.931,0,0,0,.05,1.354,1.429,1.429,0,0,0,.31.646.964.964,0,0,0,.766.293.907.907,0,0,0,.745-.293,1.471,1.471,0,0,0,.31-.685,8.546,8.546,0,0,0,.073-1.318,9.13,9.13,0,0,0-.066-1.333,1.252,1.252,0,0,0-.259-.594Z"/><path id="Trazado_45" data-name="Trazado 45" class="cls-1" d="M94.151,80.861l-1.264-2.744h-.906v2.744H90.726V74h2.526a2.01,2.01,0,0,1,1.522.6,2.07,2.07,0,0,1,.568,1.5,1.867,1.867,0,0,1-.335,1.132,1.735,1.735,0,0,1-.846.659l1.444,2.969Zm-.981-5.667H91.981v1.8h1.187a.913.913,0,0,0,.654-.242.859.859,0,0,0,.26-.654.869.869,0,0,0-.25-.654.93.93,0,0,0-.663-.248Z"/><path id="Trazado_46" data-name="Trazado 46" class="cls-1" d="M102.147,80.86v-4l-1.238,2.592h-.849L98.815,76.86v4H97.56V74H98.8l1.69,3.711L102.151,74h1.263v6.861Z"/><path id="Trazado_47" data-name="Trazado 47" class="cls-1" d="M109.5,80.861l-.377-1.222h-2.3l-.388,1.222h-1.318L107.464,74h.981l2.362,6.862ZM108,76.025l-.817,2.5h1.6Z"/><path id="Trazado_48" data-name="Trazado 48" class="cls-1" d="M114.982,75.193V80.86h-1.259V75.193h-1.691v-1.2h4.63v1.2Z"/><path id="Trazado_49" data-name="Trazado 49" class="cls-1" d="M118.6,80.86V74h1.256v6.861Z"/><path id="Trazado_50" data-name="Trazado 50" class="cls-1" d="M124.433,80.913a2.39,2.39,0,0,1-.962-.193,2.711,2.711,0,0,1-.835-.616,1.8,1.8,0,0,1-.482-.981,10.991,10.991,0,0,1-.1-1.7,11.23,11.23,0,0,1,.1-1.7,1.887,1.887,0,0,1,.5-1,2.486,2.486,0,0,1,.815-.6,2.516,2.516,0,0,1,2.536.373,2.57,2.57,0,0,1,.8,1.607h-1.27a1.408,1.408,0,0,0-.366-.7.969.969,0,0,0-.726-.28.937.937,0,0,0-.755.293,1.376,1.376,0,0,0-.3.679,12.207,12.207,0,0,0,0,2.666,1.357,1.357,0,0,0,.3.659.928.928,0,0,0,.755.293,1.028,1.028,0,0,0,.726-.266,1.461,1.461,0,0,0,.366-.713h1.27a2.508,2.508,0,0,1-.805,1.6,2.278,2.278,0,0,1-1.564.574Z"/><path id="Trazado_51" data-name="Trazado 51" class="cls-1" d="M132.481,80.861l-.385-1.222h-2.3l-.387,1.222H128.1L130.444,74h.989l2.356,6.862Zm-1.511-4.836-.81,2.5h1.6Z"/><path id="Trazado_52" data-name="Trazado 52" class="cls-1" d="M137.269,80.913a3.807,3.807,0,0,1-1.326-.2,2.605,2.605,0,0,1-1.025-.7l.81-.867a1.806,1.806,0,0,0,.69.439,2.594,2.594,0,0,0,.878.138c.758,0,1.141-.28,1.141-.843a.716.716,0,0,0-.15-.524,1.015,1.015,0,0,0-.274-.214,1.563,1.563,0,0,0-.355-.088l-.768-.111a2.1,2.1,0,0,1-1.272-.6,1.817,1.817,0,0,1-.447-1.318,1.966,1.966,0,0,1,.605-1.507,2.281,2.281,0,0,1,1.646-.575,3.154,3.154,0,0,1,1.171.187,2.347,2.347,0,0,1,.914.607l-.8.843a1.389,1.389,0,0,0-.615-.366,2.309,2.309,0,0,0-.71-.1,1.026,1.026,0,0,0-.743.238.8.8,0,0,0-.252.629.924.924,0,0,0,.033.266.989.989,0,0,0,.214.28.952.952,0,0,0,.545.209l.754.117a2.02,2.02,0,0,1,1.157.465,1.647,1.647,0,0,1,.463.684,2.821,2.821,0,0,1,.121.837A1.9,1.9,0,0,1,139,80.368a2.65,2.65,0,0,1-1.734.549Z"/><path id="Trazado_53" data-name="Trazado 53" class="cls-1" d="M48.269,37.421a6.207,6.207,0,0,0-3.84-1.33H32.486a6.143,6.143,0,0,0-3.772,1.267,4.323,4.323,0,0,0-1.928,3.632V60.924a2.9,2.9,0,0,1-.275,1.351,1.533,1.533,0,0,1-1.512.8H8.557a1.3,1.3,0,0,1-1.236-.7,2.226,2.226,0,0,1-.247-.992V54.941h10.55a6.271,6.271,0,0,0,3.866-1.292,4.241,4.241,0,0,0,1.83-3.614V40.993a4.259,4.259,0,0,0-1.83-3.57,6.387,6.387,0,0,0-3.866-1.33H5.681A6.127,6.127,0,0,0,1.914,37.36a3.641,3.641,0,0,0-1.439,2.1A19.417,19.417,0,0,0,.02,44.61V61.438c0,2.545.586,4.606,1.9,5.582A6.152,6.152,0,0,0,5.682,68.3H27.556a6.613,6.613,0,0,0,4.6-1.676,5.44,5.44,0,0,0,1.688-3.935V43.647a2.724,2.724,0,0,1,.463-1.636,1.931,1.931,0,0,1,1.673-.74h5.009a1.814,1.814,0,0,1,1.69.723,3.352,3.352,0,0,1,.366,1.8V64.658a4.316,4.316,0,0,0,.5,2.018,3.231,3.231,0,0,0,3.016,1.617H50.1V40.987a4.287,4.287,0,0,0-1.827-3.566Zm-41.2,6.693a3.957,3.957,0,0,1,.366-1.893A2.049,2.049,0,0,1,9.4,41.276h4.736a2.016,2.016,0,0,1,1.7.7,2.475,2.475,0,0,1,.432,1.475v4.422a2.16,2.16,0,0,1-.274,1.266c-.228.325-.7.612-1.738.612H7.069Zm79.252-6.881a6.063,6.063,0,0,0-3.862-1.139H65.946v5.183H79.369a1.663,1.663,0,0,1,1.354.6,1.9,1.9,0,0,1,.392,1.143v1.689H70.532a6.153,6.153,0,0,0-3.78,1.264,4.358,4.358,0,0,0-1.893,3.636V63.389a4.353,4.353,0,0,0,1.893,3.636,6.164,6.164,0,0,0,3.78,1.278l17.6.009V41.39a5.33,5.33,0,0,0-1.809-4.16ZM81.108,63.078H73.991a1.89,1.89,0,0,1-1.843-.933,2.822,2.822,0,0,1-.267-1.252V51.914a1.869,1.869,0,0,1,.744-1.72,1.927,1.927,0,0,1,1-.293h7.487Zm52.661-8.135h0a6.338,6.338,0,0,0,3.872-1.292,4.28,4.28,0,0,0,1.83-3.614V40.991a4.284,4.284,0,0,0-1.83-3.57,6.409,6.409,0,0,0-3.872-1.33H121.841a6.171,6.171,0,0,0-3.778,1.261,4.328,4.328,0,0,0-1.9,3.639V63.164h-15.45a1.039,1.039,0,0,1-.882-.366,1.357,1.357,0,0,1-.227-.82V43.366a1.944,1.944,0,0,1,.718-1.771,2.646,2.646,0,0,1,1.416-.321h11.4V36.091H98.223a6.175,6.175,0,0,0-3.777,1.261,4.325,4.325,0,0,0-1.888,3.639V63.385a4.32,4.32,0,0,0,1.888,3.636A6.17,6.17,0,0,0,98.223,68.3h40.6V63.164H125.542a2.128,2.128,0,0,1-2.315-1.921c-.006-.067-.009-.135-.009-.2v-6.1Zm-10.55-11.936a1.4,1.4,0,0,1,1.021-1.7,1.365,1.365,0,0,1,.459-.036h6.209a1.438,1.438,0,0,1,1.291.512,1.5,1.5,0,0,1,.224.922v5.843a1.339,1.339,0,0,1-.172.732c-.16.236-.469.465-1.236.465h-7.8ZM59.293,30.151a1.621,1.621,0,0,0-1.524-1.711l-.087,0a1.6,1.6,0,0,0-1.6,1.6v.036a2.566,2.566,0,0,1-.037.532L54.356,64.514a3.772,3.772,0,0,0,1.2,3.192,2.936,2.936,0,0,0,1.8.593H61.4L59.3,30.616s-.019-.324-.019-.466Z"/><path id="Trazado_54" data-name="Trazado 54" class="cls-1" d="M64.278,16.441A17.778,17.778,0,0,0,56.571,14.8a29.551,29.551,0,0,0-11.979,2.809.528.528,0,0,0-.25.25,6.644,6.644,0,0,0,1.036,6.735.517.517,0,0,0,.411.182c.4-.045.387-.131.616-.245,1.307-.8,5.752-3.861,10.744-3.861a11.1,11.1,0,0,1,3.547.561c3.993,1.31,6.3,3.974,6.275,6.457a4.629,4.629,0,0,1-.828,2.583.614.614,0,0,0,.029.709.523.523,0,0,0,.411.208.509.509,0,0,0,.239-.056c1.469-.81,3.415-3.52,3.451-6.793C70.293,21.562,68.708,18.538,64.278,16.441Z"/><path id="Trazado_55" data-name="Trazado 55" class="cls-1" d="M68.6,2.838A30.861,30.861,0,0,0,55.27,0,51.805,51.805,0,0,0,34.508,4.85a.552.552,0,0,0-.245.26,10.278,10.278,0,0,0-.82,4.224A10.525,10.525,0,0,0,36,16.393a.563.563,0,0,0,.422.182,2.1,2.1,0,0,0,.887-.381c2.273-1.391,10.1-6.8,19-6.785a19.953,19.953,0,0,1,6.312.981c7.083,2.325,11.274,7.073,11.252,11.7a8.592,8.592,0,0,1-1.519,4.778.585.585,0,0,0,.026.7.513.513,0,0,0,.411.209.431.431,0,0,0,.244-.067c2.375-1.274,5.759-5.954,5.8-11.481C78.851,11.575,76.251,6.464,68.6,2.838Z"/><path id="Trazado_56" data-name="Trazado 56" class="cls-1" d="M59.848,29.89a2.138,2.138,0,1,1-2.137-2.269,2.2,2.2,0,0,1,2.137,2.261Z"/></g></g></svg>