<svg xmlns="http://www.w3.org/2000/svg" viewBox="0 0 213.013 50.735"><defs><style>.cls-1{fill:#9b9b9b;}</style></defs><title>marcaRecurso 26</title><g id="Capa_2" data-name="Capa 2"><g id="Capa_1-2" data-name="Capa 1"><path class="cls-1" d="M19.946,35.8C9.4,35.8,1.182,44.987.838,45.379a3.059,3.059,0,0,0,.228,4.266,2.946,2.946,0,0,0,4.2-.226c.068-.075,6.868-7.571,14.676-7.571,4.242,0,8.134,2.166,10.845,4.178a31.171,31.171,0,0,1-4.961-9.311A20.064,20.064,0,0,0,19.946,35.8Z"/><path class="cls-1" d="M39.627,44.922c-.3-.282-7.472-6.99-7.472-14.668,0-4.773,2.708-9.109,4.858-11.8A31.576,31.576,0,0,1,26.339,24.4a20.974,20.974,0,0,0-.859,5.858c0,10.83,9.288,19.275,9.683,19.629a3.337,3.337,0,0,0,4.464-4.961Z"/><path class="cls-1" d="M20.254,24.705a20.163,20.163,0,0,0,6.321-1.06l-.009.024a33.21,33.21,0,0,0,13.078-8.542,2.961,2.961,0,0,0-2.581-5.006,3.046,3.046,0,0,0-.37-.034,3.2,3.2,0,0,0-2.375,1.054c-.065.072-6.633,7.163-14.064,7.163-4.565,0-8.713-2.581-11.3-4.641A30.194,30.194,0,0,1,14.64,23.877,20.041,20.041,0,0,0,20.254,24.705Z"/><path class="cls-1" d="M8.44,30.114c0,4.785-2.683,9.156-4.8,11.868A30.9,30.9,0,0,1,14.164,36a21.393,21.393,0,0,0,.851-5.883c0-10.917-9.149-19.358-9.537-19.711a3.241,3.241,0,0,0-4.64.256,3.408,3.408,0,0,0,.247,4.731C1.158,15.458,8.44,22.251,8.44,30.114Z"/><path class="cls-1" d="M61.619,39.064A12.884,12.884,0,0,0,69.3,36.636a.28.28,0,0,1,.452.057l.226.339c.113.17,0,.282-.113.4a14.24,14.24,0,0,1-8.242,2.653c-6.887,0-11.122-5.306-11.122-11.967,0-6.549,4.235-11.742,11.122-11.742A9.886,9.886,0,0,1,71.894,26.7a5.329,5.329,0,0,1-.227,1.694.465.465,0,0,1-.339.226H51.57C51.739,34.492,55.466,39.064,61.619,39.064Zm9.2-11.4a6.226,6.226,0,0,0,.056-.961,8.937,8.937,0,0,0-9.257-9.314c-6.153,0-9.823,4.516-10.049,10.275Z"/><path class="cls-1" d="M73.516,17.218c-.112-.226-.112-.394.056-.453l.4-.168c.225-.114.339.056.395.168l9.484,21.622,9.484-21.622c.056-.112.169-.282.4-.168l.395.168c.169.059.169.227.057.453L84.187,40.08a.353.353,0,0,1-.678,0Z"/><path class="cls-1" d="M107.047,16.371a11.545,11.545,0,0,1,11.46,11.8,11.469,11.469,0,1,1-22.92,0A11.545,11.545,0,0,1,107.047,16.371Zm0,22.693A10.56,10.56,0,0,0,117.49,28.17a10.449,10.449,0,1,0-20.887,0A10.561,10.561,0,0,0,107.047,39.064Z"/><path class="cls-1" d="M124.137.4A.387.387,0,0,1,124.532,0h.227a.387.387,0,0,1,.395.4V39.121a.387.387,0,0,1-.395.4h-.227a.387.387,0,0,1-.395-.4Z"/><path class="cls-1" d="M129.063,17.218c-.112-.226-.112-.394.057-.453l.4-.168c.226-.114.338.056.4.168L139.4,38.387l9.484-21.622c.056-.112.17-.282.4-.168l.4.168c.169.059.169.227.057.453L139.734,40.08a.353.353,0,0,1-.678,0Z"/><path class="cls-1" d="M162.38,39.064a12.882,12.882,0,0,0,7.677-2.428.281.281,0,0,1,.453.057l.226.339c.112.17,0,.282-.114.4a14.237,14.237,0,0,1-8.242,2.653c-6.887,0-11.121-5.306-11.121-11.967,0-6.549,4.234-11.742,11.121-11.742A9.885,9.885,0,0,1,172.654,26.7a5.33,5.33,0,0,1-.225,1.694.468.468,0,0,1-.339.226H152.332C152.5,34.492,156.227,39.064,162.38,39.064Zm9.2-11.4a6.118,6.118,0,0,0,.057-.961,8.938,8.938,0,0,0-9.259-9.314c-6.153,0-9.822,4.516-10.048,10.275Z"/><path class="cls-1" d="M177.963,17.331a.385.385,0,0,1,.4-.395h.226a.385.385,0,0,1,.395.395v2.99a9.174,9.174,0,0,1,7.338-3.95,7.547,7.547,0,0,1,4.178,1.016.368.368,0,0,1,.113.508l-.17.282a.393.393,0,0,1-.508.113,6.709,6.709,0,0,0-3.613-.9c-4.516,0-6.944,3.953-7.338,4.628V39.121a.387.387,0,0,1-.395.4h-.226a.387.387,0,0,1-.4-.4Z"/><path class="cls-1" d="M202.739,39.064a12.887,12.887,0,0,0,7.677-2.428.28.28,0,0,1,.452.057l.226.339c.113.17,0,.282-.114.4a14.231,14.231,0,0,1-8.241,2.653c-6.888,0-11.122-5.306-11.122-11.967,0-6.549,4.234-11.742,11.122-11.742A9.885,9.885,0,0,1,213.013,26.7a5.358,5.358,0,0,1-.226,1.694.467.467,0,0,1-.338.226H192.691C192.859,34.492,196.586,39.064,202.739,39.064Zm9.2-11.4A6.226,6.226,0,0,0,212,26.7a8.937,8.937,0,0,0-9.257-9.314c-6.153,0-9.823,4.516-10.048,10.275Z"/></g></g></svg>