<svg xmlns="http://www.w3.org/2000/svg" viewBox="0 0 168.698 48.678"><defs><style>.cls-1{fill:#9b9b9b;}</style></defs><title>marcaRecurso 6</title><g id="Capa_2" data-name="Capa 2"><g id="Capa_1-2" data-name="Capa 1"><path id="Trazado_28" data-name="Trazado 28" class="cls-1" d="M168.7,40.856,162.2,27.636c4.695-3.984,4.753-10.688,4.753-11v-1.29C166.957.272,152.975,0,152.818,0H126.836c-4.832,0-7.019,2.522-7.617,4.163l-3.865,7.527-4.546-7.749-.117-.177c-1.83-2.472-3.915-3.7-6.181-3.65-3.568.077-5.878,3.348-6.13,3.72L96.174,8.541,94.236,4.427l-.166-.288C92.2,1.456,90.075.116,87.744.186c-3.651.091-5.97,3.634-6.222,4.037L68.457,30.183l-.78-1.621c4.094-3.638,4.258-10.487,4.264-10.838V16.181C71.653,3.142,59.006,2.508,58.8,2.5H33.86a7.2,7.2,0,0,0-5.637,2.9V2.3H0V41.087H16.646V39.412a10.758,10.758,0,0,0,6.386,1.444H44.1c3.652,0,6.137-1.107,7.384-3.29a6.062,6.062,0,0,0,.732-2.18l2.843,5.469H84.223L87.7,34.19c1.69,3.129,4.16,6.616,8.307,6.616h.029c3.819-.015,6.908-3.52,9.058-6.632l4,6.684h28.27c3.227,0,5.5-1.034,6.75-3.075a8.179,8.179,0,0,0,.8-5.622l4.477,8.693ZM4.686,7.1H23.62v7.967H4.686Zm7.237,28.868H4.679V24.089h7.244Zm5.463-13.583H4.686V16.8h12.7Zm26.453,13.6H23.148s-5.417.307-3.225-4.733l4.162-8.7,4.435,7.417H37.7s1.108-.038.459-1.261l-2.829-4.932V18.913s1.343-1.338-.267-1.338h-3.1s-1.7-.178-.267,1.351v4.832l-2.1,4.078-4.461-7L31.5,8.511s1.568-3.157,3.212-.016L46.1,30.061s3.246,5.921-2.258,5.921Zm22.254-.016H57.856l-8.432-16.28h9.484c2.661-.13,2.635-4.548-.319-4.671l-16.446-.06-4.015-7.75H58.113s8.378-.118,9.2,7.985l.111,1.327c0,3.785-1.021,9.714-6.206,9.509Zm70.836.011H111.848l-4.5-7.92s-2.15-3.533-4.27,0l-2.3,3.979s-4.62,8.744-8.907,0L89.505,27.61s-1.478-2.777-3.534,0l-4.064,8.382H70.757L85.386,6.841S87.845,2.4,90.4,7.126l4.2,9.113s1.361,3.5,3.029,0L102.084,6.8s2.431-4.3,4.961,0l13.188,22.485h9.929s1.073-.134.48-1.229L127.551,22.7V17.346s1.419-1.377-.4-1.377h-3.115s-1.853-.056-.411,1.385v5.355L121.4,27.014l-4.837-7.584,6.865-13.271s1.622-2.685,3.475,0l1.867,3.425,2.913,5.568,7.467,14.275s3.552,6.547-2.22,6.547Zm6.146-17.637h10.2c2.861-.141,2.835-4.923-.343-5.056l-17.683-.067L130.936,4.83h21.482s9-.127,9.9,8.644l.118,1.436c0,4.1-1.1,10.516-6.674,10.294l5.245,10.761h-8.858Z"/><path id="Trazado_29" data-name="Trazado 29" class="cls-1" d="M1.927,48.589H2.62V46.262h.654c.63.023.917.3,1.076,1.045a7.042,7.042,0,0,0,.359,1.283h.717a8.558,8.558,0,0,1-.414-1.474,1.339,1.339,0,0,0-.789-1.084V46a1.412,1.412,0,0,0,1.013-1.372,1.337,1.337,0,0,0-.423-1.02,2.2,2.2,0,0,0-1.554-.439,7.259,7.259,0,0,0-1.332.111v5.305Zm.693-4.815a2.875,2.875,0,0,1,.686-.064c.732.008,1.235.312,1.235,1.005,0,.613-.47,1.02-1.212,1.02H2.62ZM16,45.5H13.91V43.8h2.209v-.582h-2.9v5.373h3.026v-.582H13.917V46.071h2.089V45.5Zm8.141,3.075a10.817,10.817,0,0,0,1.26.064,3.308,3.308,0,0,0,2.375-.775,2.843,2.843,0,0,0,.773-2.089,2.475,2.475,0,0,0-.757-1.929,3.075,3.075,0,0,0-2.177-.669,9.834,9.834,0,0,0-1.474.111Zm.693-4.776a4.032,4.032,0,0,1,.813-.073,1.918,1.918,0,0,1,2.166,1.635,1.888,1.888,0,0,1,.011.438A2.066,2.066,0,0,1,26,48.076a2.039,2.039,0,0,1-.462,0,4.429,4.429,0,0,1-.7-.04V43.789ZM38.14,48.587h.693V46.158h2.033v-.574H38.833V43.8h2.2v-.582H38.141v5.373ZM51.176,46.9l.574,1.69h.742l-1.83-5.373h-.838L48,48.587h.717l.558-1.69Zm-1.762-.542L49.94,44.8c.1-.326.192-.653.271-.972h.016c.08.31.159.63.279.98l.526,1.547Zm10.867,2.231h.694V46.262h.654c.63.023.917.3,1.077,1.045a7.23,7.23,0,0,0,.359,1.283h.716a8.558,8.558,0,0,1-.414-1.474,1.339,1.339,0,0,0-.788-1.086V46a1.412,1.412,0,0,0,1.012-1.372,1.337,1.337,0,0,0-.423-1.02,2.2,2.2,0,0,0-1.554-.439,7.259,7.259,0,0,0-1.332.111v5.3Zm.7-4.815a2.867,2.867,0,0,1,.685-.064c.732.008,1.236.312,1.236,1.005,0,.613-.471,1.02-1.212,1.02h-.709V43.771Zm15.26,4.815h.678l-.335-5.373H75.7l-.957,2.6c-.239.679-.43,1.268-.566,1.81H74.15c-.135-.557-.318-1.147-.542-1.81l-.917-2.6h-.884l-.375,5.373h.659l.146-2.3c.048-.8.088-1.706.1-2.376h.016c.151.638.366,1.332.622,2.089l.869,2.562h.526l.952-2.608c.272-.732.495-1.411.678-2.041h.024c-.008.671.039,1.57.079,2.32l.136,2.359ZM87.682,46.9l.574,1.69H89l-1.83-5.373h-.837l-1.826,5.373h.717l.558-1.69Zm-1.762-.542.526-1.555c.1-.326.191-.653.271-.972h.016c.08.31.16.63.279.98l.526,1.547Zm14.359,1.507a2.769,2.769,0,0,1-1.132.223,1.952,1.952,0,0,1-2.065-2.162,2,2,0,0,1,1.769-2.207,2.031,2.031,0,0,1,.331-.009,2.548,2.548,0,0,1,1.084.223l.168-.567a2.9,2.9,0,0,0-1.276-.239,2.674,2.674,0,0,0-2.807,2.534,2.946,2.946,0,0,0,2.3,3.009,2.42,2.42,0,0,0,.351.005,3.42,3.42,0,0,0,1.419-.264l-.146-.55Zm10.8-2.368h-2.1v-1.7h2.209v-.582h-2.9v5.373h3.022V48h-2.331V46.071h2.089V45.5Zm-.98-3.5-.739.936h.574L110.947,42Zm9.114,1.22v3.165c0,1.666.829,2.3,1.93,2.3,1.164,0,2.033-.679,2.033-2.329v-3.13h-.7V46.4c0,1.188-.512,1.714-1.307,1.714-.718,0-1.253-.512-1.253-1.714V43.216ZM132.4,48.586h.7V43.807h1.643v-.591h-3.98v.591H132.4V48.59Zm9.943-5.373v5.373h.694V43.213Zm12.518,4.649a2.769,2.769,0,0,1-1.132.223,1.952,1.952,0,0,1-2.065-2.162,2,2,0,0,1,1.769-2.207,2.031,2.031,0,0,1,.331-.009,2.548,2.548,0,0,1,1.084.223l.168-.567a2.891,2.891,0,0,0-1.275-.239,2.674,2.674,0,0,0-2.807,2.534,2.553,2.553,0,0,0,2.647,3.013A3.42,3.42,0,0,0,155,48.407l-.146-.55Zm10.82-.965.574,1.69H167l-1.83-5.373h-.837L162.5,48.587h.718l.558-1.69Zm-1.762-.542.526-1.555c.1-.326.191-.653.271-.972h.016c.08.31.16.63.279.98l.526,1.547Z"/></g></g></svg>