<svg xmlns="http://www.w3.org/2000/svg" viewBox="0 0 288.129 110.511"><defs><style>.cls-1{fill:#999;}.cls-1,.cls-2{fill-rule:evenodd;}.cls-2{fill:#fff;}</style></defs><title>fordRecurso 1</title><g id="Capa_2" data-name="Capa 2"><g id="Capa_1-2" data-name="Capa 1"><path class="cls-1" d="M145.706,0c82.12,0,142.889,22.759,142.42,54.9-.469,28.156-60.3,55.607-142.42,55.607S0,89.629,0,57.015C.235,25.105,63.585,0,145.706,0Z"/><path class="cls-2" d="M145.237,105.818c82.12,0,137.728-26.513,137.728-51.853,0-25.106-56.077-49.507-138.2-49.507C74.378,4.458,5.632,26.279,5.162,56.546c-.235,28.39,57.954,49.272,140.075,49.272Z"/><path class="cls-1" d="M144.768,101.83c82.12,0,133.974-25.81,133.974-46.926,0-22.76-50.916-46.223-133.036-46.223S9.855,32.613,9.855,56.076c0,25.106,52.792,45.754,134.913,45.754Z"/><path class="cls-2" d="M182.777,21.821c-1.407,0-9.385,2.346-19.708,2.346-22.291,0-37.542-5.866-54.9-5.866-17.6,0-30.736,8.447-30.736,19.24,0,7.508,5.631,10.089,9.619,10.089,7.274,0,16.424-7.977,16.424-14.078,0-.469-.469-1.877-.938-1.877-2.112,0-4.927,8.212-12.2,8.212A5.023,5.023,0,0,1,85.406,35.2c0-4.224,5.161-12.9,21.351-12.9,7.039,0,14.782,1.408,22.524,3.05C122.008,27.451,115.2,35.9,107.93,45.284c-6.1.7-11.5,1.642-13.843,4.458-2.112,2.346-.7,3.988.47,2.815,1.876-2.111,6.1-3.05,10.792-3.754-9.385,12.436-18.77,24.871-29.563,24.871-5.866,0-8.212-4.224-8.212-7.273,0-5.4,5.162-9.62,8.212-11.263,1.877-.7,2.112-2.816-1.408-2.816-7.743,0-14.312,8.682-14.312,15.486,0,9.385,6.8,15.721,15.955,15.721,16.189,0,26.513-19.241,36.837-35.43A122.164,122.164,0,0,0,127.4,46.222a6.766,6.766,0,0,0,4.224,3.05c.7,0,.938-.7.938-1.173,0-.234-1.642-.7-2.815-2.581,3.754-1.173,6.1-3.05,6.1-6.335a4.187,4.187,0,0,0-4.223-4.223c-3.754,0-5.631,3.285-5.631,6.57,0,.7.235,1.408.235,2.111-3.051.469-7.04.7-11.263,1.174,5.162-7.978,10.324-14.548,16.19-17.128l-.7-2.112c12.905,3.05,25.574,7.038,34.491,7.038,11.5,0,20.178-5.162,20.178-8.915a2.56,2.56,0,0,0-2.347-1.877ZM128.812,41.53c0-1.877.939-4.224,3.051-4.224.938,0,1.642,1.173,1.642,1.643,0,1.876-1.877,3.284-4.693,3.989V41.53Z"/><path class="cls-2" d="M143.36,82.59c4.692-7.508,13.139-20.882,13.139-23.463a1.727,1.727,0,0,0-1.877-1.877c-3.05,0-10.089,7.274-13.609,12.67-5.866,9.15-11.262,13.609-17.363,13.609-6.569,0-10.089-4.224-11.027-8.682a28.8,28.8,0,0,1-5.631,5.162c-1.173.7-3.285-2.347-1.877-3.519a27.116,27.116,0,0,0,7.038-8.447c3.755-7.274,9.62-15.721,18.067-15.721,2.816,0,3.989,2.816,1.408,3.754a16.927,16.927,0,0,0-11.966,15.487c0,3.519,1.877,5.4,4.693,5.4,8.211,0,15.016-11.732,11.5-20.413-.7-2.112,3.285-4.927,4.458-3.285,1.877,1.877,2.581,6.57,2.112,8.681,3.754-3.753,9.385-11.027,15.251-11.027,2.815,0,4.927,2.112,4.927,4.223a6.708,6.708,0,0,1-.235,3.754c3.051-4.223,6.805-7.508,10.559-7.508a5.574,5.574,0,0,1,5.866,5.4c0,2.815-2.346,5.865-5.162,5.865a3.664,3.664,0,0,1-3.754-4.692c0-.235,0-.7-.7-.7-.938,0-3.285,3.989-3.285,6.8a4.141,4.141,0,0,0,4.223,3.989c8.213,0,17.128-15.955,28.156-15.955,3.285,0,7.039,1.173,8.212,6.335,4.223-6.8,9.385-14.547,13.374-21.117h8.212c-9.15,15.486-23.7,36.133-23.7,38.714a2.515,2.515,0,0,0,2.347,2.347c2.346,0,8.916-5.162,14.312-11.263,1.173-1.408,3.285.7,2.581,1.408-8.446,10.324-14.078,15.251-20.412,15.251-3.521,0-5.4-3.05-6.1-6.1-3.05,2.816-7.273,5.632-11.263,5.632-4.457,0-8.212-3.285-8.212-9.62a16.237,16.237,0,0,1,.7-4.693c-3.285,2.112-7.039,3.989-9.62,3.989-4.459,0-6.336-3.284-6.336-7.977L151.1,82.59Zm55.372-25.575c-5.866,0-13.608,9.386-13.608,16.19,0,1.877,1.877,4.223,3.519,4.223,4.458,0,10.324-6.57,13.374-12.2l-1.173-.939a11.159,11.159,0,0,0,1.173-4.222,3.158,3.158,0,0,0-3.285-3.051Z"/></g></g></svg>