<svg xmlns="http://www.w3.org/2000/svg" viewBox="0 0 212.488 106.169"><defs><style>.cls-1{fill:#999;}</style></defs><title>iberaRecurso 2</title><g id="Capa_2" data-name="Capa 2"><g id="Capa_1-2" data-name="Capa 1"><path class="cls-1" d="M202.471,4.082a.719.719,0,0,1-.775-.645.788.788,0,0,1,1.55,0,.719.719,0,0,1-.775.645m-8.534,20.561a3.21,3.21,0,0,1,2.961.859,2.221,2.221,0,0,1,.608,2.991,2.355,2.355,0,0,0-.272.618.97.97,0,0,1-1.118.612c-.347-.032.02,1.111,1.268.428a1.9,1.9,0,0,1,.906-.1.754.754,0,0,1,.511.17c.571.619.975,1.73.369,2.3a3.631,3.631,0,0,0-.368.674c-.259.442-.613.625-.98.276a4.583,4.583,0,0,1-.613-.512l-.218.193c.195.232.345.549.591.677.454.5.336.621,1.683.653s2.086-.236,2.3-.785a1.863,1.863,0,0,0-.508-2.148,2.642,2.642,0,0,1-.549-1.34c-.029-.166.36-.417.575-.611.429-.389.418-.7-.04-1.073a1.8,1.8,0,0,1-.294-.333c-.284-.39-.554-.79-.842-1.177-.179-.242-.475-.441-.547-.706a1.483,1.483,0,0,1,.129-.878,3.446,3.446,0,0,1,.5-.68,1.9,1.9,0,0,1,.371-.483c.829-.54,1.714-1,2.508-1.587a16.836,16.836,0,0,0,2.877-2.4,13.778,13.778,0,0,0,3.145-10.321,3.385,3.385,0,0,1,.165-.929,4.926,4.926,0,0,0,.21-.854,8.138,8.138,0,0,0-.094-1.193,7.669,7.669,0,0,0-4.653-6.6,5.1,5.1,0,0,0-5.648,1.229A2.419,2.419,0,0,1,197.1,2.6a13.16,13.16,0,0,0-1.695.246c-.451.09-1.274.576-1.386,1.021a6.7,6.7,0,0,1,3.714.445c.392.227,1.269,2.986.439,4.056-.735.947-1.5,1.873-2.191,2.85-.37.522-.573,1.163-.94,1.687-.761,1.087-1.623,2.1-2.37,3.2a13.339,13.339,0,0,0-2.109,4.785,3.779,3.779,0,0,0,.06,1.673s.934,2.594,3.316,2.085"/><path class="cls-1" d="M190.032,23.272c-1.084.423-2.16.881-3.261,1.256-.889.3-1.81.515-2.718.756a2.668,2.668,0,0,1-2.324-.432c2.7-.933,5.523-1.067,8.2-1.861.6-.218.327.127.1.281m.555-1.6h0a.809.809,0,0,1-.453.472c-.825.442-3.276.628-4.89.825s-4.8-.41-5.735-1.312a16.477,16.477,0,0,0-4.986-2.9c-.808-.356-1.624-.688-2.433-1.043-.309-.135-.607-.3-.908-.453l-.082.147.663.44a11.132,11.132,0,0,0-1.311-.491c-2.648-.6-5.3-1.158-7.951-1.764a19.678,19.678,0,0,1-2.735-.792c-1.02-.4-1.982-.941-2.986-1.384-1.288-.57-2.573-1.148-3.891-1.637-1.385-.513-2.814-.907-4.212-1.385-1.622-.554-3.233-1.135-4.843-1.718-.9-.327-1.793-.68-2.689-1.021-.015.033-.028.066-.043.1l.6.306a3.812,3.812,0,0,0-3.373.415l.331.273-3.708.881c.124.021.259.055.4.065a28.686,28.686,0,0,1,9.007,2.069c2.338.953,4.615,2.06,6.907,3.124,1.05.487,2.071,1.036,3.1,1.558,1.525.772,3.041,1.562,4.578,2.309,1.273.62,2.571,1.189,3.992,1.841l-4.146-.2c-.006.03-.013.06-.02.09l.846.322a112.13,112.13,0,0,0-17.422-.8l5.7,1.674a7.688,7.688,0,0,1-1.3-.22c-2.174-.4-4.291-1.223-6.579-.718a17.707,17.707,0,0,1-2.606.185c-.022,0-.044.043-.069.072l.159.142-.98.139c0,.034.009.067.012.1l.364.139c-.122.038-.225.07-.356.108l.359.338-1.483-.031-.009.127,1.85.329c0,.035,0,.069-.008.1l-1.869-.037c0,.039,0,.079,0,.118l2.265.213c-1.083.168-2.013.305-2.94.464a.731.731,0,0,0-.377.223c-.046.051-.092.1-.135.159-.012.013-.022.027-.033.04-.109.137-.215.285-.334.44l-.022.03.069-.009.131-.018c.084-.011.165-.025.247-.043a28.673,28.673,0,0,1,10.361-.235c4.3.652,8.588,1.445,12.879,2.194a103.2,103.2,0,0,0,11.118,1.531,37.872,37.872,0,0,0,13.876-1.188c1.787-.554,3.657-.844,5.443-1.4,1.084-.338,2.069-.982,3.125-1.43a1.362,1.362,0,0,1,.954-.006l.014.006"/><path class="cls-1" d="M181.2,92.1l0,.026.049.038c-.014-.022-.03-.043-.044-.064"/><path class="cls-1" d="M162.237,105.613a.606.606,0,0,0,.016-.106H162.1l.142.106"/><path class="cls-1" d="M162.022,93.573l.219.066c-.077-.1-.152-.2-.286-.384.022.106.044.212.067.318"/><path class="cls-1" d="M194.092,92.777l-.367-2.224h-1.72c.714.722,1.375,1.5,2.087,2.224"/><path class="cls-1" d="M179.753,100.473l-.057.33c.165.039.33.082.5.126-.143-.154-.29-.306-.438-.456"/><path class="cls-1" d="M13.087,93.218c.064.129.122.261.184.391q-.09-.463-.183-.926c-.014-.073-.087-.133-.112-.207-.116-.334-.241-.666-.334-1.007-.223-.817-.428-1.639-.642-2.458-.007-.03-.039-.053-.048-.082-.108-.371-.207-.744-.325-1.111s-.257-.756-.393-1.131c-.037-.1-.128-.195-.141-.3a5.117,5.117,0,0,0-1.2-2.644,28.146,28.146,0,0,0-2.551-2.571c-.2-.19-.39-.383-.582-.577-.392-.131-.785-.257-1.174-.393-.7-.244-1.4-.476-2.2-.744a1.12,1.12,0,0,1,1.134-.273c.386.112.772.229,1.157.347Q4.461,78.52,3.244,77.511c-.073-.06-.158-.1-.232-.163-.472-.387-.939-.778-1.413-1.162-.109-.088-.232-.158-.349-.235l-.58-.383v4.275A31.41,31.41,0,0,1,13.087,93.218"/><path class="cls-1" d="M2.539,93.519a4.8,4.8,0,0,0,.356.5A4.456,4.456,0,0,1,3.3,94.6c.159.319.307.644.457.967l.077.023c.626.2,1.23.464,1.841.708,1.132.455,2.3.84,3.384,1.391,1.34.682,2.656,1.412,3.962,2.162-.195-.684-.4-1.363-.623-2.036q-.57-1.707-1.278-3.341A11.17,11.17,0,0,0,8.2,92.1c.053-.1.1-.207.158-.311a6.98,6.98,0,0,1,1.352.67c.274.219.541.444.8.671a38.1,38.1,0,0,0-6.723-9.851A16.861,16.861,0,0,0,.67,80.66v9.485c.053.088.109.174.161.263.6,1.017,1.136,2.075,1.708,3.111"/><path class="cls-1" d="M3.853,58.178c.7.9,1.425,1.776,2.074,2.708C6.676,61.96,7.3,63.127,8.08,64.172a23.655,23.655,0,0,1,2.148,3.46c.859,1.689,1.831,3.321,2.759,4.975.153.273.362.516.5.8.292.61.541,1.243.832,1.854.365.761.757,1.508,1.132,2.265A12.579,12.579,0,0,1,16,78.679c.067.176.13.353.195.53a1.425,1.425,0,0,1,.277,0c.544.055,1.087.119,1.63.182V70.129c-.252-.3-.506-.6-.765-.891-.366-.414-.772-.792-1.149-1.2-.512-.549-.988-1.136-1.527-1.658-.833-.808-1.713-1.568-2.554-2.367-.107-.1-.1-.319-.144-.483.146-.01.335-.084.429-.021.505.341,1,.7,1.474,1.086.409.331.782.705,1.173,1.056.608.547,1.24,1.07,1.823,1.643.434.428.831.891,1.24,1.344V29.722H.67V54.361c.347.352.69.708,1.013,1.083.76.879,1.455,1.817,2.17,2.734"/><path class="cls-1" d="M5.521,105.068c-.212-.456-.507-.875-.7-1.335-.354-.826-.658-1.673-.992-2.508a1.126,1.126,0,0,0-.214-.368c-.74-.754-1.214-1.7-1.979-2.466-.307-.307-.632-.584-.961-.854v7.97H5.7c-.056-.148-.114-.3-.182-.439"/><path class="cls-1" d="M3.907,75.89c.595.434,1.19.87,1.76,1.336.67.547,1.3,1.138,1.977,1.681.115.093.349.04.528.054a1.159,1.159,0,0,0,0-.444c-.358-.784-.713-1.57-1.117-2.329a7.331,7.331,0,0,1-1.1-2.368.332.332,0,0,0-.11-.206c-.784-.593-.986-1.568-1.486-2.343a13.073,13.073,0,0,0-1.1-1.769c-.149-.165-.135-.475-.224-.835.206.1.3.11.332.161.436.659.858,1.327,1.3,1.984.147.221.435.392.489.625.225.966,1.216,1.52,1.327,2.538.008.078.126.14.171.221.307.54.612,1.083.91,1.63.081.15.12.323.2.476q.441.855.9,1.7c.168.316.471.617.495.941a2.745,2.745,0,0,0,.8,1.664c.147.166.29.337.431.509.59.225,1.183.441,1.763.689.556.237,1.088.529,1.632.794s1.117.515,1.666.792l-.39-.977a21.877,21.877,0,0,0-1.34-3.372,13.056,13.056,0,0,1-.846-2.158c-.056-.146-.142-.281-.208-.424-.152-.326-.306-.651-.447-.983-.079-.188-.111-.4-.2-.578q-.841-1.641-1.7-3.273c-.192-.365-.406-.717-.6-1.083-.489-.952-.945-1.92-1.458-2.858-.436-.8-.928-1.568-1.4-2.347-.678-1.119-1.346-2.246-2.045-3.352-.208-.329-.529-.585-.755-.906-.881-1.251-1.73-2.523-2.62-3.767a12,12,0,0,0-.768-.936V73.656c.322.208.647.416.965.63.769.518,1.522,1.06,2.272,1.6"/><path class="cls-1" d="M17.7,80.018c-.423-.066-.849-.127-1.292-.191.2.566.4,1.133.613,1.692.34.877.725,1.736,1.075,2.609V80.077c-.132-.019-.265-.038-.4-.059"/><path class="cls-1" d="M10.853,91.257q.755,1.824,1.51,3.652.485.519.932,1.065a45.01,45.01,0,0,0-2.442-4.717"/><path class="cls-1" d="M17.685,93.667c-.852-.3-1.709-.579-2.681-.907a1.365,1.365,0,0,1,1.38-.332c.453.131.905.268,1.355.406-.017-.025-.031-.05-.048-.076-.553-.8-1.21-1.473-1.809-2.213a21.524,21.524,0,0,0-1.4-1.805c-.813-.816-1.483-1.772-2.246-2.708a.622.622,0,0,0-.05.848c.145.256.262.527.392.792.07.141.152.277.209.422a7.78,7.78,0,0,1,.305.851c.1.373.143.761.241,1.134.074.281.215.543.291.824.229.855.442,1.716.663,2.575.009.029.037.054.044.083.1.421.216.839.3,1.262.066.324-.008.729.163.965a2.452,2.452,0,0,1,.4,1.385.707.707,0,0,0,.126.4,1.9,1.9,0,0,1,.314,1.4c0,.128-.006.261-.008.4a23.493,23.493,0,0,1,1.433,3.051q.525.37,1.039.757V93.808c-.138-.045-.276-.093-.413-.141"/><path class="cls-1" d="M13.615,102.067l-.017-.012c-1.922-1.173-3.855-2.335-5.836-3.4-1.033-.557-2.1-1.064-3.186-1.517.248.378.538.733.814,1.093a11.519,11.519,0,0,0,1.451,1.794c.938.812,1.589,1.877,2.569,2.662a15.466,15.466,0,0,1,1.918,2.215c.123.146.215.342.369.431a2.408,2.408,0,0,1,.258.179h2.464c-.255-1.15-.519-2.3-.8-3.441"/><path class="cls-1" d="M15.7,85.56c.172-.044.382-.175.509-.12l.042.02,0-.014a2.291,2.291,0,0,0-.077-.239c-.144-.1-.287-.2-.432-.293-.254-.168-.545-.284-.814-.432q-1.19-.654-2.374-1.315c-.1-.056-.2-.125-.3-.178l-.322-.17c.3.282.609.56.9.856.416.427.794.89,1.2,1.333.518.57,1.023,1.155,1.572,1.7a11.788,11.788,0,0,0,1.115.877.836.836,0,0,0-.023-.451c-.06-.228-.119-.457-.179-.684-.177-.113-.354-.225-.529-.339-.149-.1-.188-.36-.279-.546"/><path class="cls-1" d="M63.251,96.106c-.969-.3-1.949-.556-2.929-.816-.133-.035-.268-.067-.4-.1.05.1.1.194.153.292.473.943.861,1.929,1.292,2.893q.515,1.146,1.031,2.29c.324.09.647.184.964.293.212.071.421.147.629.226a18.857,18.857,0,0,0,3.58-2.985c.166-.17.323-.345.481-.519v-.035c-1.572-.588-3.195-1.046-4.8-1.539"/><path class="cls-1" d="M26.3,90.121a2.246,2.246,0,0,0,.653,1.366c.388.438.736.91,1.135,1.337s.827.777,1.224,1.182c.342.351.653.732.982,1.095.238.261.472.524.71.783.4.358.8.721,1.182,1.1.107.077.212.154.315.233a.68.68,0,0,0-.018-.371q-.18-.69-.361-1.381a2.146,2.146,0,0,0-.072-.223c-.3-.756-.6-1.512-.906-2.267a17.838,17.838,0,0,0-1.1-2.769,3.789,3.789,0,0,1-.3-.652c-.723-.514-1.462-1-2.218-1.462-.547-.331-1.108-.641-1.672-.944V89.27l.041.078c.137.259.386.507.407.773"/><path class="cls-1" d="M55.161,102.59a.375.375,0,0,0-.219-.093c-.009.241-.016.481-.03.723a9.623,9.623,0,0,0,.657,1.431q.526-.129,1.032-.269c-.482-.6-.951-1.2-1.44-1.792"/><path class="cls-1" d="M60.381,101.518l-1.187-.4c-.134-.045-.262-.106-.4-.147-.5-.156-1-.326-1.512-.472.282.684.533,1.388.758,2.108a6.173,6.173,0,0,0,.776.992c.021.019.039.043.06.063.691-.247,1.353-.511,1.981-.791q-.244-.674-.479-1.354"/><path class="cls-1" d="M50.186,92.814c.3.6.553,1.227.88,1.813a10.141,10.141,0,0,0,.835,1.167,9.413,9.413,0,0,0,1.191,1.473,7.554,7.554,0,0,1,.721.733v-.151c0-.49-.013-.981-.037-1.471q-.486-.885-1.041-1.745a12.338,12.338,0,0,0-2.351-2.714c-.208.1-.42.2-.635.286.035.044.07.088.1.133a3.531,3.531,0,0,1,.336.476"/><path class="cls-1" d="M34.548,103.754c-.424-.628-.663-1.348-1.053-2.005l-.378-.252c-1.029-.7-2.046-1.409-3.08-2.1-.1-.065-.2-.123-.309-.179,0,.014.006.03.011.045.059.231.175.446.238.677.188.7.363,1.41.545,2.115.006.025.03.044.036.069.085.345.177.688.247,1.036.054.266-.007.6.134.793a2.017,2.017,0,0,1,.325,1.138.59.59,0,0,0,.1.329,1.018,1.018,0,0,1,.166.266c.062.067.126.133.189.2,1.069.075,2.186.134,3.336.181-.143-.659-.26-1.325-.392-1.988a.9.9,0,0,0-.119-.328"/><path class="cls-1" d="M25.965,73.346c.615.414,1.217.853,1.8,1.321.5.4.951.858,1.427,1.287.742.664,1.51,1.3,2.219,2,.666.656,1.261,1.384,1.9,2.066.7.745,1.457,1.444,2.125,2.218.76.88,1.454,1.817,2.17,2.735.312.4.63.8.945,1.2l.093.055c.108.057.288-.02.436-.036a.97.97,0,0,0-.069-.357c-.4-.581-.808-1.163-1.247-1.718a5.957,5.957,0,0,1-1.237-1.749.279.279,0,0,0-.121-.15c-.721-.363-1.029-1.121-1.547-1.673a10.519,10.519,0,0,0-1.149-1.267c-.143-.112-.178-.365-.3-.642.181.048.257.045.292.082.449.467.889.944,1.342,1.409.151.157.408.253.487.432.325.749,1.208,1.049,1.449,1.855.018.062.122.094.171.153.328.392.656.785.976,1.182.088.109.146.244.232.356q.483.624.975,1.242c.183.23.472.429.54.687a2.252,2.252,0,0,0,.888,1.226c.462.36.89.763,1.359,1.11.339.251.7.469,1.056.7V84.886c-.212-.347-.4-.72-.609-1.067-.068-.109-.156-.206-.231-.312-.17-.241-.344-.481-.507-.728-.092-.139-.149-.3-.25-.436q-.921-1.2-1.859-2.393c-.118-.15-.24-.3-.362-.443q-.859-.194-1.72-.376c-.737-.157-1.481-.288-2.22-.431,0-.043-.006-.086-.008-.129a1.458,1.458,0,0,1,.42-.132c.913.007,1.83-.009,2.739.05-.358-.477-.716-.956-1.092-1.419-.47-.581-.982-1.129-1.477-1.688-.713-.805-1.42-1.615-2.149-2.406-.217-.236-.514-.395-.744-.62-.9-.88-1.772-1.782-2.675-2.656-.361-.348-.772-.643-1.16-.962-.663-.543-1.317-1.1-1.99-1.626-.435-.342-.9-.641-1.347-.971-.026-.018-.05-.039-.075-.058v7.232a.2.2,0,0,1,.109.031"/><path class="cls-1" d="M57.192,90.362c.48.749.881,1.549,1.319,2.325.354.629.722,1.248,1.073,1.878.671.033,1.342.074,2,.164a20.277,20.277,0,0,1,2.618.575c1.306.357,2.6.743,3.9,1.143,0-.07-.029-.141-.037-.211a8.738,8.738,0,0,1-.145-1.062q-.515-.452-1.026-.909c-.753-.676-1.473-1.387-2.244-2.041-.8-.682-1.644-1.324-2.481-1.968-.688-.531-1.381-1.057-2.095-1.551-.636-.441-1.309-.827-1.955-1.254-.731-.485-1.416-1.052-2.185-1.469-.31-.17-.621-.337-.933-.5a10.886,10.886,0,0,1-.282,1.18c.838,1.225,1.67,2.455,2.472,3.7"/><path class="cls-1" d="M71.487,92.333c-.537-.606-1.074-1.21-1.622-1.8-.263-.287-.625-.48-.905-.755-.135-.133-.267-.267-.4-.4.073.337.145.672.213,1.009.112.567.164,1.146.244,1.72.068.5.15.988.214,1.484.382.321.76.647,1.123.988a19.193,19.193,0,0,0,1.136-2.24"/><path class="cls-1" d="M41.829,80.108l.2.235c.163.2.367.365.518.571.217.3.421.6.628.91V80.447c-.447-.115-.895-.227-1.343-.339"/><path class="cls-1" d="M59.486,99.148a4.906,4.906,0,0,1-.944-2.092.863.863,0,0,0-.132-.329c-.5-.922-1.006-1.839-1.5-2.764-.474-.893-.906-1.809-1.4-2.689-.512-.9-1.07-1.776-1.624-2.653-.051.089-.1.177-.155.262.306,1.238.553,2.491.788,3.745.132.71.206,1.432.278,2.151.046.447.077.9.1,1.344a23.124,23.124,0,0,1,1.822,3.123c.567.1,1.136.2,1.7.332.482.109.957.249,1.431.39-.059-.171-.117-.342-.177-.513a2.453,2.453,0,0,0-.185-.307"/><path class="cls-1" d="M53.306,104.8c-.306-.8-.616-1.6-.923-2.405-.126-.328-.227-.666-.375-.982-.175-.374-.417-.718-.579-1.1s-.3-.733-.444-1.1q-.387-.051-.774-.111c-.891-.14-1.785-.261-2.8-.409a1.361,1.361,0,0,1,1.3-.575c.646.065,1.291.141,1.936.217-.01-.026-.019-.052-.03-.077a.907.907,0,0,0-.176-.3c-.608-.619-1-1.4-1.626-2.026-.563-.563-1.2-1.011-1.788-1.52a17.642,17.642,0,0,0-1.4-1.251c-.112-.078-.219-.164-.327-.246-.4,0-.783-.019-1.161-.058a.4.4,0,0,1,.023.034,6.128,6.128,0,0,1,.373.642c.134.287.228.593.363.881.1.215.253.406.356.621.312.658.612,1.322.918,1.983.011.023.038.038.048.062.145.323.3.644.431.974.1.252.1.59.274.756a2,2,0,0,1,.525,1.059.582.582,0,0,0,.161.306,1.557,1.557,0,0,1,.461,1.081,2.356,2.356,0,0,0,.317,1.063,2.336,2.336,0,0,1,.465,1.042q.068.278.139.555c.068.134.138.269.2.4.19.382.4.758.55,1.156.026.069.049.138.075.206q1.83-.22,3.477-.531c0-.116,0-.232.007-.347"/><path class="cls-1" d="M30.237,104.6c-.056-.287-.174-.562-.234-.847-.163-.781-.309-1.565-.469-2.347-.011-.06-.071-.11-.092-.17-.1-.274-.2-.547-.274-.827-.156-.57-.3-1.143-.449-1.716q-1.282-.707-2.563-1.42c-.1-.056-.2-.121-.3-.18v8.036c.064.121,4.006.615,4.564.66,0-.017-.007-.035-.009-.052-.063-.378-.1-.762-.174-1.137"/><path class="cls-1" d="M28.828,95.953a.513.513,0,0,0-.032.686c.116.2.21.42.313.63.4.188.792.383,1.176.6.087.049.172.1.258.151-.579-.61-1.082-1.3-1.635-1.984-.027-.027-.054-.053-.08-.08"/><path class="cls-1" d="M43.171,42.653a10.8,10.8,0,0,1,3.6-.45c4.611,0,6.972,3.823,6.972,8.771,0,5.4-3.149,9.445-7.758,9.445H43.171ZM28.3,66.674c.677.5,1.391.952,2.046,1.478.745.6,1.445,1.253,2.158,1.888.7.621,1.414,1.223,2.077,1.88.764.757,1.438,1.608,2.226,2.336a19.285,19.285,0,0,1,2.249,2.478c.533.7,1.094,1.377,1.66,2.052.267.053.532.108.8.167.553.122,1.1.254,1.655.384V75.775q-.845-.753-1.734-1.451c-1.36-1.065-2.816-2.009-4.244-2.984-.837-.572-1.7-1.11-2.554-1.649-.639-.4-1.292-.78-1.938-1.169.013-.041.025-.082.038-.123a1.457,1.457,0,0,1,.44.021c.952.356,1.918.683,2.837,1.111a20.8,20.8,0,0,1,2.33,1.327c1.256.8,2.5,1.637,3.724,2.484.381.264.742.56,1.1.856v-.961H46.1a8.743,8.743,0,0,1,7.742,4.34c.021,0,.042,0,.063,0a.5.5,0,0,1-.04.04,10.992,10.992,0,0,1,1.343,5.51q0,.327-.015.642.659.336,1.314.676c.988.513,1.935,1.107,2.875,1.7.879.555,1.737,1.142,2.583,1.745,1.33.948,2.658,1.9,3.959,2.89.628.477,1.211,1.012,1.808,1.531-.062-.595-.108-1.193-.193-1.786-.1-.678-.227-1.351-.355-2.024-.04-.212-.083-.421-.126-.632-.447-.447-.895-.9-1.35-1.335-.438-.424-.94-.783-1.412-1.172-.807-.661-1.6-1.336-2.423-1.98-.529-.416-1.1-.78-1.639-1.182-.735-.545-1.434-1.143-2.193-1.65-1.176-.784-2.4-1.5-3.579-2.273-.148-.1-.188-.36-.278-.546.172-.045.382-.175.509-.12.681.3,1.352.621,2,.976.563.307,1.091.673,1.637,1.008.849.521,1.72,1.007,2.543,1.567.774.524,1.49,1.133,2.246,1.688.825.606,1.693,1.158,2.49,1.8.27.216.533.44.8.667-.136-.527-.225-1.07-.409-1.579-.5-1.375-1-2.749-1.569-4.1a23.229,23.229,0,0,0-1.359-2.7c-.568-.967-1.224-1.884-1.855-2.812-.369-.544-.76-1.074-1.15-1.6-.29-.394-.6-.779-.893-1.167q.027-.033.051-.066a.958.958,0,0,1,.261.118c.491.441,1,.869,1.451,1.346a13.352,13.352,0,0,1,1.092,1.356c.568.784,1.118,1.582,1.659,2.386.238.354.434.735.644,1.108.389.69.823,1.359,1.148,2.079.526,1.167,1,2.36,1.456,3.555.258.675.462,1.372.663,2.067.133.461.252.927.365,1.394l.277.249c.849.755,1.722,1.489,2.528,2.289.466.461.9.951,1.347,1.437a21.165,21.165,0,0,0,.73-2.992l-.059-.023c.043-.146.087-.292.13-.438a26.009,26.009,0,0,0,.283-3.87,19.185,19.185,0,0,0-1.036-6.264,19.554,19.554,0,0,0-8.317-2.808q.016-.3.031-.59a11.865,11.865,0,0,1,2.553.108,42.348,42.348,0,0,1,5.087,1.689,17.746,17.746,0,0,0-11.473-9.676v-.45A17.7,17.7,0,0,0,70.72,48.95c0-5.285-1.688-10.57-6.072-14.168-5.735-4.723-13.156-5.4-20.239-5.4a96.867,96.867,0,0,0-18.553,1.462V64.9c.2.126.4.255.6.389.636.432,1.224.932,1.844,1.387"/><path class="cls-1" d="M27.388,81.213c.375.1.75.205,1.118.329.84.286,1.657.644,2.483.975.706.284,1.415.562,2.113.867s1.387.63,2.074.959l.268.13c-.087-.121-.17-.244-.256-.364-.355-.5-.782-.939-1.178-1.407-.673-.8-1.335-1.6-2.025-2.385-.445-.5-.94-.965-1.4-1.458-.623-.669-1.2-1.383-1.858-2.02-.936-.906-1.92-1.766-2.871-2.658v4.413a19.541,19.541,0,0,1,1.329,2.234c.065.129.135.256.2.385"/><path class="cls-1" d="M27.9,96.236a4.162,4.162,0,0,0-.937-2.109c-.356-.312-.736-.6-1.1-.9V95.7c.609.272,1.2.59,1.8.882q.236.114.469.223c-.038-.109-.073-.219-.112-.328-.031-.084-.106-.159-.116-.243"/><path class="cls-1" d="M53.615,94.442a13.95,13.95,0,0,0-.109-1.492c-.168-1.009-.343-2.02-.539-3.025a8.162,8.162,0,0,1-2.1,1.734,24.046,24.046,0,0,1,2.748,2.783"/><path class="cls-1" d="M29.859,85.569c.24.5.444,1.021.684,1.524.3.624.621,1.238.93,1.859.046.095.1.189.143.284.4.257.8.521,1.183.81,1.567,1.2,3.079,2.467,4.576,3.751.845.725,1.63,1.521,2.411,2.316.727.739,1.428,1.507,2.114,2.288,1.079,1.227,2.153,2.46,3.193,3.719.567.687,1.061,1.433,1.59,2.151.084.114.169.227.254.34-.1-.311-.2-.627-.32-.931-.056-.147-.14-.282-.208-.423-.151-.328-.3-.652-.446-.984-.08-.188-.112-.4-.2-.578q-.84-1.642-1.7-3.273c-.191-.365-.406-.717-.595-1.082-.488-.952-.946-1.921-1.457-2.86-.437-.8-.929-1.566-1.4-2.346-.678-1.12-1.346-2.245-2.045-3.352-.208-.329-.529-.586-.754-.906-.184-.26-.362-.522-.543-.783q-1.191-.674-2.386-1.342c-.067-.038-.143-.06-.211-.1-.439-.242-.875-.489-1.313-.73-.1-.055-.212-.092-.318-.137-.569-.244-1.14-.48-1.707-.729-.934-.41-1.861-.835-2.8-1.237A2.952,2.952,0,0,0,28.2,82.7c.415.739.84,1.474,1.255,2.212.126.224.3.425.407.655"/><path class="cls-1" d="M43.961,94.394c-.1-.217-.2-.433-.3-.65-.011-.023-.04-.037-.051-.059-.142-.283-.277-.57-.427-.849s-.321-.574-.485-.857c-.046-.078-.133-.138-.159-.219a4.217,4.217,0,0,0-1.36-1.959c-.092-.079-.188-.15-.283-.224.3.473.6.943.934,1.389a23.487,23.487,0,0,1,2.132,3.428"/><path class="cls-1" d="M43.531,103.228c-.627-.848-1.3-1.664-1.965-2.482-.548-.675-1.1-1.345-1.685-1.989-.518-.574-1.086-1.1-1.616-1.667-.6-.64-1.139-1.348-1.791-1.93l-.022-.02a.425.425,0,0,1-.153-.087c-.082-.085-.165-.173-.242-.264-1.138-1.014-2.283-2.022-3.452-3,.054.149.105.3.162.445.347.894.753,1.764,1.085,2.664s.61,1.845.918,2.767a4.41,4.41,0,0,0,.214.458,3.588,3.588,0,0,1,.243.528c.188.645.324,1.307.539,1.942.014.041.031.08.046.119.55.561,1.066,1.15,1.559,1.765.095.07.19.137.286.206.6.434,1.19.87,1.76,1.336.67.547,1.3,1.138,1.977,1.681.045.036.331.224.692.468q1.763-.025,3.392-.116c-.076-.108-.154-.215-.228-.324-.58-.83-1.119-1.688-1.719-2.5"/><path class="cls-1" d="M28.952,87.577c-.045-.1-.093-.2-.137-.3-.066-.155-.091-.327-.167-.475-.46-.9-.928-1.794-1.4-2.688-.157-.3-.334-.589-.489-.89-.2-.391-.395-.785-.592-1.179l-.314-.106v3.979q1.1.555,2.183,1.123c.312.165.614.349.913.539"/><path class="cls-1" d="M92.253,96.719a39.371,39.371,0,0,0-6.246-9.2l-.493-.072q3.354,4.614,6.739,9.275"/><path class="cls-1" d="M83.944,85.282q.523.72,1.048,1.442a1.4,1.4,0,0,1,.267-.043q-.648-.707-1.315-1.4"/><path class="cls-1" d="M105.782,91.766c.85.37,1.688.768,2.523,1.168.665.319,1.328.641,1.973,1,.614.338,1.21.707,1.818,1.055V93.514c-.209-.289-.42-.576-.642-.856a7.3,7.3,0,0,1-1.507-2.129.364.364,0,0,0-.047-.089h-7.357c.222.092.443.183.666.272.86.345,1.723.684,2.573,1.054"/><path class="cls-1" d="M83.655,94.672c.346.065.69.132,1.033.209.717.162,1.418.4,2.127.593.941.26,1.9.473,2.818.786.045.015.089.034.135.049-.63-1.161-1.285-2.308-1.983-3.426A49.642,49.642,0,0,0,76.115,79.85v8.637a31.468,31.468,0,0,1,7.54,6.185"/><path class="cls-1" d="M111.092,96.445c-.079-.054-.153-.113-.236-.16q-1.453-.82-2.909-1.637c-.083-.046-.176-.073-.258-.118-.533-.3-1.064-.6-1.6-.889-.123-.067-.258-.113-.387-.168-.375-.161-.751-.319-1.126-.478.506.6,1.013,1.2,1.516,1.806.2.24.447.443.629.694.4.548.758,1.125,1.155,1.674.5.682,1.016,1.347,1.522,2.023.255.341.529.674.749,1.038.52.862.994,1.751,1.521,2.608q.21.339.428.673v-6.37c-.336-.232-.67-.465-1-.7"/><path class="cls-1" d="M79.821,99.5c.2.24.449.442.631.694.4.548.757,1.125,1.155,1.673.032.045.067.089.1.133.222.07.445.138.666.209.325.106.622.291.942.417.861.34,1.735.644,2.586,1.006.343.147.678.311,1.012.479a38.97,38.97,0,0,0-4.751-8.62,13.571,13.571,0,0,1-1.762-.371,26.239,26.239,0,0,0-3.918-.714l-.366-.056v.635c.031.04.064.079.094.119,1.15,1.507,2.4,2.937,3.612,4.4"/><path class="cls-1" d="M86.206,99.844q1.015,2.459,2.035,4.923c.207.1.414.2.621.291a43.768,43.768,0,0,0-2.656-5.214"/><path class="cls-1" d="M77.45,100.692c.376.114.752.227,1.127.343q-.781-1.011-1.567-2.017c-.254-.323-.53-.631-.781-.958-.039-.05-.075-.1-.114-.151v2.032q.671.37,1.335.751"/><path class="cls-1" d="M107.967,101a13.058,13.058,0,0,1-1.221-1.97c-.082-.134-.189-.251-.281-.38-.208-.294-.418-.585-.617-.887-.112-.169-.181-.37-.3-.531q-1.123-1.462-2.264-2.913c-.254-.323-.529-.631-.781-.957-.491-.64-.973-1.288-1.467-1.927-.272-.119-.541-.241-.813-.358-.342-.146-.715-.22-1.07-.338l-.893-.3H95.822c.7.825,1.347,1.692,2.011,2.545.7.9,1.425,1.776,2.074,2.707.749,1.075,1.369,2.242,2.152,3.287a23.485,23.485,0,0,1,2.148,3.46c.151.3.309.588.466.881.513.412,1,.859,1.529,1.25.454.336.942.626,1.413.937h3.178c-.3-.477-.6-.955-.9-1.43A21.7,21.7,0,0,0,107.967,101"/><path class="cls-1" d="M110.705,90.772c.4.476.8.954,1.188,1.438a3.03,3.03,0,0,1,.2.311V90.44h-1.662c.02.049.045.093.061.145.022.076.149.115.209.187"/><path class="cls-1" d="M103.646,105.26c-.517-.344-1.044-.669-1.561-1.014s-1.031-.711-1.547-1.067c-.077-.053-.151-.112-.235-.159q-1.452-.819-2.91-1.638c-.082-.045-.174-.073-.257-.117-.533-.3-1.065-.6-1.6-.89-.123-.066-.257-.113-.387-.167-.57-.244-1.143-.485-1.714-.731.813,2.007,1.626,4.013,2.413,6.031h7.929c-.028-.053-.058-.1-.085-.156-.016-.03-.031-.061-.047-.092"/><path class="cls-1" d="M100.837,100.148c-.677-1.12-1.346-2.246-2.044-3.352-.207-.331-.529-.586-.755-.907-.88-1.25-1.73-2.523-2.62-3.767-.355-.5-.782-.94-1.178-1.407-.077-.091-.154-.183-.23-.275q-.234-.276-.467-.554-.489-.583-.987-1.158a12.1,12.1,0,0,1-1.6-.345,18.467,18.467,0,0,0-3.072-.592c1.989,2.52,3.657,5.309,5.454,7.986.212.317.294,1.125.137,1.223a1.419,1.419,0,0,0-.557.55c.774.31,1.55.618,2.315.95.85.371,1.687.768,2.524,1.17.664.318,1.328.64,1.973,1,.738.406,1.45.859,2.19,1.263-.349-.6-.72-1.187-1.079-1.781"/><path class="cls-1" d="M87.121,86.862l1.2.14c.99.115,1.981.225,2.97.353-.159-.159-.317-.318-.47-.482-.624-.67-1.2-1.384-1.859-2.02-1.015-.983-2.086-1.908-3.11-2.881-.129-.122-.12-.388-.175-.588.176-.013.407-.1.523-.025.615.415,1.217.853,1.794,1.322.5.4.952.857,1.427,1.286.742.665,1.511,1.3,2.22,2,.582.574,1.111,1.2,1.664,1.805l.244.044V83.4c-.521-.52-1.041-1.041-1.571-1.552-.438-.424-.939-.783-1.412-1.171-.807-.662-1.6-1.336-2.423-1.981-.529-.415-1.1-.779-1.639-1.182-.735-.545-1.433-1.142-2.193-1.65-1.175-.784-.254-1.29.293-.954.848.52,1.72,1.007,2.543,1.566.773.525,1.491,1.133,2.244,1.688.825.607,1.694,1.158,2.491,1.8.571.459,1.121.946,1.667,1.436V73.35h16.528V58.957H93.544V44.789h17.315V29.722H76.115V77.7a40.034,40.034,0,0,1,11.006,9.161"/><path class="cls-1" d="M86.387,105.287c-.124-.069-.24-.152-.365-.217-.64-.332-1.269-.693-1.927-.984-.377-.166-.768-.3-1.156-.447.063.083.127.165.189.249a12.59,12.59,0,0,1,.749,1.039c.028.045.055.093.083.14l.226.175c.112.088.222.178.333.266h2.265c-.132-.074-.266-.147-.4-.221"/><path class="cls-1" d="M80.961,94.118c.059.008.116.021.174.033q-.944-1.176-1.991-2.29A16.952,16.952,0,0,0,76.115,89.3v4.241q.825.094,1.648.192c1.066.124,2.134.24,3.2.381"/><path class="cls-1" d="M90.835,98.329c-.388-.173-.778-.346-1.169-.514-.341-.147-.715-.221-1.07-.34-1.045-.347-2.088-.7-3.131-1.053-.134-.045-.263-.106-.4-.148l-.115-.035a32.684,32.684,0,0,1,3.487,5.566,38.031,38.031,0,0,1,1.558,3.7h4.321a6.544,6.544,0,0,0-.311-.762c-1.05-2.138-2.083-4.3-3.173-6.416"/><path class="cls-1" d="M157.744,104.879c-.031-.084-.106-.159-.117-.243a4.211,4.211,0,0,0-.984-2.174,22.952,22.952,0,0,0-2.1-2.11c-.369-.358-.728-.728-1.091-1.092-.055-.055-.107-.113-.167-.163l-.5-.415c.4.7.805,1.41,1.2,2.117.154.273.361.517.5.8.088.183.167.37.249.555.355.479.695.971,1.048,1.451.468.639.955,1.263,1.416,1.906h.76c-.071-.211-.142-.42-.217-.629"/><path class="cls-1" d="M130.322,97.156q.617.66,1.212,1.337c.344.392.683.785,1.026,1.178q-.33-.924-.688-1.835c-.248-.128-.5-.252-.752-.365s-.529-.216-.8-.315"/><path class="cls-1" d="M158.528,105.039c.086.151.161.311.236.469h.725c-.3-.382-.6-.776-.921-1.166a.511.511,0,0,0-.04.7"/><path class="cls-1" d="M133.285,97.179A37.459,37.459,0,0,0,129.2,90.12q1.771,3.4,3.556,6.826c.058.024.115.045.171.07.121.052.24.108.36.163"/><path class="cls-1" d="M159.591,93.969c.138.287.265.581.393.874a23.191,23.191,0,0,1,3.333,4.534l.018-.083c-.343-1.374-.69-2.871-1.031-4.423-.893-.334-1.8-.626-2.714-.906v0"/><path class="cls-1" d="M119.157,105.508q-.261-.566-.523-1.129c-.013-.028-.048-.045-.062-.072-.173-.344-.337-.694-.52-1.034s-.39-.7-.591-1.043a.59.59,0,0,0-.083-.105v3.383Z"/><path class="cls-1" d="M118.48,98.983c.486.343.942.732,1.417,1.094.612.468,1.213.953,1.851,1.385a12.07,12.07,0,0,0,1.255.661.844.844,0,0,0-.1-.44c-.246-.525-.49-1.051-.737-1.576a2.607,2.607,0,0,0-.134-.25c-.527-.839-1.052-1.679-1.583-2.515a21.731,21.731,0,0,0-1.927-3.076,10.958,10.958,0,0,1-1.141-1.83V98.26c.369.24.743.469,1.1.723"/><path class="cls-1" d="M119.357,88.161c1.03.651,2.11,1.241,3.076,1.978,1.567,1.2,3.079,2.468,4.576,3.752.53.456,1.037.94,1.535,1.434.285.089.57.176.853.268.325.106.623.291.942.418s.618.237.929.355l-.006-.015a37.837,37.837,0,0,0-9.6-13.37,15.953,15.953,0,0,0-4.282-2.759v6.759c.1.051.2.1.293.151.581.306,1.127.678,1.685,1.029"/><path class="cls-1" d="M134.7,43.327a8.508,8.508,0,0,1,3.148-.449c5.4.224,7.533,4.385,7.533,9.9s-2.811,10.345-8.433,10.345H134.7Zm-3.16,48.505a56.2,56.2,0,0,1,2.978,5.952l.182.091V86.335c-.875-.465-1.758-.911-2.637-1.367-.9-.467-1.816-.9-2.733-1.33-.681-.322-1.375-.62-2.063-.928.007-.043.014-.085.022-.128a1.509,1.509,0,0,1,.439-.032c.988.241,1.987.448,2.95.764a20.537,20.537,0,0,1,2.472,1.037c.519.25,1.035.509,1.55.766V77.036c0-.424.139-.538.819-.538h.867c3.18,0,5.115,1.482,6.323,7.156.754.875,1.444,1.806,2.154,2.717.7.9,1.424,1.775,2.074,2.707.749,1.074,1.368,2.242,2.152,3.286a23.619,23.619,0,0,1,2,3.188c.212.153.425.3.636.459.49.355.978.715,1.446,1.1.551.45,1.072.935,1.624,1.382a8.375,8.375,0,0,0,1.161.847l.753.571-.019-.022.028.033c.377.428.718.888,1.108,1.3s.826.777,1.223,1.182c.342.351.652.733.982,1.095.426.469.841.949,1.291,1.394a6.361,6.361,0,0,0,.706.563l.111-.525q-.14-.535-.28-1.071a1.916,1.916,0,0,0-.072-.222c-.3-.756-.6-1.513-.906-2.267a17.721,17.721,0,0,0-1.1-2.771,10.623,10.623,0,0,1-.694-1.772c-.047-.12-.117-.231-.171-.349-.124-.267-.251-.535-.367-.807-.065-.155-.091-.327-.167-.475-.324-.634-.656-1.265-.986-1.9-.933-.283-1.877-.534-2.82-.784-.729-.193-1.464-.361-2.2-.54,0-.044,0-.087,0-.13a1.549,1.549,0,0,1,.427-.111c1.015.059,2.035.083,3.039.219.31.043.618.1.926.163-.094-.165-.186-.33-.272-.5-.4-.782-.778-1.577-1.2-2.349-.358-.655-.761-1.286-1.149-1.927-.555-.919-1.1-1.844-1.679-2.753-.171-.271-.434-.482-.619-.745-.387-.548-.767-1.1-1.148-1.656-.265-.166-.533-.33-.8-.485-.974-.557-2-1.027-3.007-1.52-.591-.289-1.194-.555-1.795-.821-.448-.2-.9-.381-1.353-.57a.768.768,0,0,1,.011-.082.936.936,0,0,1,.285-.028c.645.139,1.3.258,1.927.449a13.2,13.2,0,0,1,1.62.635c.714.323,1.42.66,2.125,1l-.014-.02c-.292-.407-.643-.772-.968-1.156-.553-.654-1.1-1.316-1.663-1.958-.366-.415-.773-.793-1.15-1.2-.513-.55-.989-1.136-1.527-1.659-.834-.807-1.713-1.568-2.555-2.367-.1-.1-.1-.319-.143-.482.145-.011.334-.086.429-.021.5.341,1,.7,1.474,1.085.409.331.781.7,1.173,1.056.608.547,1.24,1.07,1.822,1.643.548.54,1.037,1.138,1.564,1.7.577.613,1.2,1.187,1.746,1.823.624.722,1.194,1.492,1.781,2.247.194.248.39.494.585.742a12.414,12.414,0,0,1,1.084.689c1.036.751,2.038,1.553,3.029,2.364.56.456,1.082.96,1.6,1.463.484.469.95.957,1.408,1.453q.342.37.682.745c.205.025.41.048.615.075a3.137,3.137,0,0,1,.42.095c-.167-.85-.328-1.69-.481-2.507-.678-.319-1.367-.615-2.051-.922.008-.042.015-.085.023-.128a1.5,1.5,0,0,1,.439-.031c.483.117.97.227,1.453.346-.094-.5-.183-1-.27-1.478-1.348-7.421-3.822-11.918-8.77-14.167v-.225c7.759-3.6,11.469-11.244,11.469-18.665,0-6.747-1.349-11.806-6.3-16.192-5.285-4.722-13.268-5.734-21.589-5.734a105.749,105.749,0,0,0-17.653,1.461V79.484a30.65,30.65,0,0,1,14.156,12.348"/><path class="cls-1" d="M133.165,103.322c-.627-.848-1.3-1.664-1.966-2.483-.547-.674-1.1-1.344-1.685-1.989-.518-.574-1.085-1.1-1.616-1.667-.5-.531-.958-1.106-1.472-1.62-.5-.166-.993-.324-1.486-.5-.852-.3-1.709-.579-2.681-.907a1.365,1.365,0,0,1,1.38-.332c.435.127.87.258,1.3.39-1.3-1.148-2.61-2.282-3.963-3.366a35.406,35.406,0,0,0-3.6-2.532v.59c.357.5.688,1.025,1.051,1.526.495.682,1.016,1.346,1.521,2.021.256.343.53.675.75,1.039.519.862.994,1.751,1.521,2.609.612.993,1.291,1.947,1.885,2.95s1.135,2.077,1.707,3.112a5.236,5.236,0,0,0,.356.5,4.563,4.563,0,0,1,.409.579c.365.733.674,1.494,1.071,2.207.011.019.023.036.033.055h6.788c-.057-.182-.115-.363-.172-.545-.371-.552-.74-1.107-1.134-1.641"/><path class="cls-1" d="M121.028,103.664c-.945-.656-1.778-1.475-2.7-2.258a.622.622,0,0,0,.105.844c.188.225.353.471.528.707.093.126.2.245.281.378a7.358,7.358,0,0,1,.454.782c.164.349.278.722.442,1.072a2.943,2.943,0,0,0,.18.318h2.8c-.129-.105-.259-.21-.386-.319a21.441,21.441,0,0,0-1.7-1.524"/><path class="cls-1" d="M153.665,104.655c-.152-.326-.306-.652-.448-.983-.079-.188-.11-.4-.2-.578h0c-.126-.179-.252-.358-.382-.533-.627-.848-1.3-1.665-1.965-2.483-.548-.674-1.1-1.345-1.686-1.989-.518-.574-1.085-1.1-1.615-1.667-.6-.639-1.139-1.348-1.791-1.929q-.691-.618-1.384-1.23a72.991,72.991,0,0,0,2.871,12.245h6.961c-.048-.144-.1-.287-.152-.428s-.14-.282-.207-.424"/><path class="cls-1" d="M145.669,92.053c.71.4,1.389.847,2.075,1.284-.637-1.055-1.269-2.114-1.926-3.156-.208-.33-.529-.586-.755-.907-.62-.882-1.231-1.772-1.846-2.659.047.33.092.665.136,1.014.139,1.095.293,2.186.456,3.261q.357.291.713.587c.388.181.773.368,1.147.576"/><path class="cls-1" d="M161.955,93.255l-.278-.378c-.389-.529-.752-1.078-1.154-1.6-.421-.541-.868-1.06-1.315-1.58-.047-.056-.1-.11-.143-.166-.684-.125-1.374-.2-2.06-.307l-.1-.016.008.015c.586,1.152,1.235,2.273,1.876,3.4q1.621.452,3.229.949c-.023-.106-.045-.212-.067-.318"/><path class="cls-1" d="M158.335,88.712c-.085-.092-.167-.186-.253-.277-.345-.364-.721-.7-1.074-1.057-.4-.405-.761-.857-1.193-1.224-.6-.51-1.2-1.018-1.812-1.517.369.592.731,1.191,1.149,1.748a18.821,18.821,0,0,1,1.377,2.119c.51.057,1.019.117,1.529.176l.277.032"/><path class="cls-1" d="M176.516,103.183c-.613-.471-1.266-.89-1.89-1.349-.588-.431-1.142-.914-1.741-1.327-.516-.074-1.036-.139-1.551-.22-.892-.139-1.785-.262-2.8-.409a1.36,1.36,0,0,1,1.3-.574q.677.067,1.352.147c-1.484-.895-2.979-1.773-4.5-2.595q-.54-.291-1.092-.563c.352.55.7,1.1,1.048,1.652.245.394.477.8.689,1.211.27.522.5,1.062.769,1.586.279.552.608,1.081.861,1.646.275.614.486,1.258.729,1.889.033.083.093.155.13.238a7.721,7.721,0,0,1,.341.775c.024.072.045.145.065.217h8.663l.056-.324-.406-.348c-.66-.564-1.328-1.122-2.016-1.652"/><path class="cls-1" d="M165.494,90.107c.772.214,1.556.389,2.314.646.61.208,1.207.452,1.8.7-.548-.374-1.1-.737-1.67-1.08-.791-.479-1.607-.919-2.428-1.348L165.3,90.05l.2.057"/><path class="cls-1" d="M178.678,99.37c-.6-.639-1.139-1.348-1.791-1.929q-1.473-1.319-2.973-2.61c-.419-.232-.836-.467-1.257-.7a3.283,3.283,0,0,0-.316-.138c-.57-.243-1.141-.48-1.707-.729-.934-.41-1.862-.835-2.8-1.237-.281-.12-.587-.181-.878-.279-.63-.209-1.259-.423-1.887-.634l-.691,3.253c.012.02.026.039.038.06l.179.073c1.132.454,2.3.839,3.383,1.391,1.757.893,3.474,1.87,5.178,2.864.6.352,1.19.737,1.769,1.134.3.035.592.07.887.109.339.045.665.174,1,.24.908.179,1.823.32,2.724.523.053.012.1.026.157.039l.057-.33c-.36-.367-.723-.729-1.075-1.1"/><path class="cls-1" d="M187.084,87.982l.251.442c.126.224.3.425.407.656.232.485.432.986.662,1.473h1.271c-.864-.857-1.72-1.721-2.591-2.571"/><path class="cls-1" d="M207.029,89.405c-.064-.044-.126-.092-.193-.13l-1.126-.634c.071.14.142.279.207.422.527,1.167,1,2.359,1.456,3.555.242.63.436,1.281.623,1.931.008,0,.018.01.026.016a27.8,27.8,0,0,1,3.686,3.644c-.111-.546-.237-1.259-.319-1.748-.24-1.442-.49-2.886-.805-4.313-.027-.12-.059-.242-.087-.363-.7-.561-1.459-1.01-2.2-1.5-.428-.285-.846-.584-1.27-.877"/><path class="cls-1" d="M177.846,101.537c-.277-.066-.559-.117-.841-.166q.725.54,1.433,1.1c.285.226.568.453.852.679l.2-1.127c-.543-.173-1.085-.351-1.639-.483"/><path class="cls-1" d="M212.488,105.5A52.355,52.355,0,0,0,209,98.708c.074.349.15.7.219,1.047.112.567.165,1.145.244,1.719.1.687.217,1.37.281,2.06.044.494.057.991.072,1.488.032.065.065.128.1.193l.148.293h1.469s.5-.013.963-.009"/><path class="cls-1" d="M208.23,95.4c.052.2.1.392.15.588a34.754,34.754,0,0,1,3.9,5.112c0-.072-.069-.311-.071-.382-.326-.591-1.22-2-1.591-2.575A12.332,12.332,0,0,0,208.23,95.4"/><path class="cls-1" d="M201.6,104.914c-.082-.133-.189-.251-.281-.379-.208-.294-.418-.586-.617-.886-.112-.17-.18-.372-.3-.532q-1.124-1.464-2.263-2.913c-.254-.324-.53-.631-.782-.957-.652-.848-1.277-1.718-1.95-2.55-.263-.325-.54-.642-.818-.956l.973,5.886c.18.118.362.232.54.353.769.517,1.522,1.059,2.272,1.6.6.433,1.191.869,1.76,1.335.234.191.462.39.69.589h1.118c-.109-.2-.22-.4-.338-.594"/><path class="cls-1" d="M164.542,101.9a25.052,25.052,0,0,1,.931,2.676c.089.307.166.617.241.927h2.415q-.78-.99-1.658-1.924a12.788,12.788,0,0,0-1.929-1.679"/><path class="cls-1" d="M197.705,105.2c-.072-.059-.159-.1-.231-.163-.472-.386-.94-.778-1.413-1.163-.048-.037-.1-.072-.15-.1l.147.891.134.162c.108.133.177.3.282.434.064.083.129.164.194.247h1.4l-.365-.3"/><path class="cls-1" d="M163.387,99.5q.414.75.775,1.532a24.075,24.075,0,0,1,3.5,2.509q-.165-.373-.326-.748c-.262-.618-.5-1.245-.752-1.867a.866.866,0,0,0-.06-.1c-.452-.784-.917-1.56-1.352-2.352-.411-.75-.79-1.516-1.185-2.274l-.656,3.091c.018.07.034.141.052.21"/><path class="cls-1" d="M207.623,97.88c-.092-.481-.189-.962-.3-1.439-.426-.522-.871-1.034-1.34-1.53a12.283,12.283,0,0,0-2.909-2.3,23.72,23.72,0,0,1,1.616,2.717c.859,1.688,1.831,3.32,2.76,4.974.153.272.361.516.495.8.076.158.145.321.217.481-.058-.558-.1-1.117-.182-1.672-.1-.679-.227-1.352-.356-2.026"/><path class="cls-1" d="M170.137,90.349c1.031.65,2.11,1.24,3.076,1.978.673.514,1.335,1.044,1.991,1.58q.451.224.895.464c.622.343,1.221.727,1.847,1.065a17.591,17.591,0,0,1,2.115,1.033c.113.09.226.182.337.274l.244-1.413c-.742-.274-1.5-.5-2.246-.763-.852-.3-1.709-.579-2.681-.908a1.365,1.365,0,0,1,1.379-.331c.9.26,1.79.54,2.684.814l1.015.31.12-.683q-.792-.659-1.582-1.316c-.06-.049-.13-.085-.19-.134-.388-.317-.772-.638-1.161-.954a3.269,3.269,0,0,0-.287-.193c-.516-.342-1.035-.678-1.548-1.026-.844-.571-1.68-1.156-2.528-1.721-.256-.169-.546-.284-.815-.432-.793-.436-1.582-.876-2.374-1.316-.1-.056-.2-.124-.3-.179-.526-.272-1.041-.569-1.583-.807-.664-.294-1.38-.481-2.018-.818-.04-.022-.081-.041-.121-.061l-.663,3.125q1.362.678,2.709,1.383c.58.305,1.127.678,1.684,1.029"/><path class="cls-1" d="M206.815,94.565c-.017-.069-.05-.206-.05-.206l-.1-.449s-.131-.535-.224-.792c-.5-1.375-1-2.75-1.571-4.1-.161-.383-.336-.762-.521-1.138a1.025,1.025,0,0,1-.113-.052c-.438-.242-.874-.488-1.313-.729a3.212,3.212,0,0,0-.318-.138c-.569-.243-1.14-.481-1.706-.73-.934-.409-1.862-.833-2.8-1.236a4.93,4.93,0,0,0-.61-.2c.276.356.55.714.826,1.069.7.9,1.425,1.777,2.075,2.707.713,1.025,1.314,2.13,2.046,3.136a2.1,2.1,0,0,1,.348.147,24.38,24.38,0,0,1,4.032,2.7"/><path class="cls-1" d="M167.905,84.49c.706.279,1.425.529,2.124.827.555.237,1.087.529,1.631.794.721.35,1.462.663,2.159,1.053.776.433,1.516.932,2.267,1.406.645.407,1.292.809,1.923,1.234s1.251.87,1.866,1.318c.447.324.891.654,1.322,1l0-.026c-.024-.036-.05-.071-.074-.106-.092-.14-.149-.3-.25-.437q-.922-1.2-1.859-2.392c-.21-.267-.436-.519-.642-.787-.535-.7-1.049-1.411-1.6-2.095-.47-.58-.981-1.127-1.477-1.687-.713-.8-1.42-1.615-2.148-2.406-.217-.235-.514-.4-.744-.62-.9-.88-1.772-1.782-2.675-2.656-.361-.348-.773-.643-1.162-.961q-.3-.247-.6-.5l-1.385,6.525.547.172c.266.087.511.239.774.342"/><path class="cls-1" d="M171.809,79.25c.7.621,1.415,1.224,2.078,1.88.763.757,1.437,1.609,2.225,2.337a19.261,19.261,0,0,1,2.249,2.476c.945,1.238,1.972,2.413,2.968,3.611.164.2.368.364.517.571.1.14.2.284.3.428h4.479a1.452,1.452,0,0,0-.09-.244c-.46-.9-.928-1.794-1.4-2.688-.157-.3-.334-.589-.489-.89-.235-.459-.465-.92-.7-1.381-.318-.26-.635-.521-.958-.775-.529-.416-1.1-.779-1.639-1.182-.734-.545-1.433-1.143-2.193-1.651-1.175-.783-2.395-1.5-3.578-2.272-.149-.1-.188-.36-.278-.546.172-.044.381-.176.509-.12.68.3,1.352.62,2,.977.562.306,1.092.672,1.637,1.007.849.521,1.721,1.008,2.543,1.566.145.1.288.2.432.308l-.127-.206c-.556-.92-1.105-1.846-1.68-2.755-.17-.27-.433-.481-.619-.743-.723-1.027-1.421-2.073-2.153-3.095-.291-.407-.642-.772-.967-1.156-.553-.654-1.1-1.316-1.663-1.958-.366-.415-.772-.793-1.15-1.2-.512-.551-.988-1.136-1.527-1.659-.809-.784-1.661-1.524-2.48-2.3l-1.85,8.721c.487.34.979.676,1.441,1.047.745.6,1.445,1.253,2.158,1.888"/><path class="cls-1" d="M171.745,68.107c.409.331.782.7,1.173,1.056.608.547,1.24,1.07,1.823,1.643.547.539,1.036,1.138,1.563,1.7.577.613,1.2,1.187,1.746,1.823.624.722,1.194,1.492,1.781,2.246.575.737,1.17,1.459,1.7,2.224.615.882,1.124,1.842,1.767,2.7a19.223,19.223,0,0,1,1.766,2.842c.079.156.164.31.245.465.481.335.96.673,1.417,1.039.906.728,1.757,1.524,2.627,2.3.848.756,1.722,1.49,2.528,2.289.041.04.079.083.119.124h1.72l.368,2.224c.166.168.33.336.5.5a23.494,23.494,0,0,1,2.737,3.015c1.15,1.506,2.4,2.937,3.613,4.4.2.241.448.444.63.695.4.548.756,1.126,1.155,1.673.5.683,1.015,1.348,1.521,2.023.109.146.219.289.329.434h3.067c-.1-.312-.2-.626-.319-.929-.056-.146-.141-.281-.208-.424-.15-.326-.305-.651-.446-.983-.08-.187-.111-.4-.2-.578q-.841-1.642-1.7-3.273c-.191-.364-.406-.717-.595-1.083-.488-.951-.945-1.92-1.457-2.858-.436-.8-.928-1.567-1.4-2.346-.678-1.121-1.345-2.246-2.044-3.353-.208-.33-.529-.586-.754-.906-.881-1.251-1.731-2.523-2.62-3.766A13,13,0,0,0,195.064,84l-.418-.139c-.109-.038-.216-.088-.326-.122-.567-.174-1.128-.372-1.7-.51-.705-.169-1.443-.224-2.132-.441a21.819,21.819,0,0,0-3.218-.586c-.731-.114-1.466-.214-2.3-.336a1.121,1.121,0,0,1,1.066-.471c.763.075,1.525.17,2.288.259.875.1,1.753.2,2.626.313.279.037.546.143.823.2.69.135,1.386.247,2.073.4-.377-.45-.757-.9-1.146-1.339-.446-.5-.94-.965-1.4-1.458-.624-.669-1.2-1.383-1.859-2.018-.2-.193-.4-.38-.6-.568h-5.684L185.4,62.78c.674-4.048,1.8-12.482,2.586-17.2h.225c.674,4.721,1.686,12.931,2.248,17.2l1.912,14.392h-2.116c.627.552,1.263,1.095,1.858,1.68.666.656,1.261,1.385,1.9,2.066.7.745,1.457,1.445,2.124,2.219l.047.055c.63.166,1.264.321,1.879.53.841.286,1.658.643,2.483.974.707.284,1.416.562,2.114.867.175.076.349.157.524.236-.489-.778-1.02-1.532-1.536-2.293-.37-.544-.761-1.074-1.151-1.6-.29-.394-.595-.778-.892-1.167.018-.022.034-.044.051-.066a.958.958,0,0,1,.261.118c.49.442,1,.869,1.451,1.347a13.33,13.33,0,0,1,1.091,1.355c.568.785,1.119,1.582,1.66,2.387.108.161.206.329.3.5.1.05.207.1.309.147.547.262,1.092.527,1.621.818.623.343,1.223.727,1.847,1.065.108.059.288-.019.435-.034a.952.952,0,0,0-.068-.358c-.405-.581-.808-1.164-1.248-1.718a6,6,0,0,1-1.237-1.749.281.281,0,0,0-.12-.15c-.721-.364-1.029-1.121-1.549-1.673a10.492,10.492,0,0,0-1.146-1.266c-.145-.112-.179-.365-.305-.643.181.049.258.045.293.081.449.468.889.946,1.341,1.411.152.156.409.252.488.432.325.748,1.208,1.048,1.449,1.854.018.063.121.095.17.154.329.391.656.783.977,1.182.088.109.145.243.231.355q.483.626.976,1.242c.076.1.17.186.259.278-.24-.555-.49-1.106-.734-1.659-.265-.6-.555-1.194-.842-1.785-.215-.441-.444-.873-.667-1.309.02-.019.041-.037.062-.055a.915.915,0,0,1,.235.162c.4.523.825,1.035,1.183,1.586a12.974,12.974,0,0,1,.829,1.53q.282.59.551,1.186L199.234,29.722H178.1L170.187,67a.172.172,0,0,1,.084.024c.506.342,1,.7,1.474,1.086"/><path class="cls-1" d="M162.253,105.508a.755.755,0,0,0-.034-.265l-.081-.31-.111.523.068.052Z"/><path class="cls-1" d="M163.387,99.5c-.018-.069-.034-.14-.052-.21l-.018.084c.023.042.046.085.07.126"/><path class="cls-1" d="M164.668,105.508h.294c-.251-.9-.542-1.785-.864-2.667q.285,1.332.57,2.667"/><path class="cls-1" d="M81.551,105.508c-.039-.051-.079-.1-.116-.151-.355-.248-.712-.492-1.061-.749-.707-.52-1.364-1.12-2.11-1.575-.02-.011-2.142-1.576-2.161-1.587,0,.032.009.063.012.094v3.979h4.37l-.008-.011Z"/><path class="cls-1" d="M28.614,19.536V13.4a8.659,8.659,0,0,0-4.663,1.125,4.538,4.538,0,0,0-2.23,4.1,3.615,3.615,0,0,0,.779,2.5,2.213,2.213,0,0,0,1.69.723,4.84,4.84,0,0,0,1.77-.269,7.9,7.9,0,0,0,2.654-2.039M22.634,4.652a1.822,1.822,0,0,1,.726.7,1.97,1.97,0,0,1,.266,1.016,1.9,1.9,0,0,1-.562,1.4,1.95,1.95,0,0,1-2.737,0,1.9,1.9,0,0,1-.564-1.4,3.55,3.55,0,0,1,1.866-2.9A7.115,7.115,0,0,1,25.694,2.21a6.489,6.489,0,0,1,4.68,1.541q1.592,1.542,1.592,4.835V20.962a2.542,2.542,0,0,0,.188,1.177.66.66,0,0,0,.621.321.93.93,0,0,0,.787-.434c.21-.291.408-.566.6-.828a.524.524,0,0,1,.35-.184.728.728,0,0,1,.494.173.554.554,0,0,1,.2.443,1,1,0,0,1-.325.723A4.037,4.037,0,0,1,33.172,23.4a5.045,5.045,0,0,1-1.474.19,2.787,2.787,0,0,1-1.983-.727,3.515,3.515,0,0,1-1.021-1.983A12.729,12.729,0,0,1,25.573,23a7.06,7.06,0,0,1-2.885.667,4.425,4.425,0,0,1-3.11-1.152,4.212,4.212,0,0,1-1.371-3.3A5.808,5.808,0,0,1,21.8,13.8a14.852,14.852,0,0,1,6.81-1.449V6.8q0-3.378-2.92-3.378a4.767,4.767,0,0,0-1.959.36,2.311,2.311,0,0,0-1.1.872"/><path class="cls-1" d="M22.688,23.872a4.652,4.652,0,0,1-3.251-1.208A4.422,4.422,0,0,1,18,19.215a6.023,6.023,0,0,1,3.709-5.6,14.979,14.979,0,0,1,6.7-1.471V6.8c0-2.134-.886-3.171-2.713-3.171a4.526,4.526,0,0,0-1.872.341,2.413,2.413,0,0,0-.895.622,1.992,1.992,0,0,1,.61.657,2.178,2.178,0,0,1,.3,1.121,2.1,2.1,0,0,1-.623,1.541,2.151,2.151,0,0,1-3.027,0,2.112,2.112,0,0,1-.626-1.542A3.745,3.745,0,0,1,21.514,3.3,7.348,7.348,0,0,1,25.694,2a6.717,6.717,0,0,1,4.822,1.6,6.7,6.7,0,0,1,1.657,4.984V20.962a2.3,2.3,0,0,0,.159,1.073.452.452,0,0,0,.443.219.722.722,0,0,0,.618-.347c.212-.294.411-.57.609-.833a.739.739,0,0,1,.514-.267.927.927,0,0,1,.631.226.762.762,0,0,1,.274.6,1.205,1.205,0,0,1-.387.869,4.253,4.253,0,0,1-1.8,1.1,5.178,5.178,0,0,1-1.534.2,2.994,2.994,0,0,1-2.125-.782,3.573,3.573,0,0,1-1-1.752,12.707,12.707,0,0,1-2.912,1.925A7.294,7.294,0,0,1,22.688,23.872Zm5.926-11.316A14.7,14.7,0,0,0,21.9,13.982a5.574,5.574,0,0,0-3.484,5.233,4.04,4.04,0,0,0,1.3,3.145,4.262,4.262,0,0,0,2.974,1.1,6.867,6.867,0,0,0,2.8-.649,12.619,12.619,0,0,0,3.067-2.084l.272-.239.067.354a3.322,3.322,0,0,0,.959,1.87,2.592,2.592,0,0,0,1.843.672,4.9,4.9,0,0,0,1.413-.18,3.858,3.858,0,0,0,1.63-.994.8.8,0,0,0,.266-.578.343.343,0,0,0-.132-.286.509.509,0,0,0-.359-.123.361.361,0,0,0-.2.125c-.175.236-.374.51-.583.8a1.127,1.127,0,0,1-.954.519.857.857,0,0,1-.8-.424,2.691,2.691,0,0,1-.217-1.281V8.586A6.315,6.315,0,0,0,30.231,3.9a6.332,6.332,0,0,0-4.537-1.481,6.94,6.94,0,0,0-3.949,1.226A3.364,3.364,0,0,0,19.97,6.368a1.69,1.69,0,0,0,.5,1.251,1.746,1.746,0,0,0,2.445,0,1.688,1.688,0,0,0,.5-1.25,1.762,1.762,0,0,0-.237-.912,1.634,1.634,0,0,0-.644-.623l-.189-.1.108-.184a2.481,2.481,0,0,1,1.193-.956,4.934,4.934,0,0,1,2.044-.379c2.074,0,3.127,1.206,3.127,3.585v5.758ZM24.19,22.05a2.422,2.422,0,0,1-1.841-.788,3.822,3.822,0,0,1-.835-2.639,4.754,4.754,0,0,1,2.326-4.275,8.886,8.886,0,0,1,4.774-1.158h.207v6.427l-.056.061a8.159,8.159,0,0,1-2.727,2.089A5.079,5.079,0,0,1,24.19,22.05Zm4.217-8.445A8.327,8.327,0,0,0,24.061,14.7a4.307,4.307,0,0,0-2.133,3.926,3.442,3.442,0,0,0,.725,2.36,2,2,0,0,0,1.537.654,4.644,4.644,0,0,0,1.692-.254,7.62,7.62,0,0,0,2.525-1.929Z"/><path class="cls-1" d="M28.614,19.536V13.4a8.659,8.659,0,0,0-4.663,1.125,4.538,4.538,0,0,0-2.23,4.1,3.615,3.615,0,0,0,.779,2.5,2.213,2.213,0,0,0,1.69.723,4.84,4.84,0,0,0,1.77-.269A7.9,7.9,0,0,0,28.614,19.536ZM22.634,4.652a1.822,1.822,0,0,1,.726.7,1.97,1.97,0,0,1,.266,1.016,1.9,1.9,0,0,1-.562,1.4,1.95,1.95,0,0,1-2.737,0,1.9,1.9,0,0,1-.564-1.4,3.55,3.55,0,0,1,1.866-2.9A7.115,7.115,0,0,1,25.694,2.21a6.489,6.489,0,0,1,4.68,1.541q1.592,1.542,1.592,4.835V20.962a2.542,2.542,0,0,0,.188,1.177.66.66,0,0,0,.621.321.93.93,0,0,0,.787-.434c.21-.291.408-.566.6-.828a.524.524,0,0,1,.35-.184.728.728,0,0,1,.494.173.554.554,0,0,1,.2.443,1,1,0,0,1-.325.723A4.037,4.037,0,0,1,33.172,23.4a5.045,5.045,0,0,1-1.474.19,2.787,2.787,0,0,1-1.983-.727,3.515,3.515,0,0,1-1.021-1.983A12.729,12.729,0,0,1,25.573,23a7.06,7.06,0,0,1-2.885.667,4.425,4.425,0,0,1-3.11-1.152,4.212,4.212,0,0,1-1.371-3.3A5.808,5.808,0,0,1,21.8,13.8a14.852,14.852,0,0,1,6.81-1.449V6.8q0-3.378-2.92-3.378a4.767,4.767,0,0,0-1.959.36A2.311,2.311,0,0,0,22.634,4.652Z"/><path class="cls-1" d="M22.688,23.872a4.652,4.652,0,0,1-3.251-1.208A4.422,4.422,0,0,1,18,19.215a6.023,6.023,0,0,1,3.709-5.6,14.979,14.979,0,0,1,6.7-1.471V6.8c0-2.134-.886-3.171-2.713-3.171a4.526,4.526,0,0,0-1.872.341,2.413,2.413,0,0,0-.895.622,1.992,1.992,0,0,1,.61.657,2.178,2.178,0,0,1,.3,1.121,2.1,2.1,0,0,1-.623,1.541,2.151,2.151,0,0,1-3.027,0,2.112,2.112,0,0,1-.626-1.542A3.745,3.745,0,0,1,21.514,3.3,7.348,7.348,0,0,1,25.694,2a6.717,6.717,0,0,1,4.822,1.6,6.7,6.7,0,0,1,1.657,4.984V20.962a2.3,2.3,0,0,0,.159,1.073.452.452,0,0,0,.443.219.722.722,0,0,0,.618-.347c.212-.294.411-.57.609-.833a.739.739,0,0,1,.514-.267.927.927,0,0,1,.631.226.762.762,0,0,1,.274.6,1.205,1.205,0,0,1-.387.869,4.253,4.253,0,0,1-1.8,1.1,5.178,5.178,0,0,1-1.534.2,2.994,2.994,0,0,1-2.125-.782,3.573,3.573,0,0,1-1-1.752,12.707,12.707,0,0,1-2.912,1.925A7.294,7.294,0,0,1,22.688,23.872Zm5.926-11.316A14.7,14.7,0,0,0,21.9,13.982a5.574,5.574,0,0,0-3.484,5.233,4.04,4.04,0,0,0,1.3,3.145,4.262,4.262,0,0,0,2.974,1.1,6.867,6.867,0,0,0,2.8-.649,12.619,12.619,0,0,0,3.067-2.084l.272-.239.067.354a3.322,3.322,0,0,0,.959,1.87,2.592,2.592,0,0,0,1.843.672,4.9,4.9,0,0,0,1.413-.18,3.858,3.858,0,0,0,1.63-.994.8.8,0,0,0,.266-.578.343.343,0,0,0-.132-.286.509.509,0,0,0-.359-.123.361.361,0,0,0-.2.125c-.175.236-.374.51-.583.8a1.127,1.127,0,0,1-.954.519.857.857,0,0,1-.8-.424,2.691,2.691,0,0,1-.217-1.281V8.586A6.315,6.315,0,0,0,30.231,3.9a6.332,6.332,0,0,0-4.537-1.481,6.94,6.94,0,0,0-3.949,1.226A3.364,3.364,0,0,0,19.97,6.368a1.69,1.69,0,0,0,.5,1.251,1.746,1.746,0,0,0,2.445,0,1.688,1.688,0,0,0,.5-1.25,1.762,1.762,0,0,0-.237-.912,1.634,1.634,0,0,0-.644-.623l-.189-.1.108-.184a2.481,2.481,0,0,1,1.193-.956,4.934,4.934,0,0,1,2.044-.379c2.074,0,3.127,1.206,3.127,3.585v5.758ZM24.19,22.05a2.422,2.422,0,0,1-1.841-.788,3.822,3.822,0,0,1-.835-2.639,4.754,4.754,0,0,1,2.326-4.275,8.886,8.886,0,0,1,4.774-1.158h.207v6.427l-.056.061a8.159,8.159,0,0,1-2.727,2.089A5.079,5.079,0,0,1,24.19,22.05Zm4.217-8.445A8.327,8.327,0,0,0,24.061,14.7a4.307,4.307,0,0,0-2.133,3.926,3.442,3.442,0,0,0,.725,2.36,2,2,0,0,0,1.537.654,4.644,4.644,0,0,0,1.692-.254,7.62,7.62,0,0,0,2.525-1.929Z"/><path class="cls-1" d="M7.312,4.088V13.8h2.2a4.424,4.424,0,0,0,3.39-1.06q.954-1.059.953-3.822a5.631,5.631,0,0,0-.964-3.753A4.4,4.4,0,0,0,9.515,4.088Zm2.2-1.127a8.89,8.89,0,0,1,5.606,1.628,5.237,5.237,0,0,1,2.09,4.351,5.3,5.3,0,0,1-2.106,4.365,8.743,8.743,0,0,1-5.59,1.67h-2.2v7.562h3.274a.474.474,0,0,1,.336.149.565.565,0,0,1,.145.415c0,.375-.158.564-.481.564-.518-.039-1.243-.071-2.173-.107S6.761,23.5,6.243,23.5H5.037c-1.308,0-2.211.017-2.711.041s-1.047.069-1.636.121a.477.477,0,0,1-.335-.145A.569.569,0,0,1,.207,23.1q0-.564.483-.564H3.959V3.927H.69a.463.463,0,0,1-.335-.15.546.546,0,0,1-.148-.415c0-.374.161-.564.483-.564.519.039,1.242.074,2.174.11s1.651.053,2.173.053Z"/><path class="cls-1" d="M10.586,23.872l-.016,0c-.518-.038-1.238-.07-2.165-.107-1-.036-1.684-.054-2.162-.054H5.037c-1.19,0-2.149.015-2.7.041-.5.026-1.042.068-1.628.12h0a.689.689,0,0,1-.495-.2A.778.778,0,0,1,0,23.1c0-.49.252-.771.69-.771H3.753V4.133H.69a.671.671,0,0,1-.48-.209A.757.757,0,0,1,0,3.362c0-.49.252-.771.69-.771.494.038,1.185.073,2.181.112.922.034,1.65.051,2.166.051H9.515a9.13,9.13,0,0,1,5.732,1.672A5.456,5.456,0,0,1,17.418,8.94a5.522,5.522,0,0,1-2.184,4.527,8.992,8.992,0,0,1-5.719,1.715h-2V22.33h3.067a.688.688,0,0,1,.481.208.781.781,0,0,1,.207.563C11.274,23.591,11.024,23.872,10.586,23.872ZM.69,22.744c-.144,0-.276.026-.276.357a.36.36,0,0,0,.089.275.268.268,0,0,0,.187.082c.572-.051,1.12-.092,1.626-.119.559-.029,1.526-.043,2.721-.043H6.243c.483,0,1.177.017,2.178.056.925.035,1.65.067,2.173.106.14,0,.267-.032.267-.357a.369.369,0,0,0-.086-.271.27.27,0,0,0-.189-.086H7.105V14.768h2.41a8.6,8.6,0,0,0,5.46-1.623A5.124,5.124,0,0,0,17,8.94a5.066,5.066,0,0,0-2.01-4.189A8.726,8.726,0,0,0,9.515,3.168H5.037c-.522,0-1.255-.019-2.181-.054-1-.039-1.7-.074-2.182-.11-.123,0-.26.028-.26.358A.336.336,0,0,0,.5,3.63a.264.264,0,0,0,.191.09H4.167V22.744ZM9.515,14H7.105V3.881h2.41a4.616,4.616,0,0,1,3.532,1.141c.685.761,1.018,2.034,1.018,3.892,0,1.913-.33,3.208-1.007,3.96A4.619,4.619,0,0,1,9.515,14Zm-2-.414h2a4.258,4.258,0,0,0,3.237-.99,5.654,5.654,0,0,0,.9-3.685A5.488,5.488,0,0,0,12.741,5.3,4.246,4.246,0,0,0,9.515,4.294h-2Z"/><path class="cls-1" d="M7.312,4.088V13.8h2.2a4.424,4.424,0,0,0,3.39-1.06q.954-1.059.953-3.822a5.631,5.631,0,0,0-.964-3.753A4.4,4.4,0,0,0,9.515,4.088Zm2.2-1.127a8.89,8.89,0,0,1,5.606,1.628,5.237,5.237,0,0,1,2.09,4.351,5.3,5.3,0,0,1-2.106,4.365,8.743,8.743,0,0,1-5.59,1.67h-2.2v7.562h3.274a.474.474,0,0,1,.336.149.565.565,0,0,1,.145.415c0,.375-.158.564-.481.564-.518-.039-1.243-.071-2.173-.107S6.761,23.5,6.243,23.5H5.037c-1.308,0-2.211.017-2.711.041s-1.047.069-1.636.121a.477.477,0,0,1-.335-.145A.569.569,0,0,1,.207,23.1q0-.564.483-.564H3.959V3.927H.69a.463.463,0,0,1-.335-.15.546.546,0,0,1-.148-.415c0-.374.161-.564.483-.564.519.039,1.242.074,2.174.11s1.651.053,2.173.053Z"/><path class="cls-1" d="M10.586,23.872l-.016,0c-.518-.038-1.238-.07-2.165-.107-1-.036-1.684-.054-2.162-.054H5.037c-1.19,0-2.149.015-2.7.041-.5.026-1.042.068-1.628.12h0a.689.689,0,0,1-.495-.2A.778.778,0,0,1,0,23.1c0-.49.252-.771.69-.771H3.753V4.133H.69a.671.671,0,0,1-.48-.209A.757.757,0,0,1,0,3.362c0-.49.252-.771.69-.771.494.038,1.185.073,2.181.112.922.034,1.65.051,2.166.051H9.515a9.13,9.13,0,0,1,5.732,1.672A5.456,5.456,0,0,1,17.418,8.94a5.522,5.522,0,0,1-2.184,4.527,8.992,8.992,0,0,1-5.719,1.715h-2V22.33h3.067a.688.688,0,0,1,.481.208.781.781,0,0,1,.207.563C11.274,23.591,11.024,23.872,10.586,23.872ZM.69,22.744c-.144,0-.276.026-.276.357a.36.36,0,0,0,.089.275.268.268,0,0,0,.187.082c.572-.051,1.12-.092,1.626-.119.559-.029,1.526-.043,2.721-.043H6.243c.483,0,1.177.017,2.178.056.925.035,1.65.067,2.173.106.14,0,.267-.032.267-.357a.369.369,0,0,0-.086-.271.27.27,0,0,0-.189-.086H7.105V14.768h2.41a8.6,8.6,0,0,0,5.46-1.623A5.124,5.124,0,0,0,17,8.94a5.066,5.066,0,0,0-2.01-4.189A8.726,8.726,0,0,0,9.515,3.168H5.037c-.522,0-1.255-.019-2.181-.054-1-.039-1.7-.074-2.182-.11-.123,0-.26.028-.26.358A.336.336,0,0,0,.5,3.63a.264.264,0,0,0,.191.09H4.167V22.744ZM9.515,14H7.105V3.881h2.41a4.616,4.616,0,0,1,3.532,1.141c.685.761,1.018,2.034,1.018,3.892,0,1.913-.33,3.208-1.007,3.96A4.619,4.619,0,0,1,9.515,14Zm-2-.414h2a4.258,4.258,0,0,0,3.237-.99,5.654,5.654,0,0,0,.9-3.685A5.488,5.488,0,0,0,12.741,5.3,4.246,4.246,0,0,0,9.515,4.294h-2Z"/><path class="cls-1" d="M44.648,6.433a7.263,7.263,0,0,1,2.09-2.9A4.8,4.8,0,0,1,49.854,2.3a3.809,3.809,0,0,1,2.52.8,2.468,2.468,0,0,1,.964,1.96,2.571,2.571,0,0,1-.588,1.715,1.909,1.909,0,0,1-1.531.7A2.107,2.107,0,0,1,49.1,5.361a2.105,2.105,0,0,1,.2-.952,1.749,1.749,0,0,1,.523-.657A1.884,1.884,0,0,0,49.29,3.7q-1.749,0-3.084,2.116a11.739,11.739,0,0,0-1.558,6.4v10.23H47.92a.451.451,0,0,1,.333.148.55.55,0,0,1,.151.417c0,.373-.162.56-.484.56-.519-.035-1.241-.072-2.17-.106s-1.655-.053-2.174-.053H42.37q-1.958,0-2.707.038c-.5.028-1.048.07-1.639.121a.462.462,0,0,1-.333-.145.553.553,0,0,1-.148-.415c0-.378.158-.565.481-.565H41.3V3.807l-3.272.024a.444.444,0,0,1-.333-.149.538.538,0,0,1-.148-.415c0-.373.158-.561.481-.561.5.036,1.1.065,1.8.094s1.27.039,1.716.039a14.088,14.088,0,0,0,1.585-.1c.588-.071.938-.11,1.045-.11.323,0,.481.225.481.671Z"/><path class="cls-1" d="M47.92,23.776h-.013c-.519-.035-1.239-.071-2.166-.1-.875-.034-1.622-.052-2.165-.052H42.37c-1.279,0-2.186.012-2.7.037s-1.042.069-1.631.12h-.005a.67.67,0,0,1-.491-.2.756.756,0,0,1-.21-.561c0-.491.25-.771.688-.771h3.065V4.015l-3.062.023a.665.665,0,0,1-.487-.213.744.744,0,0,1-.2-.558c0-.487.25-.768.688-.768.516.038,1.112.067,1.8.095.637.026,1.212.038,1.708.038a13.507,13.507,0,0,0,1.561-.1c.68-.082.962-.111,1.069-.111.258,0,.688.114.688.878V5.518a7.282,7.282,0,0,1,1.751-2.139A5.018,5.018,0,0,1,49.854,2.1a4.03,4.03,0,0,1,2.651.852,2.672,2.672,0,0,1,1.04,2.118,2.785,2.785,0,0,1-.637,1.848,2.11,2.11,0,0,1-1.689.771A2.313,2.313,0,0,1,48.9,5.361a2.314,2.314,0,0,1,.223-1.044,2.086,2.086,0,0,1,.258-.411H49.29c-1.1,0-2.05.66-2.909,2.019a11.6,11.6,0,0,0-1.526,6.29V22.239H47.92a.655.655,0,0,1,.481.212.735.735,0,0,1,.209.559C48.61,23.5,48.358,23.776,47.92,23.776Zm-9.9-1.124c-.145,0-.274.027-.274.358a.352.352,0,0,0,.086.267.255.255,0,0,0,.188.086c.575-.05,1.125-.092,1.627-.12.519-.025,1.435-.039,2.719-.039h1.206c.546,0,1.3.019,2.181.054q1.39.051,2.168.105c.145,0,.271-.031.271-.353a.35.35,0,0,0-.085-.268.256.256,0,0,0-.191-.09H44.441V12.215A12,12,0,0,1,46.032,5.7a3.947,3.947,0,0,1,3.258-2.21,2.02,2.02,0,0,1,.6.063l.371.126-.314.235a1.537,1.537,0,0,0-.462.582,1.921,1.921,0,0,0-.18.862,1.845,1.845,0,0,0,.556,1.355,1.814,1.814,0,0,0,1.354.556,1.686,1.686,0,0,0,1.372-.623,2.368,2.368,0,0,0,.54-1.582,2.251,2.251,0,0,0-.889-1.8,3.634,3.634,0,0,0-2.388-.755A4.616,4.616,0,0,0,46.87,3.7a7.056,7.056,0,0,0-2.031,2.816l-.4.968V3.3c0-.465-.177-.465-.274-.465s-.553.052-1.021.109a14.159,14.159,0,0,1-1.609.107c-.5,0-1.082-.014-1.724-.041-.7-.028-1.3-.058-1.806-.094-.128,0-.257.028-.257.356a.335.335,0,0,0,.08.265.262.262,0,0,0,.194.092L41.5,3.6V22.652Z"/><path class="cls-1" d="M44.648,6.433a7.263,7.263,0,0,1,2.09-2.9A4.8,4.8,0,0,1,49.854,2.3a3.809,3.809,0,0,1,2.52.8,2.468,2.468,0,0,1,.964,1.96,2.571,2.571,0,0,1-.588,1.715,1.909,1.909,0,0,1-1.531.7A2.107,2.107,0,0,1,49.1,5.361a2.105,2.105,0,0,1,.2-.952,1.749,1.749,0,0,1,.523-.657A1.884,1.884,0,0,0,49.29,3.7q-1.749,0-3.084,2.116a11.739,11.739,0,0,0-1.558,6.4v10.23H47.92a.451.451,0,0,1,.333.148.55.55,0,0,1,.151.417c0,.373-.162.56-.484.56-.519-.035-1.241-.072-2.17-.106s-1.655-.053-2.174-.053H42.37q-1.958,0-2.707.038c-.5.028-1.048.07-1.639.121a.462.462,0,0,1-.333-.145.553.553,0,0,1-.148-.415c0-.378.158-.565.481-.565H41.3V3.807l-3.272.024a.444.444,0,0,1-.333-.149.538.538,0,0,1-.148-.415c0-.373.158-.561.481-.561.5.036,1.1.065,1.8.094s1.27.039,1.716.039a14.088,14.088,0,0,0,1.585-.1c.588-.071.938-.11,1.045-.11.323,0,.481.225.481.671Z"/><path class="cls-1" d="M47.92,23.776h-.013c-.519-.035-1.239-.071-2.166-.1-.875-.034-1.622-.052-2.165-.052H42.37c-1.279,0-2.186.012-2.7.037s-1.042.069-1.631.12h-.005a.67.67,0,0,1-.491-.2.756.756,0,0,1-.21-.561c0-.491.25-.771.688-.771h3.065V4.015l-3.062.023a.665.665,0,0,1-.487-.213.744.744,0,0,1-.2-.558c0-.487.25-.768.688-.768.516.038,1.112.067,1.8.095.637.026,1.212.038,1.708.038a13.507,13.507,0,0,0,1.561-.1c.68-.082.962-.111,1.069-.111.258,0,.688.114.688.878V5.518a7.282,7.282,0,0,1,1.751-2.139A5.018,5.018,0,0,1,49.854,2.1a4.03,4.03,0,0,1,2.651.852,2.672,2.672,0,0,1,1.04,2.118,2.785,2.785,0,0,1-.637,1.848,2.11,2.11,0,0,1-1.689.771A2.313,2.313,0,0,1,48.9,5.361a2.314,2.314,0,0,1,.223-1.044,2.086,2.086,0,0,1,.258-.411H49.29c-1.1,0-2.05.66-2.909,2.019a11.6,11.6,0,0,0-1.526,6.29V22.239H47.92a.655.655,0,0,1,.481.212.735.735,0,0,1,.209.559C48.61,23.5,48.358,23.776,47.92,23.776Zm-9.9-1.124c-.145,0-.274.027-.274.358a.352.352,0,0,0,.086.267.255.255,0,0,0,.188.086c.575-.05,1.125-.092,1.627-.12.519-.025,1.435-.039,2.719-.039h1.206c.546,0,1.3.019,2.181.054q1.39.051,2.168.105c.145,0,.271-.031.271-.353a.35.35,0,0,0-.085-.268.256.256,0,0,0-.191-.09H44.441V12.215A12,12,0,0,1,46.032,5.7a3.947,3.947,0,0,1,3.258-2.21,2.02,2.02,0,0,1,.6.063l.371.126-.314.235a1.537,1.537,0,0,0-.462.582,1.921,1.921,0,0,0-.18.862,1.845,1.845,0,0,0,.556,1.355,1.814,1.814,0,0,0,1.354.556,1.686,1.686,0,0,0,1.372-.623,2.368,2.368,0,0,0,.54-1.582,2.251,2.251,0,0,0-.889-1.8,3.634,3.634,0,0,0-2.388-.755A4.616,4.616,0,0,0,46.87,3.7a7.056,7.056,0,0,0-2.031,2.816l-.4.968V3.3c0-.465-.177-.465-.274-.465s-.553.052-1.021.109a14.159,14.159,0,0,1-1.609.107c-.5,0-1.082-.014-1.724-.041-.7-.028-1.3-.058-1.806-.094-.128,0-.257.028-.257.356a.335.335,0,0,0,.08.265.262.262,0,0,0,.194.092L41.5,3.6V22.652Z"/><path class="cls-1" d="M96.783,9.142h8.58a6.345,6.345,0,0,0,.268-1.049,5.609,5.609,0,0,0,.081-.858,4.364,4.364,0,0,0-1.179-3.19,3.7,3.7,0,0,0-2.762-1.1A4.14,4.14,0,0,0,98.6,4.2a8.671,8.671,0,0,0-1.821,4.939m-.137,1.339L96.6,12.568q0,4.82,1.4,7.158a4.525,4.525,0,0,0,4.127,2.341,5.167,5.167,0,0,0,3.43-1.105,7.235,7.235,0,0,0,2.071-3.352,1.775,1.775,0,0,1,.215-.467.421.421,0,0,1,.37-.2.646.646,0,0,1,.444.158.5.5,0,0,1,.172.375,1.919,1.919,0,0,1-.081.52c-.054.186-.088.307-.105.359a7.922,7.922,0,0,1-3.075,3.981,7.453,7.453,0,0,1-4.035,1.043,7.7,7.7,0,0,1-6.12-2.842,11.839,11.839,0,0,1-2.567-7.98,11.936,11.936,0,0,1,2.572-7.822,7.422,7.422,0,0,1,5.9-3,6.779,6.779,0,0,1,5.71,2.574,9.769,9.769,0,0,1,1.8,6.168Z"/><path class="cls-1" d="M101.527,23.589a7.926,7.926,0,0,1-6.275-2.915,12.07,12.07,0,0,1-2.619-8.114,12.163,12.163,0,0,1,2.621-7.952,7.644,7.644,0,0,1,6.061-3.076,7.006,7.006,0,0,1,5.874,2.655,10.021,10.021,0,0,1,1.84,6.294v.207H96.847L96.8,12.574c0,3.152.459,5.525,1.37,7.046a4.291,4.291,0,0,0,3.949,2.24,4.979,4.979,0,0,0,3.3-1.057,7.056,7.056,0,0,0,2.006-3.257,2.091,2.091,0,0,1,.24-.519.762.762,0,0,1,1.122-.076.706.706,0,0,1,.242.528,2.09,2.09,0,0,1-.089.576c-.053.189-.091.311-.107.364a8.164,8.164,0,0,1-3.164,4.1A7.683,7.683,0,0,1,101.527,23.589Zm-.212-21.644a7.252,7.252,0,0,0-5.743,2.924,11.777,11.777,0,0,0-2.526,7.691,11.681,11.681,0,0,0,2.517,7.845,7.538,7.538,0,0,0,5.964,2.77,7.28,7.28,0,0,0,3.924-1.01,7.774,7.774,0,0,0,3-3.883c.011-.036.043-.156.1-.34a1.71,1.71,0,0,0,.073-.463.3.3,0,0,0-.105-.225c-.132-.115-.384-.177-.5,0a1.564,1.564,0,0,0-.19.415,7.445,7.445,0,0,1-2.136,3.447,5.381,5.381,0,0,1-3.561,1.154,4.741,4.741,0,0,1-4.3-2.442c-.948-1.586-1.429-4.029-1.429-7.264l.056-2.294h12.172a9.49,9.49,0,0,0-1.755-5.835A6.609,6.609,0,0,0,101.315,1.945Zm4.2,7.4H96.552l.027-.231a8.87,8.87,0,0,1,1.875-5.056,4.349,4.349,0,0,1,3.317-1.325A3.908,3.908,0,0,1,104.68,3.9a4.58,4.58,0,0,1,1.239,3.334,6.026,6.026,0,0,1-.084.89,6.7,6.7,0,0,1-.276,1.084Zm-8.493-.414h8.2a5.792,5.792,0,0,0,.212-.875,5.551,5.551,0,0,0,.078-.825,4.136,4.136,0,0,0-1.12-3.047,3.515,3.515,0,0,0-2.614-1.038,3.958,3.958,0,0,0-3.016,1.194A8.275,8.275,0,0,0,97.017,8.935Z"/><path class="cls-1" d="M96.783,9.142h8.58a6.345,6.345,0,0,0,.268-1.049,5.609,5.609,0,0,0,.081-.858,4.364,4.364,0,0,0-1.179-3.19,3.7,3.7,0,0,0-2.762-1.1A4.14,4.14,0,0,0,98.6,4.2,8.671,8.671,0,0,0,96.783,9.142Zm-.137,1.339L96.6,12.568q0,4.82,1.4,7.158a4.525,4.525,0,0,0,4.127,2.341,5.167,5.167,0,0,0,3.43-1.105,7.235,7.235,0,0,0,2.071-3.352,1.775,1.775,0,0,1,.215-.467.421.421,0,0,1,.37-.2.646.646,0,0,1,.444.158.5.5,0,0,1,.172.375,1.919,1.919,0,0,1-.081.52c-.054.186-.088.307-.105.359a7.922,7.922,0,0,1-3.075,3.981,7.453,7.453,0,0,1-4.035,1.043,7.7,7.7,0,0,1-6.12-2.842,11.839,11.839,0,0,1-2.567-7.98,11.936,11.936,0,0,1,2.572-7.822,7.422,7.422,0,0,1,5.9-3,6.779,6.779,0,0,1,5.71,2.574,9.769,9.769,0,0,1,1.8,6.168Z"/><path class="cls-1" d="M101.527,23.589a7.926,7.926,0,0,1-6.275-2.915,12.07,12.07,0,0,1-2.619-8.114,12.163,12.163,0,0,1,2.621-7.952,7.644,7.644,0,0,1,6.061-3.076,7.006,7.006,0,0,1,5.874,2.655,10.021,10.021,0,0,1,1.84,6.294v.207H96.847L96.8,12.574c0,3.152.459,5.525,1.37,7.046a4.291,4.291,0,0,0,3.949,2.24,4.979,4.979,0,0,0,3.3-1.057,7.056,7.056,0,0,0,2.006-3.257,2.091,2.091,0,0,1,.24-.519.762.762,0,0,1,1.122-.076.706.706,0,0,1,.242.528,2.09,2.09,0,0,1-.089.576c-.053.189-.091.311-.107.364a8.164,8.164,0,0,1-3.164,4.1A7.683,7.683,0,0,1,101.527,23.589Zm-.212-21.644a7.252,7.252,0,0,0-5.743,2.924,11.777,11.777,0,0,0-2.526,7.691,11.681,11.681,0,0,0,2.517,7.845,7.538,7.538,0,0,0,5.964,2.77,7.28,7.28,0,0,0,3.924-1.01,7.774,7.774,0,0,0,3-3.883c.011-.036.043-.156.1-.34a1.71,1.71,0,0,0,.073-.463.3.3,0,0,0-.105-.225c-.132-.115-.384-.177-.5,0a1.564,1.564,0,0,0-.19.415,7.445,7.445,0,0,1-2.136,3.447,5.381,5.381,0,0,1-3.561,1.154,4.741,4.741,0,0,1-4.3-2.442c-.948-1.586-1.429-4.029-1.429-7.264l.056-2.294h12.172a9.49,9.49,0,0,0-1.755-5.835A6.609,6.609,0,0,0,101.315,1.945Zm4.2,7.4H96.552l.027-.231a8.87,8.87,0,0,1,1.875-5.056,4.349,4.349,0,0,1,3.317-1.325A3.908,3.908,0,0,1,104.68,3.9a4.58,4.58,0,0,1,1.239,3.334,6.026,6.026,0,0,1-.084.89,6.7,6.7,0,0,1-.276,1.084Zm-8.493-.414h8.2a5.792,5.792,0,0,0,.212-.875,5.551,5.551,0,0,0,.078-.825,4.136,4.136,0,0,0-1.12-3.047,3.515,3.515,0,0,0-2.614-1.038,3.958,3.958,0,0,0-3.016,1.194A8.275,8.275,0,0,0,97.017,8.935Z"/><path class="cls-1" d="M71.637,28.89a3.848,3.848,0,0,1-6.5-.117,12.548,12.548,0,0,1-.991-5.378,8,8,0,0,0,4.6-2.865,11.7,11.7,0,0,0,2.547-7.782,11.7,11.7,0,0,0-2.547-7.782,7.9,7.9,0,0,0-12.458,0,11.745,11.745,0,0,0-2.536,7.782A11.84,11.84,0,0,0,56.33,20.6,7.857,7.857,0,0,0,60.943,23.4a9.443,9.443,0,0,0,2.16,5.675,6.783,6.783,0,0,0,5.34,2.486,5.757,5.757,0,0,0,4.2-1.993C73.638,28.382,72.488,27.591,71.637,28.89ZM58.689,20.232q-1.185-2.206-1.182-7.484,0-5.223,1.209-7.459a4.377,4.377,0,0,1,7.629-.013q1.192,2.222,1.2,7.472t-1.208,7.47a4.4,4.4,0,0,1-7.643.014Z"/><path class="cls-1" d="M68.443,31.772a7,7,0,0,1-5.5-2.558,9.615,9.615,0,0,1-2.2-5.639,8.116,8.116,0,0,1-4.577-2.843,12.089,12.089,0,0,1-2.627-7.984,11.993,11.993,0,0,1,2.584-7.913,8.109,8.109,0,0,1,12.776,0A11.958,11.958,0,0,1,71.5,12.748a11.962,11.962,0,0,1-2.595,7.915,8.269,8.269,0,0,1-4.548,2.9,12.114,12.114,0,0,0,.959,5.114,3.643,3.643,0,0,0,6.144.109,1.446,1.446,0,0,1,1.109-.769.643.643,0,0,1,.6.37,1.306,1.306,0,0,1-.365,1.321C71.519,30.884,70.4,31.772,68.443,31.772ZM62.522,2.134A7.663,7.663,0,0,0,56.446,5.1a11.59,11.59,0,0,0-2.487,7.65,11.687,11.687,0,0,0,2.53,7.719A7.7,7.7,0,0,0,60.983,23.2l.156.03.011.158a9.275,9.275,0,0,0,2.109,5.555,6.609,6.609,0,0,0,5.184,2.414c1.808,0,2.823-.8,4.059-1.939.322-.387.36-.709.287-.862a.224.224,0,0,0-.22-.131c-.092,0-.408.041-.76.576a4.052,4.052,0,0,1-6.853-.131A12.539,12.539,0,0,1,63.938,23.4l0-.174.169-.035a7.828,7.828,0,0,0,4.483-2.8,11.558,11.558,0,0,0,2.5-7.649,11.556,11.556,0,0,0-2.5-7.649A7.663,7.663,0,0,0,62.522,2.134Zm0,20.514a4.23,4.23,0,0,1-4.016-2.319c-.8-1.49-1.206-4.04-1.206-7.581,0-3.5.417-6.044,1.233-7.558a4.585,4.585,0,0,1,7.994-.012c.809,1.507,1.22,4.054,1.22,7.57s-.416,6.058-1.233,7.569A4.248,4.248,0,0,1,62.522,22.648Zm0-19.389A3.806,3.806,0,0,0,58.9,5.386c-.787,1.454-1.185,3.931-1.185,7.362,0,3.471.389,5.957,1.158,7.386a4.2,4.2,0,0,0,7.28-.014c.784-1.45,1.182-3.931,1.182-7.372s-.393-5.928-1.172-7.374A3.8,3.8,0,0,0,62.522,3.259Z"/><path class="cls-1" d="M89.39,20.675a2.554,2.554,0,0,0,.189,1.181.663.663,0,0,0,.614.321.932.932,0,0,0,.793-.434c.207-.291.406-.567.6-.831a.518.518,0,0,1,.347-.184.731.731,0,0,1,.5.173.554.554,0,0,1,.2.443.991.991,0,0,1-.323.723,3.868,3.868,0,0,1-1.609.994,4.524,4.524,0,0,1-1.448.241,3.042,3.042,0,0,1-2.335-.952,3.849,3.849,0,0,1-.883-2.722V17.644a9.966,9.966,0,0,1-2.413,3.862,5.614,5.614,0,0,1-3.919,1.876,4.528,4.528,0,0,1-4.128-2.145A10.072,10.072,0,0,1,74.4,15.9V3.294l-3.274.027a.466.466,0,0,1-.333-.145.573.573,0,0,1-.148-.415c0-.378.164-.564.481-.564q.753.053,1.8.092c.7.029,1.271.042,1.716.042a13.857,13.857,0,0,0,1.585-.108q.884-.109,1.045-.11c.323,0,.484.226.484.672V17.672a6.425,6.425,0,0,0,.6,3.229,2.161,2.161,0,0,0,2,.979q2.115,0,3.9-2.869a12.7,12.7,0,0,0,1.784-6.838V3.294l-3.272.027a.476.476,0,0,1-.336-.145.563.563,0,0,1-.145-.415c0-.378.158-.564.481-.564q.748.053,1.8.092c.7.029,1.271.042,1.716.042a13.931,13.931,0,0,0,1.585-.108c.588-.073.938-.11,1.045-.11.317,0,.481.226.481.672Z"/><path class="cls-1" d="M79.706,23.589a4.74,4.74,0,0,1-4.3-2.243A10.314,10.314,0,0,1,74.192,15.9V3.5l-3.066.026a.679.679,0,0,1-.481-.206.787.787,0,0,1-.209-.561c0-.491.25-.771.688-.771.516.036,1.112.067,1.805.094s1.257.04,1.708.04A13.349,13.349,0,0,0,76.2,2.018a10.642,10.642,0,0,1,1.069-.112c.207,0,.69.086.69.879V17.672a6.308,6.308,0,0,0,.572,3.12,1.957,1.957,0,0,0,1.825.881c1.33,0,2.581-.932,3.726-2.771a12.564,12.564,0,0,0,1.751-6.729V3.5l-3.063.026a.679.679,0,0,1-.48-.2.762.762,0,0,1-.21-.564c0-.491.25-.771.688-.771.513.036,1.11.067,1.8.094s1.257.04,1.708.04a13.432,13.432,0,0,0,1.561-.106,10.642,10.642,0,0,1,1.069-.112c.207,0,.688.086.688.879v17.89a2.334,2.334,0,0,0,.159,1.078.461.461,0,0,0,.437.217.722.722,0,0,0,.624-.347c.21-.292.408-.569.609-.835a.73.73,0,0,1,.511-.267.934.934,0,0,1,.631.224.753.753,0,0,1,.274.6,1.193,1.193,0,0,1-.384.871,4.106,4.106,0,0,1-1.69,1.042,4.776,4.776,0,0,1-1.512.252,3.248,3.248,0,0,1-2.485-1.018,4.056,4.056,0,0,1-.94-2.863v-.916a10.191,10.191,0,0,1-2.06,2.94A5.849,5.849,0,0,1,79.706,23.589Zm-5.1-20.5V15.9a9.938,9.938,0,0,0,1.147,5.226,4.3,4.3,0,0,0,3.954,2.048,5.447,5.447,0,0,0,3.775-1.816,9.77,9.77,0,0,0,2.36-3.782l.4-1.177v3.228a3.671,3.671,0,0,0,.827,2.581,2.856,2.856,0,0,0,2.184.887,4.319,4.319,0,0,0,1.383-.231,3.675,3.675,0,0,0,1.524-.941.792.792,0,0,0,.266-.58.353.353,0,0,0-.13-.287.525.525,0,0,0-.362-.123c-.019,0-.086.008-.2.124-.177.24-.376.515-.58.8a1.136,1.136,0,0,1-.962.521.875.875,0,0,1-.792-.422,2.685,2.685,0,0,1-.217-1.287V2.785c0-.465-.186-.465-.275-.465-.045,0-.239.009-1.018.108a14.377,14.377,0,0,1-1.612.11c-.456,0-1.036-.015-1.724-.043s-1.3-.058-1.8-.093c-.132,0-.261.028-.261.359a.366.366,0,0,0,.083.268.269.269,0,0,0,.191.085l3.479-.028v9.087a12.954,12.954,0,0,1-1.816,6.947c-1.223,1.969-2.593,2.967-4.075,2.967a2.36,2.36,0,0,1-2.174-1.079,6.539,6.539,0,0,1-.636-3.336V2.785c0-.465-.18-.465-.277-.465-.045,0-.239.009-1.018.108a14.3,14.3,0,0,1-1.612.11c-.456,0-1.037-.015-1.724-.043s-1.3-.058-1.8-.093c-.126,0-.26.028-.26.359a.376.376,0,0,0,.088.271.263.263,0,0,0,.186.082Z"/><path class="cls-1" d="M89.39,20.675a2.554,2.554,0,0,0,.189,1.181.663.663,0,0,0,.614.321.932.932,0,0,0,.793-.434c.207-.291.406-.567.6-.831a.518.518,0,0,1,.347-.184.731.731,0,0,1,.5.173.554.554,0,0,1,.2.443.991.991,0,0,1-.323.723,3.868,3.868,0,0,1-1.609.994,4.524,4.524,0,0,1-1.448.241,3.042,3.042,0,0,1-2.335-.952,3.849,3.849,0,0,1-.883-2.722V17.644a9.966,9.966,0,0,1-2.413,3.862,5.614,5.614,0,0,1-3.919,1.876,4.528,4.528,0,0,1-4.128-2.145A10.072,10.072,0,0,1,74.4,15.9V3.294l-3.274.027a.466.466,0,0,1-.333-.145.573.573,0,0,1-.148-.415c0-.378.164-.564.481-.564q.753.053,1.8.092c.7.029,1.271.042,1.716.042a13.857,13.857,0,0,0,1.585-.108q.884-.109,1.045-.11c.323,0,.484.226.484.672V17.672a6.425,6.425,0,0,0,.6,3.229,2.161,2.161,0,0,0,2,.979q2.115,0,3.9-2.869a12.7,12.7,0,0,0,1.784-6.838V3.294l-3.272.027a.476.476,0,0,1-.336-.145.563.563,0,0,1-.145-.415c0-.378.158-.564.481-.564q.748.053,1.8.092c.7.029,1.271.042,1.716.042a13.931,13.931,0,0,0,1.585-.108c.588-.073.938-.11,1.045-.11.317,0,.481.226.481.672Z"/><path class="cls-1" d="M79.706,23.589a4.74,4.74,0,0,1-4.3-2.243A10.314,10.314,0,0,1,74.192,15.9V3.5l-3.066.026a.679.679,0,0,1-.481-.206.787.787,0,0,1-.209-.561c0-.491.25-.771.688-.771.516.036,1.112.067,1.805.094s1.257.04,1.708.04A13.349,13.349,0,0,0,76.2,2.018a10.642,10.642,0,0,1,1.069-.112c.207,0,.69.086.69.879V17.672a6.308,6.308,0,0,0,.572,3.12,1.957,1.957,0,0,0,1.825.881c1.33,0,2.581-.932,3.726-2.771a12.564,12.564,0,0,0,1.751-6.729V3.5l-3.063.026a.679.679,0,0,1-.48-.2.762.762,0,0,1-.21-.564c0-.491.25-.771.688-.771.513.036,1.11.067,1.8.094s1.257.04,1.708.04a13.432,13.432,0,0,0,1.561-.106,10.642,10.642,0,0,1,1.069-.112c.207,0,.688.086.688.879v17.89a2.334,2.334,0,0,0,.159,1.078.461.461,0,0,0,.437.217.722.722,0,0,0,.624-.347c.21-.292.408-.569.609-.835a.73.73,0,0,1,.511-.267.934.934,0,0,1,.631.224.753.753,0,0,1,.274.6,1.193,1.193,0,0,1-.384.871,4.106,4.106,0,0,1-1.69,1.042,4.776,4.776,0,0,1-1.512.252,3.248,3.248,0,0,1-2.485-1.018,4.056,4.056,0,0,1-.94-2.863v-.916a10.191,10.191,0,0,1-2.06,2.94A5.849,5.849,0,0,1,79.706,23.589Zm-5.1-20.5V15.9a9.938,9.938,0,0,0,1.147,5.226,4.3,4.3,0,0,0,3.954,2.048,5.447,5.447,0,0,0,3.775-1.816,9.77,9.77,0,0,0,2.36-3.782l.4-1.177v3.228a3.671,3.671,0,0,0,.827,2.581,2.856,2.856,0,0,0,2.184.887,4.319,4.319,0,0,0,1.383-.231,3.675,3.675,0,0,0,1.524-.941.792.792,0,0,0,.266-.58.353.353,0,0,0-.13-.287.525.525,0,0,0-.362-.123c-.019,0-.086.008-.2.124-.177.24-.376.515-.58.8a1.136,1.136,0,0,1-.962.521.875.875,0,0,1-.792-.422,2.685,2.685,0,0,1-.217-1.287V2.785c0-.465-.186-.465-.275-.465-.045,0-.239.009-1.018.108a14.377,14.377,0,0,1-1.612.11c-.456,0-1.036-.015-1.724-.043s-1.3-.058-1.8-.093c-.132,0-.261.028-.261.359a.366.366,0,0,0,.083.268.269.269,0,0,0,.191.085l3.479-.028v9.087a12.954,12.954,0,0,1-1.816,6.947c-1.223,1.969-2.593,2.967-4.075,2.967a2.36,2.36,0,0,1-2.174-1.079,6.539,6.539,0,0,1-.636-3.336V2.785c0-.465-.18-.465-.277-.465-.045,0-.239.009-1.018.108a14.3,14.3,0,0,1-1.612.11c-.456,0-1.037-.015-1.724-.043s-1.3-.058-1.8-.093c-.126,0-.26.028-.26.359a.376.376,0,0,0,.088.271.263.263,0,0,0,.186.082Z"/></g></g></svg>