<svg xmlns="http://www.w3.org/2000/svg" viewBox="0 0 297.786 99.608"><defs><style>.cls-1{fill:#999;}</style></defs><title>ivessRecurso 3</title><g id="Capa_2" data-name="Capa 2"><g id="Capa_1-2" data-name="Capa 1"><path class="cls-1" d="M23.051,1.263h8.921a9.255,9.255,0,0,1,9.255,9.255V63.465a0,0,0,0,1,0,0H33.692A10.641,10.641,0,0,1,23.051,52.824V1.263A0,0,0,0,1,23.051,1.263Z"/><path class="cls-1" d="M43.256,1.263H53.3A13.3,13.3,0,0,1,65.781,9.969L76.695,39.643,90.459,1.263h8.416a7.5,7.5,0,0,1,6.947,10.342L84.85,62.953H68.273Z"/><path class="cls-1" d="M212.585,18.418A30.538,30.538,0,0,0,199.4,12.5c-6.9-1.149-11.959.161-12.517,3.794-.635,4.132,4.715,5.91,10.226,7.769s13.886,3.76,17.71,9.805a17.5,17.5,0,0,1,1.548,15.761c-2.321,5.789-5.89,11.868-20.433,14.125s-23.394-4.032-25.187-6.555,0-7.5,1.129-9.326l1.128-1.83s7.334,4.35,14.639,4.948,11.842,0,12.465-3.975c.67-4.277-4.925-6.669-11.432-8.934s-17.6-5.785-18.328-16.476S176.594,4.075,188.481,1.95a40.886,40.886,0,0,1,24.038,2.656c3.652,1.594,4.449,3.52,3.652,7.238A15.246,15.246,0,0,1,212.585,18.418Z"/><path class="cls-1" d="M263.688,18.418A30.545,30.545,0,0,0,250.507,12.5c-6.9-1.149-11.96.161-12.518,3.794-.634,4.132,4.715,5.91,10.227,7.769s13.886,3.76,17.709,9.805a17.5,17.5,0,0,1,1.548,15.761c-2.32,5.789-5.89,11.868-20.432,14.125s-23.4-4.032-25.188-6.555,0-7.5,1.129-9.326l1.129-1.83s7.334,4.35,14.638,4.948,11.843,0,12.466-3.975c.669-4.277-4.925-6.669-11.433-8.934s-17.6-5.785-18.327-16.476S227.7,4.075,239.583,1.95a40.886,40.886,0,0,1,24.038,2.656c3.653,1.594,4.45,3.52,3.653,7.238A15.246,15.246,0,0,1,263.688,18.418Z"/><path class="cls-1" d="M165.387,30.553C165.387,13.679,152.108,0,135.727,0s-29.66,13.679-29.66,30.553c0,.318.006.634.016.949-.009.288-.016.576-.016.867,0,17.539,13.813,32.078,32.813,32.078a42.282,42.282,0,0,0,20.885-5.784,8.534,8.534,0,0,0,1.86-12.823l-2.78-3.2c-3.489,5.306-11.213,8.53-17.262,8.287-11.559-.465-16.06-7.375-16.592-17.224H165.23A31.543,31.543,0,0,0,165.387,30.553ZM147.7,23.647H126.052a.911.911,0,0,1-.883-1.127c1.5-6.3,6.159-10.894,11.681-10.894,5.541,0,10.217,4.627,11.7,10.96A.868.868,0,0,1,147.7,23.647Z"/><path class="cls-1" d="M180.454,70.267c33.367-4.064,75.467.2,101.917,10.8-12.231-9.457-33.486-19.217-69.558-20.363C158.805,58.99,141.57,71.69,76.887,72.148S0,55.977,0,55.977a53.731,53.731,0,0,0,8.942,12.9C16,72.588,34.336,80.12,68.589,81.287,114.337,82.845,145.726,74.5,180.454,70.267Z"/><path class="cls-1" d="M122.574,85.071c-22.6,3.117-47.753,4.463-76.8.111A106.859,106.859,0,0,1,16.3,75.864,72.222,72.222,0,0,0,45.766,90.149c17.431,4.106,46.377,7.476,78.108,2.594s63.462-10.109,110.754-8.736,63.158,15.6,63.158,15.6-1.708-4.82-7.322-11.07c-15.287-6.254-38.241-13.386-64.151-13.819C179.675,73.94,145.169,81.954,122.574,85.071Z"/></g></g></svg>