<svg xmlns="http://www.w3.org/2000/svg" viewBox="0 0 157.827 77.214"><defs><style>.cls-1{fill:#9b9b9b;}</style></defs><title>marcaRecurso 13</title><g id="Capa_2" data-name="Capa 2"><g id="Capa_1-2" data-name="Capa 1"><path id="Trazado_240" data-name="Trazado 240" class="cls-1" d="M8.451,68.538a1.147,1.147,0,1,1-.1-2.292h3.828l8.086-8.662H13.6L5.516,66.241V57.584H0V77.2H5.516V68.543L13.6,77.2h6.67l-8.086-8.662Z"/><rect id="Rectángulo_36" data-name="Rectángulo 36" class="cls-1" x="152.31" y="57.584" width="5.517" height="19.616"/><path id="Trazado_241" data-name="Trazado 241" class="cls-1" d="M139.558,68.538a1.147,1.147,0,1,1-.1-2.292h3.828l8.086-8.662h-6.669l-8.083,8.657V57.584h-5.516V77.2h5.516V68.543l8.083,8.657h6.669l-8.086-8.662Z"/><path id="Trazado_242" data-name="Trazado 242" class="cls-1" d="M37.349,77.2h6.67l-6.754-7.234a6.34,6.34,0,0,0-1.892-12.388v.009H22.061v5.175H35.372v.013a1.147,1.147,0,0,1,0,2.294V65.1H22.061V77.2h5.516V70.269h3.3Z"/><path id="Trazado_243" data-name="Trazado 243" class="cls-1" d="M58.271,57.584V71.743H51.848A1.9,1.9,0,0,1,50,69.8V57.585H43.341V62.76H44.48V70.3h-.006a6.924,6.924,0,0,0,6.919,6.919v-.009h12.4V57.584Z"/><path id="Trazado_244" data-name="Trazado 244" class="cls-1" d="M82.1,57.584H74.746v5.175H80.1v8.985H72.678A1.9,1.9,0,0,1,70.826,69.8V68.159H65.31v2.135H65.3a6.924,6.924,0,0,0,6.919,6.919V77.2H85.614V57.584Z"/><path id="Trazado_245" data-name="Trazado 245" class="cls-1" d="M107.71,72.172v-.034h0V62.633h0a5.112,5.112,0,0,0-4.957-5.032v-.008H92.618v-.009a5.18,5.18,0,0,0-5.175,5.175h0V72.2h.008a5.178,5.178,0,0,0,5.166,5v0h10.022v0a.67.67,0,0,0,.1,0h.142v-.007A5.059,5.059,0,0,0,107.7,72.3h.006Zm-13.574-.495c-.82,0-1.166-.151-1.166-.972v-6.44c0-.82.151-1.214.972-1.214h7.369c.673.028,1,.215,1,.955h0v6.715c-.008.752-.167.957-.949.957Z"/><path id="Trazado_246" data-name="Trazado 246" class="cls-1" d="M129.562,72.173v-.034h0V68.614h-.009a5.074,5.074,0,0,0-5.065-4.9v.005h-8.06c-.783,0-1.55-.036-1.55-.821h.016c0-.692.554-.911,1.245-.911h11.418V57.523H113.951a4.368,4.368,0,0,0-4.344,4.23h0v.134h0v2.476h.01a4.945,4.945,0,0,0,4.806,4.734v.028h8.591c.8,0,1.143.148,1.143.953v.38h.01v.258c-.007.755-.166.961-.949.961h-7.228c-.82,0-1.167-.151-1.167-.972v-.388h-5.513V72.2h.008a5.176,5.176,0,0,0,5.166,5v0h10.026v0a.677.677,0,0,0,.1,0h.141v-.007a5.058,5.058,0,0,0,4.81-4.891h.007Z"/><path id="Trazado_247" data-name="Trazado 247" class="cls-1" d="M78.914,0a21.143,21.143,0,1,0,21.143,21.143h0A21.143,21.143,0,0,0,78.914,0ZM77.228,22.289h3.733l8.087,8.662h-6.67L74.3,22.294V30.95H68.778V11.335h5.516v8.657l8.083-8.657h6.67L80.96,20H77.227a1.147,1.147,0,0,0,0,2.292Z"/></g></g></svg>