<svg xmlns="http://www.w3.org/2000/svg" viewBox="0 0 181.031 78.339"><defs><style>.cls-1{fill:#9b9b9b;}</style></defs><title>marcaRecurso 11</title><g id="Capa_2" data-name="Capa 2"><g id="Capa_1-2" data-name="Capa 1"><path id="Trazado_248" data-name="Trazado 248" class="cls-1" d="M85.592,16.955a1.553,1.553,0,0,1-1.318,1.757,1.537,1.537,0,0,1-.439,0q-1.6,0-3.093-3.3Q80.1,14.026,76,9.947t-4.851-4.08A2.984,2.984,0,0,0,68.78,7.2a4.079,4.079,0,0,0-1.04,2.4,2.508,2.508,0,0,0,.96,2.05,3.251,3.251,0,0,0,2.078.773,2.383,2.383,0,0,0,2.4-1.44V9.917L72.8,9.545a5.525,5.525,0,0,0-.743.64H71.044a1.562,1.562,0,0,0-.133-.348,1.354,1.354,0,0,1-.133-.559,1.253,1.253,0,0,1,.427-.772,1.174,1.174,0,0,1,.8-.454,2.3,2.3,0,0,1,1.519.7,1.865,1.865,0,0,1,.773,1.276,2.988,2.988,0,0,1-1.386,2.343,3.725,3.725,0,0,1-2.238.906,3.6,3.6,0,0,1-2.691-1.119A3.561,3.561,0,0,1,66.888,9.6,3.829,3.829,0,0,1,68.2,6.829a6.871,6.871,0,0,1,3.061-1.757l-.8-.7a1.229,1.229,0,0,1-.854.213q-1.651,0-1.652-1.757a1.562,1.562,0,0,1,.692-1.2,2.022,2.022,0,0,1,1.065-.56q1.281,0,1.545,1.436a4.687,4.687,0,0,0,.483,1.865q.48-.9,1.546-2.716A4.05,4.05,0,0,1,74.932.426,4.426,4.426,0,0,1,76.477,0a3.365,3.365,0,0,1,2.61,1.2,3.821,3.821,0,0,1,1.067,2.584,3.272,3.272,0,0,1-1.012,2.4A3.217,3.217,0,0,1,76.8,7.2a1.946,1.946,0,0,1-1.225-.531,1.663,1.663,0,0,1-.64-1.334,1.359,1.359,0,0,1,.427-.933,1.139,1.139,0,0,1,.745-.449,1.015,1.015,0,0,1,.613.213,1.257,1.257,0,0,0,.343.209,2.074,2.074,0,0,1-.586,1.442.9.9,0,0,0,.853.479,1.689,1.689,0,0,0,1.41-.746,2.61,2.61,0,0,0,.561-1.6A2.938,2.938,0,0,0,78.231,1.6,2.783,2.783,0,0,0,76.366.853,3.512,3.512,0,0,0,74,2.1a3.464,3.464,0,0,0-1.252,2.264q0,.909,4.209,5.066Q81,13.376,81.8,13.641a9.612,9.612,0,0,1,2.985,1.444,2.338,2.338,0,0,1,.8,1.865Zm0,19.4a2.513,2.513,0,0,1-1.013,2.078c-.568.249-1.384.669-2.45,1.253a32.331,32.331,0,0,0-5.49,4.744q-3.889,3.864-3.89,4.5a3.312,3.312,0,0,0,1.2,2.373,3.356,3.356,0,0,0,2.16,1.143h.906c.642,0,1.209-.427,1.707-1.279a3.345,3.345,0,0,0,.586-1.651,3.5,3.5,0,0,0-1.493-2.555H76.8l-.372.425q0,.424.636.745v1.012a1.6,1.6,0,0,0-.343.111,1.828,1.828,0,0,1-.613.1,1.073,1.073,0,0,1-.774-.483,1.435,1.435,0,0,1-.4-.9,1.653,1.653,0,0,1,.668-1.308,2.045,2.045,0,0,1,1.3-.557,2.917,2.917,0,0,1,2.562,1.329,3.8,3.8,0,0,1,.692,2.186,3.26,3.26,0,0,1-1.253,2.665,4.2,4.2,0,0,1-2.69,1.012,3.355,3.355,0,0,1-2.825-1.438q-.8-1.334-1.6-2.719c-.107.068-.267.2-.479.372a2.887,2.887,0,0,1,.158.907c0,1.2-.693,1.81-2.078,1.81-.247,0-.548-.228-.9-.69a2.077,2.077,0,0,1-.534-1.066A1.5,1.5,0,0,1,68.7,49.14a1.938,1.938,0,0,1,1.118-.427,1.139,1.139,0,0,1,.533.109.825.825,0,0,0,.321.1l.586-.53a15.792,15.792,0,0,1-3.25-1.918,3.426,3.426,0,0,1-1.119-2.667q0-3.782,4.69-3.782c.568,0,1.157.444,1.757,1.333a3.825,3.825,0,0,1,.747,1.813c0,1.383-.551,2.078-1.652,2.078a2.19,2.19,0,0,1-.613-.138,2.64,2.64,0,0,0-.773-.132.69.69,0,0,0-.133-.24.763.763,0,0,1-.133-.454,2.029,2.029,0,0,1,.749-1.223c.212,0,.528.211.955.639h.586a.362.362,0,0,0,.159-.318l-.053-.161v-.255a1.856,1.856,0,0,0-.775-1.442,2.415,2.415,0,0,0-1.517-.636,3.271,3.271,0,0,0-2.134.851,2.628,2.628,0,0,0-1.012,2.076,3.559,3.559,0,0,0,3.411,3.409q1.227,0,5.277-4.153a43.255,43.255,0,0,0,3.889-4.319,21.078,21.078,0,0,1,1.228-2.823,3.676,3.676,0,0,1,1.09-.878,2.671,2.671,0,0,1,1.2-.455,1.528,1.528,0,0,1,1.3.613,1.973,1.973,0,0,1,.455,1.146Zm32.62-4.047a2.2,2.2,0,0,1-.108.612,2.039,2.039,0,0,0-.105.557,2.9,2.9,0,0,1-1.391.266c-.991,0-2.683-.711-5.057-2.132a20.162,20.162,0,0,0-4.377-1.917,30.156,30.156,0,0,0-6.5-1.386q-2.828-.211-5.6-.482c-.316.22-.475.818-.475,1.813a31.285,31.285,0,0,0,.4,3.947,33.466,33.466,0,0,1,.4,3.514,13.944,13.944,0,0,0,1.171,3.887q.537,1.228,2.671,5.277a9.652,9.652,0,0,1,1.383,3.889c0,.783-.413,1.176-1.226,1.176q-2.242,0-3.895-2.562a13.765,13.765,0,0,1-1.967-5.277q-1.549,7.833-5.97,7.837-1.12,0-1.119-1.28a14.086,14.086,0,0,1,1.545-3.893q1.971-4.1,2.826-6.447a22.745,22.745,0,0,0,1.545-7.621V28.2a.521.521,0,0,1-.109-.213c-.036-.105-.16-.163-.371-.163a36.912,36.912,0,0,0-11.3,1.549A33.927,33.927,0,0,0,74.4,32.193a9.637,9.637,0,0,1-4.263,1.545q-1.279,0-1.279-1.33a4.643,4.643,0,0,1,1.918-3.252,8.654,8.654,0,0,1,3.358-1.863,14.7,14.7,0,0,1,2.185-.376,3.264,3.264,0,0,0,.8-.263.433.433,0,0,1-.16.05,10.136,10.136,0,0,1-4.9-1.491q-3.2-1.706-3.2-4.1,0-1.329,1.171-1.331l.639-.213a12.325,12.325,0,0,1,3.25,1.544,41.642,41.642,0,0,0,6.023,2.823,24.141,24.141,0,0,0,8.368,1.546h3.837a1.412,1.412,0,0,0,.215-.8A32.884,32.884,0,0,0,90.817,14.45,45.525,45.525,0,0,0,87.991,7.9a11.577,11.577,0,0,1-1.55-4.329c0-.923.406-1.391,1.227-1.391q2.394,0,4.156,3.094a13.7,13.7,0,0,1,1.707,5.167,12.988,12.988,0,0,1,1.651-5.22q1.7-3.042,4.1-3.039a.992.992,0,0,1,1.122.842,1.017,1.017,0,0,1,0,.281l-.055.366a4.775,4.775,0,0,1-.531,2.562,27.156,27.156,0,0,0-4.851,13.909c0,.32-.047.942-.135,1.865S94.7,23.46,94.7,23.6c-.069.566-.1.944-.1,1.118,0,.5.14.747.425.747q.321,0,3.514-.242c2.135-.157,3.284-.236,3.463-.236q2.982,0,8.448-2.611t6.263-2.611c.992,0,1.494.263,1.494.8q0,2.239-2.719,4.319a7.777,7.777,0,0,1-4.37,1.864h-.322a.566.566,0,0,0-.638.107q8.061,1.821,8.06,5.446Zm-28.727-9.7H84.634a13.787,13.787,0,0,1-5.116-1.388q-4.052-1.861-5.436-4.533v-.743a4.076,4.076,0,0,1,1.813-.48q.692,0,2.719,1.7a38.935,38.935,0,0,0,4.1,3.148,10.01,10.01,0,0,0,5.172,1.651h.586c.1-.105.16-.179.16-.213v-.427a17.853,17.853,0,0,0-1.439-4.852,10.875,10.875,0,0,0-1.867-3.249q-1.171-1.012-2.343-2.08a2.647,2.647,0,0,1-.854-2.024A3.625,3.625,0,0,1,82.82,7.2q3.2,1.332,5.17,5.969a15.422,15.422,0,0,1,1.493,5.862Zm0,11.884a16.54,16.54,0,0,1-1.6,6.233Q85.964,45.2,83.3,46.111h-.7a3.472,3.472,0,0,1-.478-1.706q0-.8,1.652-2.72a30.256,30.256,0,0,0,3.148-3.943,10.2,10.2,0,0,0,1.706-5.435v-.64l-.16-.108H88.1a11.712,11.712,0,0,0-4.319,1.225,22.535,22.535,0,0,0-3.465,1.866,11.557,11.557,0,0,0-1.439,1.52,10.877,10.877,0,0,1-1.6,1.625,3.026,3.026,0,0,1-1.5.263,4.054,4.054,0,0,1-.719-.1,4.054,4.054,0,0,0-.718-.107.862.862,0,0,1-.268-.64q0-1.329,2.562-3.25a12.92,12.92,0,0,1,2.719-1.651,31.024,31.024,0,0,1,4.8-1.226,19.835,19.835,0,0,1,3.148-.161h2.182Zm23.5-18.547V16q0,1.491-3.413,3.944-3.251,2.238-4.527,2.238c-.146,0-.722.073-1.733.215s-1.611.213-1.785.213H97.579V18.185a13.969,13.969,0,0,1,2.079-6.4q2.087-3.624,3.84-4.37h1.012a5.314,5.314,0,0,0,.11.824,6.176,6.176,0,0,1,.1.879,2.742,2.742,0,0,1-.53,1.865,22,22,0,0,0-2.928,2.663,17.842,17.842,0,0,0-3.04,8.211c0,.033.04.073.108.105h.318a11.211,11.211,0,0,0,5.6-1.651,39.97,39.97,0,0,0,4.157-3.148q2.026-1.706,2.61-1.7a8.514,8.514,0,0,1,1.971.482Zm0,21.156c-.253.639-.907.956-1.977.956-.956,0-1.921-.655-2.877-1.971a6.892,6.892,0,0,0-2.5-2.078,18.658,18.658,0,0,0-7.247-2.451l-.056-.054c-.068.036-.108.162-.108.375a16.753,16.753,0,0,0,.748,2.984,20.435,20.435,0,0,0,2.293,5.008q1.013.806,2.928,2.668a2.87,2.87,0,0,1,.53,1.865,6.162,6.162,0,0,1-.1.878c-.073.4-.125.683-.159.827h-1.177c-1.244-.469-2.522-2.027-3.833-4.694a14.574,14.574,0,0,1-1.872-6.072V30.7a80.415,80.415,0,0,1,9.064,1.226,13.607,13.607,0,0,1,6.351,5.172Zm7.191-27.395a3.2,3.2,0,0,1-1.225,2.532,3.983,3.983,0,0,1-2.614,1.04,4.038,4.038,0,0,1-3.565-3.359,1.576,1.576,0,0,1,.854-1.3,2.785,2.785,0,0,1,1.438-.559.956.956,0,0,1,.612.242,1.284,1.284,0,0,0,.345.239v1.44a.882.882,0,0,1-.641.264q-.319,0-1.01-.638c-.316.105-.48.389-.48.85a1.7,1.7,0,0,0,.748,1.415,2.6,2.6,0,0,0,1.6.559c2.056,0,3.09-.977,3.09-2.928a3.728,3.728,0,0,0-1.094-2.371,3.089,3.089,0,0,0-2.313-1.251c-.716,0-2.435,1.438-5.173,4.319a40.649,40.649,0,0,0-4.474,5.224c-.289.708-.57,1.438-.852,2.185a2.312,2.312,0,0,1-2.189,1.118,2.719,2.719,0,0,1-1.757-.9.736.736,0,0,1-.11-.429,3.664,3.664,0,0,1,.564-1.784,3.127,3.127,0,0,1,1.355-1.359,11.034,11.034,0,0,0,2.562-1.014,59.642,59.642,0,0,0,4.584-4.209q3.89-3.889,3.889-4.744a2.973,2.973,0,0,0-1.6-2.558,4.935,4.935,0,0,0-2.662-.851q-.909,0-1.655,1.223a3.425,3.425,0,0,0-.638,1.706v.321A2.8,2.8,0,0,0,109.2,6.365h1.015l.427-.427a5.383,5.383,0,0,0-.908-1.01,1.446,1.446,0,0,1,1.281-.956.961.961,0,0,1,.772.477,1.563,1.563,0,0,1,.348.9q0,1.867-1.971,1.865a2.929,2.929,0,0,1-2.453-1.171,3.379,3.379,0,0,1-.8-2.24q0-3.781,4.685-3.783.959,0,2.292,1.971a7.757,7.757,0,0,1,1.225,2.4c.321-.209.55-.868.693-1.971a1.437,1.437,0,0,1,1.524-1.344c.042,0,.084.007.126.013q1.386,0,1.385,1.972c0,1.031-.5,1.543-1.486,1.543a1.741,1.741,0,0,1-.615-.105,2.135,2.135,0,0,0-.349-.108c-.393.393-.586.624-.586.7a5.928,5.928,0,0,1,3.118,1.784,4.185,4.185,0,0,1,1.255,2.845Zm0,34.108a3.91,3.91,0,0,1-1.012,2.509,6.106,6.106,0,0,1-3.148,1.919v.318c0,.247.146.366.428.366a.632.632,0,0,0,.425-.1.5.5,0,0,1,.373-.109,1.759,1.759,0,0,1,1.251.537,1.647,1.647,0,0,1,.564,1.223q0,1.758-2.241,1.757c-.532,0-.89-.439-1.068-1.328-.035-.5-.069-1.013-.1-1.548-.111,0-.283-.146-.534-.428q-1.016,4.377-4.531,4.372a3.5,3.5,0,0,1-2.562-1.145,3.671,3.671,0,0,1-1.115-2.64,3.513,3.513,0,0,1,.958-2.291,2.826,2.826,0,0,1,2.188-1.116,1.819,1.819,0,0,1,1.515.716,2.5,2.5,0,0,1,.561,1.575.534.534,0,0,1-.135.4.456.456,0,0,0-.13.346h-.054a4.507,4.507,0,0,0-.531.055h-.536a1.258,1.258,0,0,1-.586-.11,1.789,1.789,0,0,1,.424-1.382c-.035-.463-.318-.7-.854-.7-1.313,0-1.967.838-1.967,2.5a2.633,2.633,0,0,0,1.06,2.241,2.9,2.9,0,0,0,1.977.69,3.193,3.193,0,0,0,2.451-1.327,3.471,3.471,0,0,0,1.067-2.292,10.418,10.418,0,0,0-1.784-2.269,41.526,41.526,0,0,0-3.225-3.275c-2.769-2.521-4.55-3.834-5.327-3.943a2.858,2.858,0,0,1-1.707-1.171,3.04,3.04,0,0,1-.8-1.708q0-1.866,1.6-1.866a2.869,2.869,0,0,1,2.079.906,5.7,5.7,0,0,1,1.012,1.652c.247.6.516,1.225.8,1.863a41.776,41.776,0,0,0,4,4.264q4.1,4.16,4.96,4.157a3.2,3.2,0,0,0,2.291-1.2,3.5,3.5,0,0,0,1.118-2.317q0-3.034-3.62-3.035c-.256,0-.874.5-1.866,1.489v1.28c0,.034.124.054.372.054.105,0,.372-.215.8-.639a1.357,1.357,0,0,1,1.011.531v1.172a1.757,1.757,0,0,1-1.171.267q-1.868,0-1.866-1.761a2.845,2.845,0,0,1,1.6-2.607,5.466,5.466,0,0,1,2.663-.641c.673,0,1.333.469,1.977,1.413a4.543,4.543,0,0,1,.959,2.371Z"/><path id="Trazado_249" data-name="Trazado 249" class="cls-1" d="M118.138,17.027l1.089-2.138h.211l1.1,2.138h-.359l-.278-.545h-1.127l-.274.545Zm.777-.829h.833l-.417-.816Z"/><path id="Trazado_250" data-name="Trazado 250" class="cls-1" d="M121.191,16.091v.936h-.337V14.9h1.472a.778.778,0,0,1,.512.156.546.546,0,0,1,.184.439.553.553,0,0,1-.146.395.627.627,0,0,1-.379.2l.593.94h-.366l-.6-.936Zm0-.313h1.135a.41.41,0,0,0,.265-.073.3.3,0,0,0,0-.427.416.416,0,0,0-.265-.073h-1.135Z"/><path id="Trazado_251" data-name="Trazado 251" class="cls-1" d="M0,65.029H3.188v9.9h8.6v3.049H0Z"/><path id="Trazado_252" data-name="Trazado 252" class="cls-1" d="M25.566,75.041H20.3l-1.5,2.938H15.334l6.6-12.948h1.971l6.654,12.948h-3.5Zm-3.772-2.912h2.247l-1.108-2.22Z"/><path id="Trazado_253" data-name="Trazado 253" class="cls-1" d="M58.345,75.041H53.074l-1.5,2.938H48.112l6.6-12.948H56.68l6.656,12.948H59.842Zm-3.772-2.912h2.245l-1.109-2.221Z"/><path id="Trazado_254" data-name="Trazado 254" class="cls-1" d="M68.773,65.029h3.188v9.9h8.6v3.049H68.771Z"/><path id="Trazado_255" data-name="Trazado 255" class="cls-1" d="M85.77,71.52c0-3.914,3.217-6.8,7.766-6.8,4.575,0,7.79,2.855,7.79,6.8,0,3.908-3.215,6.819-7.79,6.819C88.987,78.339,85.77,75.378,85.77,71.52Zm3.244,0c0,2.021,1.665,3.74,4.522,3.74,2.911,0,4.548-1.744,4.548-3.74s-1.663-3.747-4.548-3.747c-2.856,0-4.518,1.72-4.518,3.747Z"/><path id="Trazado_256" data-name="Trazado 256" class="cls-1" d="M111.619,70.991v6.987h-3.165V65.029h1.94l6.351,7.016V65.029h3.165V77.978h-1.939Z"/><path id="Trazado_257" data-name="Trazado 257" class="cls-1" d="M128.061,77.978V65.029h5.822c4.272,0,6.988,2.773,6.988,6.515s-2.607,6.431-6.988,6.431Zm3.189-9.9v6.848h2.662c2.523,0,3.717-1.414,3.717-3.409a3.385,3.385,0,0,0-3.312-3.456,3.427,3.427,0,0,0-.405.015Z"/><path id="Trazado_258" data-name="Trazado 258" class="cls-1" d="M155.069,72.932H151.1v5.046h-3.19V65.056h8.653c2.635,0,4.465,1.415,4.465,3.911a3.88,3.88,0,0,1-2.468,3.66l3.386,5.351h-3.608ZM151.1,68.106v1.75h5.463c1,0,1.218-.359,1.218-.886,0-.5-.22-.861-1.218-.861Z"/><path id="Trazado_259" data-name="Trazado 259" class="cls-1" d="M176.035,75.041h-5.271l-1.5,2.938H165.8l6.6-12.948h1.967l6.662,12.948h-3.494Zm-3.773-2.912h2.251l-1.11-2.22Z"/></g></g></svg>