<svg xmlns="http://www.w3.org/2000/svg" viewBox="0 0 144.576 95.789"><defs><style>.cls-1{fill:#9b9b9b;fill-rule:evenodd;}</style></defs><title>marcaRecurso 19</title><g id="Capa_2" data-name="Capa 2"><g id="Capa_1-2" data-name="Capa 1"><path class="cls-1" d="M57.821,11.254c-3.19,9.2-4.3,20.5-10.188,26.99,4.207,2.358,8.395,7.815,14.094,8.831,3.257.581,7.7-1.045,7.421-4.917-.117-1.636-1.927-3.8-3.521-3.66-1.817.167-1.046,2.683-3.022,2.9-1.584-4.112,4.9-4.782,6.543-2.646.878,1.139,1.055,3.21.882,4.918a7.785,7.785,0,0,1-3.9,5.928c-10.861.8-14.2-5.946-20.637-9.585-1.642.912-5.012,1.357-6.917.125-2-1.292-1.544-3.038.25-4.288,2.733-.26,4.263.686,6.163,1.263,5.976-6.039,5.858-18.182,9.816-26.237C48.33,9.643,35.16,5.251,33.916,14.154c-3.575-.559-.212-4.677.63-5.3,4.88-3.6,14.952-.122,20.132.631C58.249,6.222,59.934.494,66.38.027c3.554-.26,6.832,1.366,5.285,5.171C70.136,8.967,63.6,11.614,57.821,11.254Zm.506-1.893c5.35.138,11.823-1.194,11.2-7.443C63.055,1.155,59.936,4.832,58.327,9.361ZM39.075,37.743c-.111,2.032,2.739,1.987,4.152,1.386C42.954,37.579,40.8,37.441,39.075,37.743Z"/><path class="cls-1" d="M76.448,18.064c-.507,5.63-3.9,9.962-2.518,16.273C78,32.51,79.106,26.76,81.606,23.615c.351-.444,1.329-1.392,1.636-1.262-2.249,3.47-3.711,10.76-7.8,12.741-3.438,1.664-5.2-1.706-4.783-5.55-1.634.256-2.137,3.4-4.907,2.522-4.383-4.4.18-17.27,6.542-12.739C73.366,18.612,74.777,17.02,76.448,18.064ZM67.389,30.553a13.432,13.432,0,0,0,4.78-10.344C67.309,19.871,66.83,25.815,67.389,30.553Z"/><path class="cls-1" d="M20.131,63.615c1.457.223.809,2.138,2.016,2.4,1.579.337,4.26-2.581,4.905-3.659,4.457-7.435-.645-19.3-8.934-19.3-5.8,0-8.649,4.719-9.688,10.47-.595.1-1.273-1.252-1.382-2.018A5.894,5.894,0,0,1,7.3,48.981c1.438-4.211,6.349-7.427,10.821-7.818,8.726-.771,13.849,6.183,14.345,13.621.379,5.65-2.368,10.706-6.921,12.487a7.434,7.434,0,0,1-3.9.758A3,3,0,0,1,20.131,63.615Z"/><path class="cls-1" d="M20.508,44.567c-.689,12.852-1.4,30.3-8.807,37.589a11.441,11.441,0,0,1-3.648,2.522c-2.5.9-6.969.671-7.8-1.64-1.092-3.029,1.53-7.194,4.528-5.045-.1,1.71-1.816,1.8-3.145,2.271,1.256,1.686,1.994,3.355,4.53,3.027,2.791-.36,4.671-4.695,5.662-7.191,2.537-6.384,3.268-13.373,4.152-21.57.353-3.27,1.168-9.877,3.272-10.216A1.672,1.672,0,0,1,20.508,44.567Z"/><path class="cls-1" d="M106.575,48.73a36.587,36.587,0,0,1,3.149,4.163c-3.5,2.024-5.374-2.156-7.048-3.657v-.38A23.76,23.76,0,0,1,106.575,48.73Z"/><path class="cls-1" d="M47.814,51.254c-1.379,1.671-3.706,6.132-7.047,3.909,1.108-1.287,1.814-2.978,3.148-4.038A23.413,23.413,0,0,1,47.814,51.254Z"/><path class="cls-1" d="M119.159,52.64c-.615,3.194,1.013,5.2,3.525,5.675-.739,6.241-3.317,10.635-3.148,17.785,4.687-1.858,6.963-9.992,9.69-15.011,1.018-1.868,2.025-3.885,3.4-4.916,1.511-1.138,5.07-1.6,5.535.881.551,2.939-1.853,4.457-4.529,4.54-2.021,2.6-3.046,6.727-2.641,11.355,8.294-.179,9.312-8.324,13.587-12.111-.166,2.68-2.133,5.4-4.027,7.822-2.166,2.767-4.982,6.573-9.686,5.926a4.115,4.115,0,0,1-2.643-1.511c-.23-1.707.021-3.891-.506-5.3-2.483,2.184-3.3,6.772-5.785,8.957-.884.776-2.969,1.375-4.281.253a5.316,5.316,0,0,1-1.256-3.405c-.286-5.3,2.621-10.518,2.517-15.011-2.134.233-1.7,1.644-2.14,3.909-.4,2.092-2.751,4.856-4.782,7.316-2.154,2.608-4.028,4.677-6.416,5.676-1.861.778-5.108.346-5.789-1.386-.515-1.3.278-3.323-.377-4.668-2.282,1.213-4.754,7.874-8.809,4.414a17.9,17.9,0,0,1-.507-4.54c-2.713,2.913-3.254,9.095-8.175,10.215-5.208-3.874.141-12.01-.125-18.541-2.8,1.317-3.818,5.509-5.788,8.075-.23,2.717-.717,5.836-3.777,5.3-.7-1.694.166-3.709.377-5.3-2.416,1.233-3.551,8.523-7.926,7.061-2.1-.7-2.1-3.884-2.138-6.936-1.627.976-3.7,2.6-6.166,3.154-1.649,2.76-4.57,7.135-8.933,4.792-2.228,5.235-1.918,13.4-5.665,17.155a5.4,5.4,0,0,1-4.15,1.513c-2.368-10.666,6.14-14.431,6.919-23.587-2.919,2.074-8.394,9.93-13.59,4.794-.572-6.281.916-13.383,4.279-16.4,1.218-1.094,5.867-2.311,6.166.633.244,2.394-2.359,4.4-4.783,4.542-2.125,2.45-3.293,7.065-2.639,11.475,8.3-1.082,11-8.374,13.21-15.641a4.023,4.023,0,0,1,2.894.379,15.144,15.144,0,0,1-.755,4.417c1.626-1.482,2.1-5.213,6.292-4.542,2.446,1.5,1.378,5.833,1.006,8.83,3-.352,4.574-2.109,5.789-4.667,1.1-2.316,1.839-5.784,5.281-5.047-.435,4.9-2.7,7.975-2.387,13.622,4.588-1.159,5.424-6.083,8.051-9.206a19.8,19.8,0,0,1,1.385-5.3,6.112,6.112,0,0,1,3.147.256c.16,1.3-.583,1.684-.505,2.9,2.106-.471,2.506-4.4,5.162-4.413a2.988,2.988,0,0,1,2.514,2.4c1,5.553-3.357,11.152-2.514,16.4,3.709-2.941,6.448-8.07,8.3-13.244.617-1.722.663-3.8,2.138-5.046a3.081,3.081,0,0,1,2.266.506c-.6,4.735-2.681,7.991-2.518,13.494a3.531,3.531,0,0,0,2.641-.881c4.163-3.219,4.811-11.974,8.811-15.011a4.931,4.931,0,0,1,3.9-1.009c3.036.725,1.346,5.392-.88,6.179a10.661,10.661,0,0,1-2.013.251c-2.033,2.651-2.923,6.764-2.641,11.355,4.157.7,6.2-2.339,8.18-4.793,1.416-1.758,3.481-3.75,4.151-5.55.8-2.145.447-4.405,2.139-5.929C114.279,56.717,115.242,50.066,119.159,52.64Zm-1.26,2.523c.348-.227.3-.994.129-1.389a.581.581,0,0,1-.38-.127C117.3,54.013,117.252,55.1,117.9,55.163Zm15.984,4.794c1.905.389,2.972-1.135,3.4-2.649C135.421,56.177,134.2,58.349,133.883,59.957Zm-28.438,1.261c1.86.329,3.03-1.066,3.4-2.649C106.976,57.414,105.783,59.638,105.445,61.218Zm-68.7,3.027c1.835.255,2.993-1.072,3.4-2.651C38.261,60.4,37.049,62.655,36.74,64.245Zm11.325,10.47c.782-1.109,3.085-1.785,4.53-2.649.732-2.675,1.713-5.1,1.51-8.7A13.379,13.379,0,0,0,48.065,74.715Zm.758,1.765a2.318,2.318,0,0,0,2.514-2.4C50.369,74.753,48.77,74.789,48.823,76.48ZM38.5,94.265c2.911-1.049,3-6.155,3.775-9.712.281-1.3,1.044-2.476.628-3.531-.162-.008-.173-.163-.379-.129C41.026,85.124,37.7,88.136,38.5,94.265Z"/><path class="cls-1" d="M96.259,55.035c.29,2.02-.978,2.846-2.644,2.524C92.5,55.607,94.732,53.643,96.259,55.035Z"/><path class="cls-1" d="M66.058,58.7c-1.5-2.138,2.178-4.083,2.769-2.145A1.964,1.964,0,0,1,66.058,58.7Z"/></g></g></svg>