<svg xmlns="http://www.w3.org/2000/svg" viewBox="0 0 112.362 112.362"><defs><style>.cls-1{fill:#9b9b9b;fill-rule:evenodd;}</style></defs><title>marcaRecurso 10</title><g id="Capa_2" data-name="Capa 2"><g id="Capa_1-2" data-name="Capa 1"><path id="Trazado_57" data-name="Trazado 57" class="cls-1" d="M72.6,87.993a1.345,1.345,0,0,0,.181-.712.636.636,0,0,0-.049-.273.365.365,0,0,0-.124-.146.414.414,0,0,0-.169-.067,1.228,1.228,0,0,0-.182-.013,1.26,1.26,0,0,0-.985.586,3,3,0,0,0-.572,1.464q.312-.045.7-.127a2.564,2.564,0,0,0,.649-.215,1.319,1.319,0,0,0,.549-.5Z"/><path id="Trazado_58" data-name="Trazado 58" class="cls-1" d="M59.768,87.993a1.345,1.345,0,0,0,.181-.712.636.636,0,0,0-.049-.273.365.365,0,0,0-.124-.146.414.414,0,0,0-.169-.067,1.228,1.228,0,0,0-.182-.013,1.26,1.26,0,0,0-.985.586,3,3,0,0,0-.572,1.464c.207-.03.441-.072.7-.127a2.564,2.564,0,0,0,.649-.215,1.319,1.319,0,0,0,.549-.5Z"/><path id="Trazado_59" data-name="Trazado 59" class="cls-1" d="M43.454,86.777a1.2,1.2,0,0,0-.7.227,1.779,1.779,0,0,0-.564.739,3.381,3.381,0,0,0-.267.862,4.94,4.94,0,0,0-.084.875,1.721,1.721,0,0,0,.22.965.746.746,0,0,0,.664.327,1.085,1.085,0,0,0,.7-.249,1.914,1.914,0,0,0,.5-.633,3.467,3.467,0,0,0,.293-.858,4.772,4.772,0,0,0,.1-.99,1.654,1.654,0,0,0-.224-.952.749.749,0,0,0-.646-.314Z"/><path id="Trazado_60" data-name="Trazado 60" class="cls-1" d="M100.245,56.756a.387.387,0,0,0-.073-.225.419.419,0,0,0-.206-.14,3.035,3.035,0,0,0-.659-.042h-.248v.826h.247a3.1,3.1,0,0,0,.659-.04.384.384,0,0,0,.278-.375Z"/><path id="Trazado_61" data-name="Trazado 61" class="cls-1" d="M56.181,0a56.181,56.181,0,1,0,56.181,56.181A56.181,56.181,0,0,0,56.181,0ZM82.11,41.361a3.1,3.1,0,1,1-3.1-3.1,3.1,3.1,0,0,1,3.1,3.1ZM55.762,50.072A24.359,24.359,0,0,0,39.09,56.524q-.72.673-1.379,1.4L35.2,55.362q.613-.658,1.278-1.28a28.64,28.64,0,0,1,38.564,0c.376.35.732.71,1.089,1.08L73.6,57.7q-.561-.6-1.167-1.171a24.358,24.358,0,0,0-16.669-6.457ZM71.1,63.636v6.922a.8.8,0,0,1-.81.8H70.28a.8.8,0,0,1-.813-.8V63.636a.8.8,0,0,1,.813-.8h.01a.806.806,0,0,1,.813.8v0Zm-13.777.619a1.241,1.241,0,0,1,.05-.348v-.04h.013a1.237,1.237,0,0,1,1.171-.86c.185,0,.36.019.548.019h8.2a1.093,1.093,0,0,1,1.038.781,2.43,2.43,0,0,1,.073.769v2.241a1.593,1.593,0,0,1,0,.293.988.988,0,0,1-.286.771c-.346.307-.941.227-1.37.247L65.5,68.119H60.445a.9.9,0,0,1-.9-.9h0V67.2a.9.9,0,0,1,.9-.9h0l5.779.046a2.285,2.285,0,0,0,.37,0c.257-.048.22-.24.22-.428v-.466a.446.446,0,0,0-.266-.2H59.437a.349.349,0,0,0-.252.08l-.105.055c-.133.061-.11.056-.11.209v3.463a1.382,1.382,0,0,1,.293.146h8.2a1.108,1.108,0,0,1,0,2.215H59.122a1.456,1.456,0,0,1-.175-.013,1.69,1.69,0,0,1-1.373-.586,2.966,2.966,0,0,1-.211-1.622V65.7c0-.488-.043-.966-.043-1.442ZM47.274,64.03a1.1,1.1,0,0,1,.8-.9,3.624,3.624,0,0,1,1.086-.139l.007.025c.039,0,.083-.007.124-.007h5.756a1.132,1.132,0,1,1,0,2.263h-5.49a.149.149,0,0,1-.03.018.916.916,0,0,0-.684.841v4.625a.814.814,0,1,1-1.628,0V65.99a8.819,8.819,0,0,1,.053-1.962ZM76.038,54a28.671,28.671,0,0,0-40.546-.006l0,.006c-.274.273-.541.55-.8.836l-2.715-2.773q.38-.407.777-.8a32.538,32.538,0,0,1,46.017-.012l.012.012c.211.208.414.419.619.636l-2.74,2.74c-.2-.208-.408-.42-.614-.631Zm-4.2-22.522a5,5,0,1,1-5,5,5,5,0,0,1,5-5ZM55.682,23.911a7.055,7.055,0,1,1-7.053,7.057v0A7.055,7.055,0,0,1,55.682,23.911ZM39.607,31.478a5,5,0,1,1-5,5,5,5,0,0,1,5-5ZM29.233,41.352A3.536,3.536,0,1,1,25.7,44.89h0A3.535,3.535,0,0,1,29.233,41.352Zm-3.1,30.076H17.682a.78.78,0,0,1-.22-.037A1.168,1.168,0,0,1,16,70.319a.286.286,0,0,1-.026-.119V63.831a.853.853,0,0,1,1.706-.005v4.746c0,.277-.023.6.627.6h7.822a1.129,1.129,0,0,1,0,2.257Zm2.279-.823a2.419,2.419,0,0,1-.073-.772V67.6a1.593,1.593,0,0,1,0-.293.983.983,0,0,1,.286-.769c.347-.308.941-.228,1.37-.246l1.266.006h5.055a.9.9,0,0,1,.9.9h0v.023a.905.905,0,0,1-.9.906l-5.777-.049a2.871,2.871,0,0,0-.371,0c-.258.048-.22.242-.22.43v.464a.452.452,0,0,0,.267.2h7.113a.367.367,0,0,0,.253-.078.883.883,0,0,1,.1-.056c.133-.062.11-.056.11-.209V65.37a1.293,1.293,0,0,1-.293-.146H29.3a1.107,1.107,0,0,1,0-2.214h8.345a1.277,1.277,0,0,1,.174.015,1.683,1.683,0,0,1,1.373.586,2.957,2.957,0,0,1,.212,1.622v3.49c0,.483.044.961.044,1.436a1.278,1.278,0,0,1-.052.353v.039h-.01a1.246,1.246,0,0,1-1.171.86c-.187,0-.359-.019-.548-.019h-8.21a1.093,1.093,0,0,1-1.04-.784Zm11.823,15.41a1.677,1.677,0,0,0-.22-.6A1.176,1.176,0,0,0,39.576,85a1.466,1.466,0,0,0-.709-.154,1.89,1.89,0,0,0-1.018.293,2.807,2.807,0,0,0-.811.777,3.886,3.886,0,0,0-.543,1.163,4.93,4.93,0,0,0-.2,1.408,2.412,2.412,0,0,0,.464,1.537,1.507,1.507,0,0,0,1.249.59,2.049,2.049,0,0,0,1.2-.387,2.938,2.938,0,0,0,.9-1.037l.321.169a3.559,3.559,0,0,1-1.25,1.348A3.13,3.13,0,0,1,37.6,91.1a2.477,2.477,0,0,1-.917-.169,2.151,2.151,0,0,1-.752-.5,2.346,2.346,0,0,1-.512-.8,2.842,2.842,0,0,1-.184-1.056,4.29,4.29,0,0,1,.285-1.572,4.451,4.451,0,0,1,.783-1.306,3.688,3.688,0,0,1,1.154-.886,3.131,3.131,0,0,1,1.408-.335,3.287,3.287,0,0,1,.976.13,2.432,2.432,0,0,1,.692.324l.249-.3h.356l-.48,2.251H40.3v-.179a4.011,4.011,0,0,0-.063-.692Zm4.822,3.246a2.777,2.777,0,0,1-.512.922,2.629,2.629,0,0,1-.826.659,2.432,2.432,0,0,1-1.118.247,1.587,1.587,0,0,1-1.2-.477,1.756,1.756,0,0,1-.461-1.282,3.078,3.078,0,0,1,.72-2,2.51,2.51,0,0,1,.826-.626,2.4,2.4,0,0,1,1.064-.238,1.61,1.61,0,0,1,1.239.483,1.8,1.8,0,0,1,.447,1.266,3.285,3.285,0,0,1-.181,1.049Zm4.685-1.8a.739.739,0,0,1-.1.247.66.66,0,0,1-.176.185.6.6,0,0,1-.633-.056.366.366,0,0,1-.12-.267.865.865,0,0,1,.067-.309c.045-.114.091-.227.138-.34a.864.864,0,0,0-.175.029,1.529,1.529,0,0,0-.3.113,2.412,2.412,0,0,0-.392.254,3.5,3.5,0,0,0-.469.45l-.716,3.188h-.83l.649-2.886c.015-.073.036-.179.064-.321a1.876,1.876,0,0,0,.043-.316.481.481,0,0,0-.085-.335.489.489,0,0,0-.338-.085,1.233,1.233,0,0,0-.249.034c-.1.023-.18.041-.236.056l.067-.285a4.5,4.5,0,0,1,.614-.231,1.738,1.738,0,0,1,.458-.073.605.605,0,0,1,.507.193.941.941,0,0,1,.152.581h.027a9.011,9.011,0,0,1,.8-.641,1.017,1.017,0,0,1,.572-.182,1.072,1.072,0,0,1,.276.036.536.536,0,0,1,.227.12.567.567,0,0,1,.146.216,1.011,1.011,0,0,1,.048.354,1.179,1.179,0,0,1-.043.27Zm4.2,0a.739.739,0,0,1-.1.247.656.656,0,0,1-.176.184.484.484,0,0,1-.273.064.489.489,0,0,1-.36-.12.372.372,0,0,1-.12-.267.865.865,0,0,1,.067-.309c.045-.114.091-.227.138-.34a.864.864,0,0,0-.175.029,1.529,1.529,0,0,0-.3.113,2.412,2.412,0,0,0-.392.254,3.493,3.493,0,0,0-.468.45l-.716,3.188h-.831l.649-2.886c.015-.073.036-.179.064-.321a1.779,1.779,0,0,0,.043-.316.48.48,0,0,0-.084-.335.489.489,0,0,0-.338-.085,1.233,1.233,0,0,0-.249.034c-.1.023-.18.041-.236.056l.067-.285a4.5,4.5,0,0,1,.614-.231,1.738,1.738,0,0,1,.458-.073.605.605,0,0,1,.507.193.934.934,0,0,1,.152.581h.033a9.011,9.011,0,0,1,.8-.641,1.02,1.02,0,0,1,.573-.182,1.072,1.072,0,0,1,.276.036.536.536,0,0,1,.227.12.567.567,0,0,1,.146.216,1.011,1.011,0,0,1,.048.354,1.239,1.239,0,0,1-.045.27Zm2.38,3.294a5.822,5.822,0,0,1-.654.229,1.693,1.693,0,0,1-.418.064.709.709,0,0,1-.534-.185.636.636,0,0,1-.178-.457,1.279,1.279,0,0,1,.018-.214c.012-.073.031-.168.058-.281l.47-1.892c.023-.1.046-.216.068-.335a1.778,1.778,0,0,0,.034-.3.484.484,0,0,0-.083-.332.491.491,0,0,0-.335-.082,1.5,1.5,0,0,0-.259.031c-.108.021-.19.039-.246.053l.067-.285a4.312,4.312,0,0,1,.623-.231,1.768,1.768,0,0,1,.439-.073.7.7,0,0,1,.529.174.659.659,0,0,1,.163.468,2.018,2.018,0,0,1-.018.22,2.374,2.374,0,0,1-.053.277L55.542,89.5c-.029.116-.056.23-.077.341a1.488,1.488,0,0,0-.034.274.436.436,0,0,0,.113.348.572.572,0,0,0,.366.094,1.784,1.784,0,0,0,.242-.022,1.189,1.189,0,0,0,.242-.053Zm.22-5.531a.521.521,0,0,1-.409.189.51.51,0,0,1-.392-.18.6.6,0,0,1-.165-.411.615.615,0,0,1,.165-.427.514.514,0,0,1,.392-.182.54.54,0,0,1,.414.171.568.568,0,0,1,.16.4.652.652,0,0,1-.167.441Zm1.56,4.991a.868.868,0,0,0,.762.372,1.411,1.411,0,0,0,.786-.22,2.767,2.767,0,0,0,.669-.662l.253.187a2.778,2.778,0,0,1-.889.867,2.1,2.1,0,0,1-1.108.325,1.572,1.572,0,0,1-1.2-.439,1.745,1.745,0,0,1-.417-1.251,3.232,3.232,0,0,1,.177-1.072,3.069,3.069,0,0,1,.512-.933,2.546,2.546,0,0,1,.8-.668,2.233,2.233,0,0,1,1.057-.253,1.454,1.454,0,0,1,.952.261.834.834,0,0,1,.308.666,1.192,1.192,0,0,1-.3.811,2,2,0,0,1-.86.539,6.561,6.561,0,0,1-.836.245,9.451,9.451,0,0,1-.934.156,1.849,1.849,0,0,0,.259,1.069Zm7.889.512c-.269.107-.476.185-.626.234a1.444,1.444,0,0,1-.451.073.715.715,0,0,1-.535-.184.636.636,0,0,1-.178-.457,1.429,1.429,0,0,1,.017-.216c.012-.078.032-.172.058-.279l.439-1.661c.032-.127.059-.243.078-.348a1.387,1.387,0,0,0,.029-.249.72.72,0,0,0-.141-.472A.51.51,0,0,0,64.262,87a1.312,1.312,0,0,0-.6.178,2.242,2.242,0,0,0-.632.518l-.761,3.268h-.83l.668-2.886.064-.31a1.713,1.713,0,0,0,.043-.327.481.481,0,0,0-.085-.335.494.494,0,0,0-.34-.085,1.243,1.243,0,0,0-.25.034c-.1.022-.181.041-.237.056l.067-.285a4.816,4.816,0,0,1,.617-.231,1.76,1.76,0,0,1,.461-.073.61.61,0,0,1,.506.191.874.874,0,0,1,.16.53h.026a5.815,5.815,0,0,1,.843-.581,1.706,1.706,0,0,1,.805-.189.885.885,0,0,1,.666.247.9.9,0,0,1,.239.648c0,.053-.009.146-.023.286a3.007,3.007,0,0,1-.078.4l-.373,1.43c-.026.1-.053.2-.078.328a1.534,1.534,0,0,0-.037.287.431.431,0,0,0,.111.346.57.57,0,0,0,.366.091,1.415,1.415,0,0,0,.242-.029,1.438,1.438,0,0,0,.243-.06Zm3.67-3.71H68.433l-.574,2.451c-.027.113-.049.222-.067.327a1.739,1.739,0,0,0-.027.269.467.467,0,0,0,.122.358.655.655,0,0,0,.444.113,2.531,2.531,0,0,0,.325-.029,1.5,1.5,0,0,0,.325-.073l-.073.325c-.207.08-.4.149-.586.207a2.162,2.162,0,0,1-.649.087.924.924,0,0,1-.619-.171.617.617,0,0,1-.2-.492,1.38,1.38,0,0,1,.013-.193c.009-.061.02-.13.036-.207l.694-2.971h-.8l.094-.4H67.7l.31-1.3h.8l-.3,1.3h1.238Zm1.275,3.2a.868.868,0,0,0,.762.372,1.411,1.411,0,0,0,.786-.22,2.749,2.749,0,0,0,.668-.663l.253.187a2.791,2.791,0,0,1-.89.867,2.1,2.1,0,0,1-1.108.325,1.572,1.572,0,0,1-1.2-.439A1.745,1.745,0,0,1,69.79,89.4a3.232,3.232,0,0,1,.177-1.072,3.069,3.069,0,0,1,.512-.933,2.546,2.546,0,0,1,.805-.668,2.233,2.233,0,0,1,1.057-.253,1.454,1.454,0,0,1,.952.261.834.834,0,0,1,.308.666,1.192,1.192,0,0,1-.3.811,2.013,2.013,0,0,1-.86.539,6.561,6.561,0,0,1-.836.245q-.423.094-.934.156a1.856,1.856,0,0,0,.26,1.066ZM77.4,87.486a.4.4,0,0,1-.322.146.482.482,0,0,1-.272-.073.581.581,0,0,1-.178-.191,1.269,1.269,0,0,1-.115-.258c-.03-.092-.063-.183-.1-.272a.807.807,0,0,0-.151-.049.963.963,0,0,0-.178-.013.876.876,0,0,0-.659.234.776.776,0,0,0-.224.556.554.554,0,0,0,.2.47,2.537,2.537,0,0,0,.669.328,2.358,2.358,0,0,1,.878.5.965.965,0,0,1,.273.7,1.361,1.361,0,0,1-.521,1.1,2,2,0,0,1-1.313.425,2.314,2.314,0,0,1-1.1-.234.693.693,0,0,1-.439-.611.514.514,0,0,1,.129-.334.4.4,0,0,1,.316-.156.463.463,0,0,1,.286.082.623.623,0,0,1,.172.193,1.465,1.465,0,0,1,.119.276c.033.107.062.194.086.263a.68.68,0,0,0,.184.14.716.716,0,0,0,.341.064,1,1,0,0,0,.726-.241.859.859,0,0,0,.248-.651.582.582,0,0,0-.231-.483,2.328,2.328,0,0,0-.69-.332,2.988,2.988,0,0,1-.387-.163,1.471,1.471,0,0,1-.356-.234,1.139,1.139,0,0,1-.258-.339,1.028,1.028,0,0,1-.1-.463,1.246,1.246,0,0,1,.509-.988,1.915,1.915,0,0,1,1.253-.417c.115,0,.24.006.373.018a1.941,1.941,0,0,1,.439.1.957.957,0,0,1,.356.212.479.479,0,0,1,.146.366.513.513,0,0,1-.121.326Zm5.993-23.065v6.253a.791.791,0,0,1-.814.756h-.009a.789.789,0,0,1-.814-.756V66.1a.806.806,0,0,0-.659-.84h-6.46a.781.781,0,0,0-.732.577v4.832a.787.787,0,0,1-.814.758h-.009a.79.79,0,0,1-.814-.758V64.381a1.179,1.179,0,0,1,.412-1.048c.414-.332.55-.28,1.078-.28h8.329v.019a1.415,1.415,0,0,1,1.131.477,1.325,1.325,0,0,1,.175.872Zm12.284,6.088v.039h-.013a1.237,1.237,0,0,1-1.171.86c-.188,0-.362-.019-.552-.019h-8.2a1.1,1.1,0,0,1-1.038-.78,2.391,2.391,0,0,1-.073-.772V67.6a1.792,1.792,0,0,1,0-.293.975.975,0,0,1,.293-.769c.343-.308.939-.228,1.368-.246l1.265.006h5.051a.905.905,0,0,1,.9.9v.023a.906.906,0,0,1-.9.906l-5.777-.049a2.886,2.886,0,0,0-.372,0c-.259.048-.22.242-.22.43v.464a.437.437,0,0,0,.266.2h7.113a.356.356,0,0,0,.253-.078c.037-.022.073-.039.107-.056.133-.062.11-.056.11-.209V65.37a1.273,1.273,0,0,1-.293-.146H85.586a1.107,1.107,0,0,1-.007-2.214h8.352a1.249,1.249,0,0,1,.173.015,1.684,1.684,0,0,1,1.373.586,2.975,2.975,0,0,1,.211,1.622v3.49c0,.483.045.961.045,1.436a1.215,1.215,0,0,1-.058.349Zm5.471-10.679a2.854,2.854,0,0,1-2.831,0,2.672,2.672,0,0,1-1.05-1.053,2.847,2.847,0,0,1,.007-2.843,2.634,2.634,0,0,1,1.056-1.047,2.866,2.866,0,0,1,2.8,0,2.634,2.634,0,0,1,1.056,1.047,2.845,2.845,0,0,1,.007,2.842,2.672,2.672,0,0,1-1.05,1.053Z"/><path id="Trazado_62" data-name="Trazado 62" class="cls-1" d="M100.861,55.372a2.3,2.3,0,0,0-2.25,0,2.129,2.129,0,0,0-.848.843,2.291,2.291,0,0,0-.007,2.288,2.168,2.168,0,0,0,.844.847,2.278,2.278,0,0,0,2.273,0,2.175,2.175,0,0,0,.844-.847,2.284,2.284,0,0,0-.007-2.288A2.113,2.113,0,0,0,100.861,55.372Zm-.543,3.514-.252-.489a2.018,2.018,0,0,0-.423-.622.667.667,0,0,0-.423-.129h-.162v1.239h-.612V55.869h.613c.574,0,.894,0,.964.007a1.216,1.216,0,0,1,.473.12.774.774,0,0,1,.282.289.855.855,0,0,1,.114.433.8.8,0,0,1-.214.559.983.983,0,0,1-.6.288.723.723,0,0,1,.21.113,1.522,1.522,0,0,1,.2.231c.022.03.1.153.22.366l.356.608Z"/></g></g></svg>