<svg xmlns="http://www.w3.org/2000/svg" viewBox="0 0 270.49 39.148"><defs><style>.cls-1,.cls-2{fill:#9b9b9b;}.cls-1{fill-rule:evenodd;}</style></defs><title>marcaRecurso 15</title><g id="Capa_2" data-name="Capa 2"><g id="Capa_1-2" data-name="Capa 1"><path class="cls-1" d="M21.928,27.752c.021-.071.032-.139.059-.208-.262,3.625,1.547,6.1,5.019,6.1,5.141,0,12.013-5.357,15.359-11.964S44.253,9.712,39.114,9.712c-3.1,0-6.847,1.945-10.031,4.937L29,14.728l.072-.087C35.439,6.684,44.313,1.028,51.327,1.028c.4,0,.77,0,1.165.04,5.513,2.045,6.533,9.636,1.957,18.689C49.073,30.379,38.021,38.989,29.76,38.989c-3.3,0-5.676-1.372-6.954-3.694C24.8,37.347,27.865,38,31.412,37.242c-4.448,1-7.994-.639-9.159-4.829a12.753,12.753,0,0,1-.325-4.661Z"/><path class="cls-1" d="M3.115,23.084a28.767,28.767,0,0,1,11.305-10.6,11.512,11.512,0,0,1,1.434-.1c7.312,0,9.535,7.592,4.778,16.994a14.848,14.848,0,0,1-1.5,2.429c-4.065,4.371-9.173,7.333-13.316,7.333a5.437,5.437,0,0,1-5.817-5c1.1,1.9,3.21,2.657,5.823,2.237-2.808.48-4.964-.65-5.545-3.3a11.036,11.036,0,0,1,1.128-6.706C-.238,30.7,1.04,34.005,4.563,34.005c3.928,0,9.184-4.1,11.738-9.146s1.443-9.145-2.484-9.145c-3.455,0-7.935,3.168-10.7,7.37Z"/><path class="cls-1" d="M14.406,12.465a12.355,12.355,0,0,1,2.706-.315c4.769,0,7.3,3.242,7.175,8.107l.247-.5C29.909,9.134,40.96.524,49.222.524a9.338,9.338,0,0,1,3.269.545A12.426,12.426,0,0,0,47.176,0C40.316,0,32.04,4.289,24.955,10.906A6.347,6.347,0,0,0,21.7,10.1a14.7,14.7,0,0,0-7.291,2.37Z"/><path class="cls-2" d="M247.217,32.2a4.626,4.626,0,0,0-3.056-.86,10.645,10.645,0,0,0-4.07.843,6.968,6.968,0,0,0-3.172,2.495l-2.878,4.4h2.729l3.145-4.789a3.005,3.005,0,0,1,1.3-.711,5.042,5.042,0,0,1,3.048,0c.356.3.493.536.4.711l-3.15,4.789h2.733l2.881-4.4c.688-1.072.723-1.9.091-2.478Zm20.878,5.11-1.151,1.768h2.392l1.154-1.768Zm-30.3-11.232-2.63,3.981a4.5,4.5,0,0,1-.843.569,3.267,3.267,0,0,1-.534.226,9.442,9.442,0,0,1-1.367.294h-5.989a12.888,12.888,0,0,0-1.708.2l3.452-5.268h-3.949l-8.491,13h4.043l2.591-3.947a1.529,1.529,0,0,1,.586-.573,3.815,3.815,0,0,1,.731-.335,3.551,3.551,0,0,1,.689-.144,4.278,4.278,0,0,1,.5-.032l.752-.134h5.656a12.464,12.464,0,0,0,1.283-.191l-3.51,5.356h3.954l8.491-13Zm20.2,9.133a2.283,2.283,0,0,0,.2-2.693,3.429,3.429,0,0,0-2.918-1.2,11.126,11.126,0,0,0-2.427.351,11.44,11.44,0,0,0-2.244.85,10.52,10.52,0,0,0-1.884,1.215,6.584,6.584,0,0,0-1.347,1.478q-1.131,1.686-.251,2.728a3.542,3.542,0,0,0,3.014,1.139,10.32,10.32,0,0,0,4.514-1.158,8.362,8.362,0,0,0,3.338-2.709Zm-2.415,0a4.431,4.431,0,0,1-1.811,1.493,5.733,5.733,0,0,1-2.47.606,2.821,2.821,0,0,1-1.08-.167,1.186,1.186,0,0,1-.5-1.932,3.084,3.084,0,0,1,.757-.828,7.162,7.162,0,0,1,1.457-.844,6.712,6.712,0,0,1,2.319-.491,2.756,2.756,0,0,1,1.484.647,1.434,1.434,0,0,1-.156,1.516Zm11.805,1.493a1.364,1.364,0,0,0,.173-1.621c-.315-.44-1.022-.673-2.127-.7h-3.376l-.339-.088a1.1,1.1,0,0,1-.308-.13.369.369,0,0,1-.169-.18.336.336,0,0,1,.057-.29.871.871,0,0,1,.345-.312,1.9,1.9,0,0,1,.469-.185,3.228,3.228,0,0,1,.471-.1,3.438,3.438,0,0,1,.348-.028h4.684l1.122-1.729h-3.555a11.451,11.451,0,0,0-2.06.182,9.728,9.728,0,0,0-1.76.506,6.079,6.079,0,0,0-1.384.744,3.756,3.756,0,0,0-.917.923q-.669,1.024-.07,1.611a2.352,2.352,0,0,0,1.612.711h3.378l.352.077a1.822,1.822,0,0,1,.254.018.957.957,0,0,1,.3.088.377.377,0,0,1,.182.2.454.454,0,0,1-.108.361,1.034,1.034,0,0,1-.546.435,3.733,3.733,0,0,1-.68.138l-.233.02h-5.327l-1.131,1.725h4.2a14.355,14.355,0,0,0,1.934-.116,8.42,8.42,0,0,0,1.8-.475,5,5,0,0,0,1.541-.832,4.4,4.4,0,0,0,.869-.951Z"/><path class="cls-2" d="M64.7,33.506c-.419-.527-.329-1.223.258-2.1L74.4,17.68H65.378L54.7,33.263a4.581,4.581,0,0,0-.889,2.2,2.6,2.6,0,0,0,.554,1.882A4.394,4.394,0,0,0,56.5,38.658a12.953,12.953,0,0,0,3.912.49H78.152l3.273-4.81H67.985c-1.782,0-2.877-.3-3.289-.832Zm154.8-15.89H193.079L189.891,22.5h14.688L184.033,39.081c-.115.091-.2-.082-.22,0-.031.148.078,0,.364,0h27.655l3.262-4.773H200.646l19.035-16.163a.505.505,0,0,0,.2-.267c.031-.14-.094-.262-.388-.262Zm-100.952,10.8q2.912-4.253-.035-7.47-2.9-3.149-9.97-3.32a40.113,40.113,0,0,0-15.016,3.27q-7.086,3.054-10.164,7.52-3.317,4.686-.116,7.573,3.137,3.156,10.3,3.161A37.192,37.192,0,0,0,108.2,35.933q7.3-3.164,10.349-7.519Zm-7.063-1.905a5.167,5.167,0,0,1-.936,1.905,12.624,12.624,0,0,1-5.614,4.139,20.717,20.717,0,0,1-8.022,1.69,11.651,11.651,0,0,1-3.627-.463,5.018,5.018,0,0,1-2.093-1.227,3.219,3.219,0,0,1-.073-4.139,7.994,7.994,0,0,1,2.3-2.285A19.811,19.811,0,0,1,98,23.755a24.543,24.543,0,0,1,7.553-1.337,18.532,18.532,0,0,1,2.391.325,4.53,4.53,0,0,1,1.55.6,9.641,9.641,0,0,1,1.108.737,2.323,2.323,0,0,1,.875,2.426Zm44.92-2.293c1.22-1.894,1.047-3.4-.722-4.657s-5.1-1.879-10-1.879H126.841l-3.279,4.793h22.574a8.374,8.374,0,0,1,1.077.079,4.76,4.76,0,0,1,1.09.279,1.469,1.469,0,0,1,.717.515c.143.221.1.508-.137.87-.42.62-2.02,1.913-5.291,1.913H132.158a31.773,31.773,0,0,0-5.173.595,21.932,21.932,0,0,0-4.421,1.36,17.662,17.662,0,0,0-3.5,1.989,10.48,10.48,0,0,0-2.387,2.424L112.1,39.148h8.6l4.4-6.377c1.27-1.871,3.967-2.017,6.317-2.015h10.353c6.709,0,12.4-3.07,14.624-6.54Zm4.243,6.663h21.318l3.213-4.7-21.248-.013c1.974-2.414,6.426-3.651,16.028-3.692,0,0-1.074-.068,8.866,0L192.1,17.68H179.038A40.125,40.125,0,0,0,164.03,21a20.384,20.384,0,0,0-9.392,7.522q-3.3,4.683-.106,7.572c1.706,1.723,4.278,2.743,7.824,3.059h15.286l3.349-4.849H163.625c-6.556.016-3.206-3.233-2.981-3.42Z"/></g></g></svg>