<svg xmlns="http://www.w3.org/2000/svg" viewBox="0 0 199.14 76.011"><defs><style>.cls-1,.cls-2{fill:#9b9b9b;}.cls-1{fill-rule:evenodd;}</style></defs><title>marcaRecurso 21</title><g id="Capa_2" data-name="Capa 2"><g id="Capa_1-2" data-name="Capa 1"><path class="cls-1" d="M0,46.706C71.226,50.338,129.308,37.333,199.14,0,139.763,48.5,62.266,59.31,0,46.706"/><path class="cls-2" d="M104.442,22.193A10.279,10.279,0,1,1,94.164,11.909,10.276,10.276,0,0,1,104.442,22.193Z"/><path class="cls-2" d="M5.088,75.806V62.1H8.176V73.069H13.61v2.737Z"/><path class="cls-2" d="M28.227,68.848l4.158,6.958H29.153L26.5,71.277l-2.655,4.529H20.609l4.137-6.958L20.754,62.1h3.231L26.5,66.417,29.009,62.1h3.232Z"/><path class="cls-2" d="M48.544,72.2H42.163l-1.278,3.6H39.692L44.469,62.1h1.79l4.776,13.71H49.841Zm-6.013-1.049h5.642L45.354,62.8Z"/><path class="cls-2" d="M64.909,70.536H61v5.27H59.783V62.1h4.858c2.759,0,3.768,1.256,3.768,3.17v2.1a2.753,2.753,0,0,1-2.225,3.005l3.665,5.436H68.47Zm-.248-7.349H61v6.258h3.664c1.73,0,2.531-.577,2.531-2.08v-2.1C67.192,63.762,66.391,63.187,64.661,63.187Z"/><path class="cls-2" d="M79.358,72c0,2.017.678,2.923,3.252,2.923a13.728,13.728,0,0,0,2.884-.308V69.753h1.214v5.683a15.888,15.888,0,0,1-4.179.575c-3.336,0-4.385-1.44-4.385-3.993V65.884c0-2.575,1.214-3.995,4.55-3.995a19.913,19.913,0,0,1,3.766.371l-.123,1.049a23.872,23.872,0,0,0-3.623-.328c-2.552,0-3.356.823-3.356,2.922Z"/><path class="cls-2" d="M96.382,62.1h7.72v1.091H97.6V68.27h6.053v1.092H97.6v5.353h6.526v1.091h-7.74Z"/><path class="cls-2" d="M114.745,63.29V75.806h-1.154V62.1h1.771l6.505,12.536V62.1h1.153v13.71h-1.771Z"/><path class="cls-2" d="M135.783,63.187h-4.222V62.1h9.655v1.091H137V75.806h-1.213Z"/><path class="cls-2" d="M151.076,75.806h-1.213V62.1h1.213Z"/><path class="cls-2" d="M162.212,63.29V75.806H161.06V62.1h1.77l6.506,12.536V62.1h1.154v13.71h-1.772Z"/><path class="cls-2" d="M188.088,72.2h-6.381l-1.276,3.6h-1.2l4.777-13.71H185.8l4.776,13.71h-1.194Zm-6.011-1.049h5.64L184.9,62.8Z"/></g></g></svg>