<svg xmlns="http://www.w3.org/2000/svg" viewBox="0 0 178.257 56.812"><defs><style>.cls-1,.cls-2{fill:#9b9b9b;}.cls-1{fill-rule:evenodd;}</style></defs><title>marcaRecurso 7</title><g id="Capa_2" data-name="Capa 2"><g id="Capa_1-2" data-name="Capa 1"><path id="Trazado_88" data-name="Trazado 88" class="cls-1" d="M21.815.006A21.86,21.86,0,0,0,0,21.821a22.7,22.7,0,0,0,1.808,8.652H13.691v11.58a22.712,22.712,0,0,0,8.124,1.575A21.814,21.814,0,0,0,21.815,0Zm.016,36.749h-1.4V30.432h2.984a9.323,9.323,0,0,0,9.51-9.034c0-4.982-4.326-9.039-9.577-9.031H13.673V23.431H6.912v-1.61A14.927,14.927,0,1,1,21.841,36.755Zm-1.4-12.331v-5.8H23.4a2.9,2.9,0,0,1,.007,5.8ZM66.008,11.451H52.225v3.1c2.157,0,2.157.469,2.157,1.171v12.5c0,.6,0,1.171-2.157,1.171v3.069h10.2V29.4c-2.273,0-2.273-.57-2.273-1.171V25.305h5.824a6.93,6.93,0,0,0,.363-13.855c-.111,0-.222,0-.332,0Zm-1.89,10.761H60.152V14.547h3.966c1.537,0,2.8,1.721,2.8,3.826s-1.259,3.832-2.8,3.837Zm23.7,6.32v-5.9c0-4.449-5.069-4.444-7.516-4.444-2.738,0-7.049.709-7.049,3.406a2.023,2.023,0,0,0,2.093,1.914c1.159,0,2.215-.878,2.215-1.577,0-.937,1.409-1.7,2.738-1.7s2.446.586,2.446,1.7c0,.517-.006,1.159-2.446,1.577a42.915,42.915,0,0,0-4.953.934c-1.689.7-3.143,1.634-3.143,4.092s2.777,4.155,5.359,4.155c1.993,0,3.919-.177,5.184-1.7v1.518h6.466V29.758c-1.4,0-1.4-.389-1.4-1.228Zm-5.069-1.164A2.545,2.545,0,0,1,80.3,29.759c-1.341.061-2.738-.4-2.738-1.869S78.9,26.372,80.3,26.022c1.171-.293,1.166-.293,2.446-.7Zm87.44-9.179c-4.439,0-8.067,3.253-8.067,7.247s3.628,7.247,8.067,7.247,8.068-3.253,8.068-7.247-3.625-7.25-8.069-7.25Zm-.026,11.875c-1.419,0-2.58-2.078-2.58-4.627s1.162-4.625,2.58-4.625,2.582,2.075,2.582,4.625-1.163,4.624-2.582,4.624ZM141.412,18.07c-3.965,0-8.162,2.42-8.162,7.515,0,5.564,5.58,7.162,8.2,7.108,3.837-.084,7.348-1.184,7.348-4.263a1.75,1.75,0,0,0-1.925-1.555h-.008a2.11,2.11,0,0,0-1.335.427c-.732.553-.873,1.184-1.573,1.779a3.278,3.278,0,0,1-2.545.847c-1.589-.045-2.562-1.914-2.562-3.926h10.728a7.93,7.93,0,0,0-7.925-7.936C141.572,18.066,141.492,18.068,141.412,18.07Zm-2.562,5.75c.016-1.892,1.127-3.329,2.562-3.329s2.558,1.367,2.558,3.329Zm20.717-5.646a4.161,4.161,0,0,0-3.493,1.987V18.486h-6.23v2.687c1.162,0,1.162.238,1.162.918V32.466h5.069V23.738a1.52,1.52,0,0,1,1.282-1.647,2.3,2.3,0,0,0,2.211,2.107,2.88,2.88,0,0,0,2.582-2.979c-.015-1.435-.684-3.045-2.581-3.045Zm-33.513.079a10.309,10.309,0,0,0-2.35.232,4.5,4.5,0,0,0-2.26,1.078v-1.08h-6.668v2.69c1.22,0,1.6.013,1.6,1.378V34.268c0,1.04-.447,1.04-1.6,1.04V38.1h8.184l.006-2.774c-.785,0-1.521-.038-1.521-1.056V30.922a5.317,5.317,0,0,0,1.9,1.336,8.11,8.11,0,0,0,2.457.337,5.727,5.727,0,0,0,4.477-2.123,7.317,7.317,0,0,0,1.646-5.232,8.038,8.038,0,0,0-1.791-5.259,4.928,4.928,0,0,0-4.08-1.73Zm-.337,10.422a2.064,2.064,0,0,1-1.84,1.1,2.189,2.189,0,0,1-1.84-1,4.876,4.876,0,0,1-.581-2.007c0-.2-.094-.594-.094-.8v-.7a6.634,6.634,0,0,1,.777-3.2,2.2,2.2,0,0,1,1.93-1.1,2.019,2.019,0,0,1,1.737,1.1,6.677,6.677,0,0,1,.58,3.1,8.247,8.247,0,0,1-.665,3.5ZM114.8,32.47v-2.7c-1.557,0-1.557-.328-1.557-1.252V22.546c0-1.37-1-4.067-5.07-4.067a6.78,6.78,0,0,0-4.036,1.5,4.615,4.615,0,0,0-3.814-1.5,6.438,6.438,0,0,0-4.35,1.5V18.492H89.3v2.674c1.332,0,1.61.4,1.61,1.377V32.47h5.065V23.5c0-.989.572-2.335,1.85-2.335,1.724,0,1.785,1.368,1.757,2.335l.013,8.968h5.027V23.5c0-.989.572-2.335,1.848-2.335,1.725,0,1.7,2.335,1.712,2.335v8.971Z"/><path id="Trazado_89" data-name="Trazado 89" class="cls-2" d="M130.28,45.076V56.329H77.127V45.076H130.28m.483-.483H76.645V56.812h54.119Z"/><path id="Trazado_90" data-name="Trazado 90" class="cls-2" d="M70.32,48.855a1.276,1.276,0,0,0-1.046.484,2.618,2.618,0,0,0,0,2.752,1.276,1.276,0,0,0,1.046.484,1.261,1.261,0,0,0,1.041-.484,2.645,2.645,0,0,0,0-2.75A1.26,1.26,0,0,0,70.32,48.855Z"/><path id="Trazado_91" data-name="Trazado 91" class="cls-2" d="M52.553,44.6V56.812h24.09V44.6Zm8.006,6.73a2.722,2.722,0,0,1-.261,1.311,2.438,2.438,0,0,1-3.436.281,2.485,2.485,0,0,1-.281-.281,2.722,2.722,0,0,1-.261-1.311V48.076h1.122V51.32a1.839,1.839,0,0,0,.132.8,1.073,1.073,0,0,0,1.5.241,1.06,1.06,0,0,0,.241-.241,1.839,1.839,0,0,0,.129-.8V48.076h1.119Zm5.355,1.693a2.365,2.365,0,0,1-1.581.478,2.585,2.585,0,0,1-1.644-.471,1.557,1.557,0,0,1-.6-1.3h1.053a1.072,1.072,0,0,0,.2.541,1.172,1.172,0,0,0,.94.326,2,2,0,0,0,.648-.086A.615.615,0,0,0,65.4,51.9a.452.452,0,0,0-.232-.4,2.5,2.5,0,0,0-.732-.247l-.572-.125a3.558,3.558,0,0,1-1.158-.4,1.288,1.288,0,0,1-.534-1.143A1.516,1.516,0,0,1,62.7,48.4a2.224,2.224,0,0,1,1.537-.469,2.353,2.353,0,0,1,1.456.434,1.572,1.572,0,0,1,.626,1.285H65.249a.757.757,0,0,0-.426-.677,1.455,1.455,0,0,0-.659-.132,1.245,1.245,0,0,0-.7.172.543.543,0,0,0-.261.48.453.453,0,0,0,.257.423,3.181,3.181,0,0,0,.7.22l.927.22a2.369,2.369,0,0,1,.914.384,1.294,1.294,0,0,1,.472,1.078,1.516,1.516,0,0,1-.555,1.2Zm6.134-.127a2.737,2.737,0,0,1-3.461,0,2.845,2.845,0,0,1-.805-2.179,2.792,2.792,0,0,1,.805-2.179,2.74,2.74,0,0,1,3.461,0,2.8,2.8,0,0,1,.8,2.179,2.855,2.855,0,0,1-.794,2.178Z"/><path id="Trazado_92" data-name="Trazado 92" class="cls-2" d="M81.413,53.362h-1.1V48.08h1.1Z"/><path id="Trazado_93" data-name="Trazado 93" class="cls-2" d="M83.161,48.08h1.157l2.1,3.683V48.08h1.025v5.281h-1.1l-2.15-3.747v3.747H83.168Z"/><path id="Trazado_94" data-name="Trazado 94" class="cls-2" d="M93.049,48.08v.935H91.468v4.346H90.357V49.016H88.77V48.08Z"/><path id="Trazado_95" data-name="Trazado 95" class="cls-2" d="M98.333,49.016h-2.8v1.121H98.1v.917H95.538v1.359h2.924v.952h-4V48.08h3.873Z"/><path id="Trazado_96" data-name="Trazado 96" class="cls-2" d="M100.038,48.08H101.2l2.1,3.683V48.08h1.025v5.281h-1.1l-2.15-3.747v3.747h-1.025Z"/><path id="Trazado_97" data-name="Trazado 97" class="cls-2" d="M106.888,51.732a1.072,1.072,0,0,0,.2.541,1.172,1.172,0,0,0,.94.326,2,2,0,0,0,.648-.086.615.615,0,0,0,.472-.613.453.453,0,0,0-.231-.4,2.5,2.5,0,0,0-.732-.247l-.572-.125a3.558,3.558,0,0,1-1.158-.4,1.288,1.288,0,0,1-.534-1.143,1.516,1.516,0,0,1,.522-1.179,2.224,2.224,0,0,1,1.537-.469,2.352,2.352,0,0,1,1.441.439,1.574,1.574,0,0,1,.626,1.285h-1.059a.757.757,0,0,0-.426-.677,1.455,1.455,0,0,0-.659-.132,1.245,1.245,0,0,0-.7.172.543.543,0,0,0-.26.48.453.453,0,0,0,.257.423,3.181,3.181,0,0,0,.7.22l.927.22a2.369,2.369,0,0,1,.914.384,1.294,1.294,0,0,1,.472,1.078,1.517,1.517,0,0,1-.559,1.2,2.362,2.362,0,0,1-1.58.478,2.589,2.589,0,0,1-1.641-.471,1.557,1.557,0,0,1-.6-1.3Z"/><path id="Trazado_98" data-name="Trazado 98" class="cls-2" d="M112.724,53.362h-1.1V48.08h1.1Z"/><path id="Trazado_99" data-name="Trazado 99" class="cls-2" d="M117.579,48.08h1.146l-1.8,5.281h-1.042L114.1,48.08h1.179l1.146,4.009Z"/><path id="Trazado_100" data-name="Trazado 100" class="cls-2" d="M124.185,52.893a2.737,2.737,0,0,1-3.461,0,2.845,2.845,0,0,1-.805-2.179,2.792,2.792,0,0,1,.805-2.179,2.74,2.74,0,0,1,3.461,0,2.8,2.8,0,0,1,.8,2.179A2.855,2.855,0,0,1,124.185,52.893Zm-.69-.8a2.645,2.645,0,0,0,0-2.75,1.259,1.259,0,0,0-1.041-.485,1.276,1.276,0,0,0-1.046.484,2.618,2.618,0,0,0,0,2.752,1.276,1.276,0,0,0,1.046.484,1.262,1.262,0,0,0,1.041-.482Z"/></g></g></svg>