<svg xmlns="http://www.w3.org/2000/svg" viewBox="0 0 125.057 88.023"><defs><style>.cls-1{fill:#9b9b9b;}</style></defs><title>marcaRecurso 14</title><g id="Capa_2" data-name="Capa 2"><g id="Capa_1-2" data-name="Capa 1"><path id="Trazado_101" data-name="Trazado 101" class="cls-1" d="M93.994,12.22H32.258a45.481,45.481,0,0,0-7.157,8.6h76.046a45.169,45.169,0,0,0-7.157-8.6Z"/><path id="Trazado_102" data-name="Trazado 102" class="cls-1" d="M63.129,0a44.932,44.932,0,0,0-30,11.42H93.116A44.92,44.92,0,0,0,63.124,0Z"/><path id="Trazado_103" data-name="Trazado 103" class="cls-1" d="M107.886,39.448H18.368c-.044.348-.073.7-.106,1.056H0v1.9H18.107c-.023.372-.051.744-.066,1.12h90.165c-.013-.376-.042-.747-.064-1.12h16.91V40.5H107.991C107.962,40.153,107.934,39.8,107.886,39.448Z"/><path id="Trazado_104" data-name="Trazado 104" class="cls-1" d="M105.84,30.554H20.414c-.387,1.141-.727,2.31-1.025,3.494H0v1.9H125.057v-1.9H106.869C106.569,32.864,106.225,31.7,105.84,30.554Z"/><path id="Trazado_105" data-name="Trazado 105" class="cls-1" d="M18.013,45.066H0v1.9H125.056v-1.9Z"/><path id="Trazado_106" data-name="Trazado 106" class="cls-1" d="M103.336,24.651c-.4-.772-.8-1.537-1.244-2.281H24.165c-.439.746-.845,1.509-1.244,2.281H0v1.9H22c-.255.569-.5,1.141-.736,1.723h83.722c-.237-.582-.485-1.154-.742-1.723h20.808v-1.9Z"/><path id="Trazado_107" data-name="Trazado 107" class="cls-1" d="M9.578,65.5v.619h5.185V65.52s-1.875-.154-1.271-1.27,1.091-2.068,1.091-2.068h4.569l.976,2.338s.281,1-1.437,1v.592H30.5V65.52l-1.179-.439v-4.8s1.359.181,2.285,2.157l1.282,2.514a3.222,3.222,0,0,0,2.747,1.464,11.674,11.674,0,0,0,2.955-.334V65.49s-1.464-.1-1.95-.873-1.976-4.364-2.822-4.5c2.976-1.1,2.539-3.31,2.539-3.31s-.05-3.363-4.47-3.363-6.213.1-7.467-.026v.614l1.516.618v9.938a.8.8,0,0,1-.873.692,1.8,1.8,0,0,1-1.493-1c-.5-.989-5.44-10.862-5.44-10.862l-.567.1L11.938,64.179A2.529,2.529,0,0,1,9.578,65.5ZM29.322,54.712s2.626-.642,3.337,1.053c.746,2.464-.541,3.57-1.256,3.7a6.3,6.3,0,0,1-2.08.128ZM16.944,57.2l1.645,3.852H15.071Z"/><path id="Trazado_108" data-name="Trazado 108" class="cls-1" d="M40.3,64.508c-1.7,1.578-1.576,2.725-1.576,2.725s.194,1.427.878.293c0,0,.827-2.674,3.178-1.256S49,70.039,51.141,69.1s2.409-2.726,1.475-2.245-3.185.7-5.457-1.069c4.3-1.578,4.547-3.66,4.547-3.66s2.855-7.78-4.947-8.9-9.329,5.026-9.169,6.709S38.581,63.889,40.3,64.508Zm.691-6.925s.485-3.126,3.074-3.367,4.439,3.315,4.733,4.49.08,5.373-1.847,6.337-6.252-1.311-5.96-7.461Z"/><path id="Trazado_109" data-name="Trazado 109" class="cls-1" d="M114.771,54.987v9.522s0,.625-1.542.767v.512H124a6.163,6.163,0,0,0,.972-3.448c-.341-.029-.771-.029-.771-.029s-1.113,2.423-2.393,2.423h-3.678V54.756a1.678,1.678,0,0,1,1.537-.684v-.6h-6.442v.6S114.771,54.359,114.771,54.987Z"/><path id="Trazado_110" data-name="Trazado 110" class="cls-1" d="M103.539,64.763a4.482,4.482,0,0,1-1.712.4v.628h10.546a3.727,3.727,0,0,0,1.287-3.221h-.741s-1.4,2.168-2.343,2.168h-3.817V60.006h2.85s.655-.028.914,1.482h.739V57.641h-.826s-.112,1.425-.769,1.425H106.76V54.647h3.96a2.255,2.255,0,0,1,1.367,1.908h.684V53.507s-5.954.171-6.725.171-4.106-.228-4.106-.228v.625l1.6.6Z"/><path id="Trazado_111" data-name="Trazado 111" class="cls-1" d="M53.963,60.869s-.418,5.293,6.161,5.293c6.515,0,6.579-4.269,6.579-4.269V54.856s.117-.626,1.224-.626S69.3,54.8,69.3,55.4v8.913s.208.418-.642.641a5.555,5.555,0,0,1-1.091.228v.6H78.426a4.914,4.914,0,0,0,1.012-3.319h-.805s-1.225,2.213-2.36,2.213H72.591V60.066h2.394s.988-.209,1.287,1.436h.717V57.578H76.33s-.506,1.464-.924,1.464H72.59v-4.45h3.621a2.2,2.2,0,0,1,1.61,2.092h.659V53.456s-5.024.207-6.1.207H63.348v.508s2.123.12,2.123,1.646v5.77a3.879,3.879,0,0,1-4.005,3.351c-3.118,0-4.009-1.464-4.009-4.277V54.708l1.644-.6v-.6s-6.308.183-6.881,0v.6l1.736.507Z"/><path id="Trazado_112" data-name="Trazado 112" class="cls-1" d="M101.833,60.915c.856-4.59-2.055-7.411-6.244-7.411s-8.693-.086-8.693-.086v.571l1.6.627v9.892s0,.54-1.625.712v.569h8.586S100.975,65.5,101.833,60.915ZM91.915,64.8V54.7s6.1-1.025,6.27,3.307-.97,6.786-3.477,6.786Z"/><path id="Trazado_113" data-name="Trazado 113" class="cls-1" d="M116.065,72.089a7.933,7.933,0,1,0,8.181,7.927A8.058,8.058,0,0,0,116.065,72.089Zm1.011,14.584c-2.289.384-4.64-2.259-5.25-5.9s.758-6.906,3.046-7.285,4.636,2.258,5.247,5.9-.754,6.9-3.042,7.288Z"/><path id="Trazado_114" data-name="Trazado 114" class="cls-1" d="M71.164,86.259H67.628V80.531h2.98s.7.293.934,1.7h.876V77.642h-.76s-.408,1.7-1.053,1.7h-2.98V74.014h4.12a2.86,2.86,0,0,1,1.521,2.456,3.677,3.677,0,0,0,.643-.118V72.729L62.4,72.786V73.4s1.868.263,1.868,1.431V85.854s0,.643-1.928.819v.732H73.851a6.282,6.282,0,0,0,1.11-3.947h-.82S72.775,86.259,71.164,86.259Z"/><path id="Trazado_115" data-name="Trazado 115" class="cls-1" d="M88.45,85.174c-.552-1.278-2.028-4.458-2.657-4.734a3.539,3.539,0,0,0,2.732-4.035S88.476,72.8,83.436,72.8H75.948v.629s1.705.424,1.705,1V86a.58.58,0,0,1-.45.576c-.479.127-1.4.352-1.4.352v.624h6.489v-.721a1.233,1.233,0,0,1-1.318-1.142,1.292,1.292,0,0,1,0-.176V80.737s1.338-.277,2.994,3.357,2.733,4.336,6.84,3.632v-.7A4.223,4.223,0,0,1,88.45,85.174Zm-7.52-5.135V73.9s3.985-.428,3.985,3-2.68,3.131-3.985,3.131Z"/><path id="Trazado_116" data-name="Trazado 116" class="cls-1" d="M99.966,72.612c-2.58,0-6.634.213-7.5.213s-2.1-.482-2.4.09,1.019,1.025,1.468,1.025,1.261.69,1.261,2.22V85.5a1.909,1.909,0,0,1-1.182,1.408.6.6,0,0,0-.5.676c.08.5,1.5.191,1.782.125s4.149.1,5.184.1c1.153,0,6.821-.18,8.356-5.856a7.433,7.433,0,0,0-6.464-9.338Zm3.091,9.031c-.849,4.717-3.022,5.038-4.846,4.817-2.035-.247-1.989-3.213-1.989-3.213s-.013-6.554-.013-7.444,0-2.281,2.324-2.127,5.376,3.245,4.523,7.967Z"/><path id="Trazado_117" data-name="Trazado 117" class="cls-1" d="M7.6,65.664l-1.329-.517a.812.812,0,0,1-.46-.814V60.866H8.361s3.712-.245,4.421-2.818-1.279-4.58-4.556-4.58-6.206.215-7.1,0v.677l1.464.434V64.686s-.158.6-1.57.867v.679H7.609ZM5.7,54.8a3.238,3.238,0,0,1,3.009.269c1.629.977.706,4.88-1,4.88-1.795.089-2.007-.081-2.007-.081Z"/><path id="Trazado_118" data-name="Trazado 118" class="cls-1" d="M56.613,73.516c2.191,0,2.221,1.684,2.221,1.684v6.545s-.48,4.383-4.714,4.383-4.231-3.182-4.231-3.182v-8.98l1.587-.421v-.63H44.334v.513s.9.209,1.444.36.417.81.417.81v7.5c0,2.343,1.2,5.4,7.714,5.4a5.739,5.739,0,0,0,6.2-5.232,5.649,5.649,0,0,0,.012-.8v-6.84c0-.932,1.83-1.171,1.83-1.171V72.8H56.608Z"/><path id="Trazado_119" data-name="Trazado 119" class="cls-1" d="M25.151,86.186h-4V80.632h3.4l.6,1.622h.777V77.631h-.777l-.6,1.8h-3.4V74.057H25.3a2.338,2.338,0,0,1,1.562,2.4h.57V72.8s-10,.271-11.381.061v.631s1.684.391,1.684.988V85.7a2.439,2.439,0,0,1-2.583,1.05c-1.62-.45-2.337-3.234-2.973-4.411a11.7,11.7,0,0,0-1.363-1.9c2.263-.768,2.777-1.908,2.777-3.649s-1.114-4.053-5.523-4.053H.859v.691s1.83.42,1.83,1.318V86.065A2.254,2.254,0,0,1,.8,86.879v.63H7.373v-.658L5.96,86.49V80.726s1.474.092,2.4,2.133,2.165,5.164,4.978,5.164c2.761,0,3.672-.722,3.672-.722h10.3s1.11-.9,1.11-3.875h-.781S26.323,86.186,25.151,86.186ZM6.051,80.03V73.966S9.9,73.426,9.9,76.519s-1.412,3.51-3.845,3.51Z"/><path id="Trazado_120" data-name="Trazado 120" class="cls-1" d="M39.229,73.91c.867.357,2.524,1.186,3,2.686s1.3,2.022,1.3.157c0-2.291-.258-4.523-.947-3.829s-.671.711-1.578.237-6.216-1.674-9.084,1.7a10.036,10.036,0,0,0-2.133,5.49s-.707,6.042,6.081,7.5c5.334.789,7.15-2.528,7.15-2.528s1.068-2.132-.276-1.223-7.488,4.835-9.045-3.4C33.025,72.172,38.356,73.552,39.229,73.91Z"/></g></g></svg>