<svg xmlns="http://www.w3.org/2000/svg" viewBox="0 0 100.926 134.917"><defs><style>.cls-1{fill:#9b9b9b;}</style></defs><title>marcaRecurso 22</title><g id="Capa_2" data-name="Capa 2"><g id="Capa_1-2" data-name="Capa 1"><polygon class="cls-1" points="5.205 101.062 5.205 88.049 0 88.049 0 101.062 0 105.689 5.205 105.689 14.459 105.689 14.459 101.062 5.205 101.062"/><polygon class="cls-1" points="95.72 88.049 95.72 101.062 86.466 101.062 86.466 105.689 95.72 105.689 100.926 105.689 100.926 101.062 100.926 88.049 95.72 88.049"/><path class="cls-1" d="M28.828,12.611c.171,0,6.34-.4,6.34-.4L36.71,39.057l-5.483.457Z"/><polygon class="cls-1" points="39.68 11.983 39.919 16.82 47.106 16.609 40.366 35.058 40.48 39 53.503 39 53.503 33.973 46.078 34.03 53.503 15.981 53.503 11.697 39.68 11.983"/><polygon class="cls-1" points="57.738 11.878 57.683 16.795 64.87 16.946 57.026 34.953 56.901 38.894 69.898 39.721 70.205 34.665 62.789 34.273 71.293 16.706 71.553 12.43 57.738 11.878"/><path class="cls-1" d="M79.478,13.528,72.393,39.892l5.4.626L79.1,35.235l3.416.517-.148,5.537,5.253.723.289-27.376ZM80.229,30.7l2.719-10.951-.3,11.329Z"/><polygon class="cls-1" points="32.266 43.585 38.417 43.282 39.68 65.366 44.568 65.366 44.568 70.105 34.081 70.508 32.266 43.585"/><path class="cls-1" d="M28.936,62.19l-5.588.606.37,2.752A1.3,1.3,0,0,1,22.609,67h0a1.3,1.3,0,0,1-1.453-1.109L19.179,51.166a1.292,1.292,0,1,1,2.562-.344l.352,2.62,5.949-.635-.287-3a6.064,6.064,0,0,0-6.666-5.457l-1.982.206a6.859,6.859,0,0,0-6.048,7.988l2.422,14.046A6.715,6.715,0,0,0,22.992,72.1l.949-.128a6.137,6.137,0,0,0,5.292-6.665Z"/><path class="cls-1" d="M57.427,43.286,56.587,64.2A1.292,1.292,0,0,1,54,64.141l.488-21.111H48.248V64.188a6.35,6.35,0,0,0,6.114,6.345l1.264.047a6.484,6.484,0,0,0,6.706-6l1.546-21.091Z"/><path class="cls-1" d="M78.739,45.11l-9.517-1.021L66.55,70.812,75.587,71.9a4.956,4.956,0,0,0,5.492-4.184l.879-5.917a3.3,3.3,0,0,0-.916-2.807l-.627-.635,1.025-.6a2.986,2.986,0,0,0,1.434-2.118l.665-4.309A5.44,5.44,0,0,0,78.739,45.11Zm-2.52,16.45-.455,4.033a1.463,1.463,0,0,1-1.6,1.309l-1.43-.138.793-6.947,1.384.142A1.462,1.462,0,0,1,76.219,61.56Zm1.228-10.291L77.1,54.644a1.463,1.463,0,0,1-1.6,1.309l-1.43-.138.683-6.289,1.385.142A1.462,1.462,0,0,1,77.447,51.269Z"/><path class="cls-1" d="M69.526,89.246a.764.764,0,0,0,.149.018h.132a1.948,1.948,0,0,0,1.158-.377,4.56,4.56,0,0,0,.92-.877A4.5,4.5,0,0,0,72.5,87a2.18,2.18,0,0,0,.219-.789c0-.163-.035-.265-.105-.307a.4.4,0,0,0-.193-.061,2.294,2.294,0,0,0-.351.053,1.738,1.738,0,0,0-.657.359,5.508,5.508,0,0,0-.9.965,9.484,9.484,0,0,0-1.052,1.867c-.012,0-.017.006-.017.018v.053C69.439,89.205,69.468,89.235,69.526,89.246Z"/><path class="cls-1" d="M37.268,86.791a6.407,6.407,0,0,0-1.184,1.368,8.2,8.2,0,0,0-.885,1.8,5.493,5.493,0,0,0-.342,1.815,1.645,1.645,0,0,0,.21.859c.073.121.316.249.666,0a5.029,5.029,0,0,0,1.184-1.368,8.168,8.168,0,0,0,.886-1.8,5.5,5.5,0,0,0,.342-1.816,1.552,1.552,0,0,0-.211-.859C37.721,86.464,37.392,86.686,37.268,86.791Z"/><path class="cls-1" d="M7.663,77.783V99.471H93.552V77.783Zm7.831,13.383-1.636-.881-1.654.848.333-1.828L11.219,88l1.842-.249.839-1.658.8,1.674,1.837.286L15.2,89.332Zm16.312-1.727c-.059.105-.158.319-.3.64s-.28.681-.42,1.079-.266.807-.377,1.227a4.376,4.376,0,0,0-.167,1.1.856.856,0,0,0,.017.211.6.6,0,0,1,.018.175.338.338,0,0,1-.044.166.173.173,0,0,1-.166.08A1,1,0,0,1,30,94.007a1.742,1.742,0,0,1-.491-.359,2.3,2.3,0,0,1-.43-.622,2.011,2.011,0,0,1-.184-.886,3.268,3.268,0,0,1,.044-.552,2.582,2.582,0,0,1,.114-.448c.047-.151.1-.3.158-.438a.194.194,0,0,0,.018-.088c0-.035-.012-.052-.036-.052a.142.142,0,0,0-.087.052l-.035.035a9.524,9.524,0,0,1-1.552,1.771,7.43,7.43,0,0,1-1.342.939,3.751,3.751,0,0,1-.991.377,3.961,3.961,0,0,1-.517.07,1.583,1.583,0,0,1-.763-.167,1.348,1.348,0,0,1-.491-.447,1.753,1.753,0,0,1-.254-.649,4.087,4.087,0,0,1-.07-.771,8.38,8.38,0,0,1,.219-1.631A14.092,14.092,0,0,1,24,87.905a16.247,16.247,0,0,1,1.218-2.438,11.046,11.046,0,0,1,1.789-2.245,8.865,8.865,0,0,1,2.4-1.648,7.091,7.091,0,0,1,3.06-.64,3.51,3.51,0,0,1,1.122.219,1.8,1.8,0,0,1,.518.3.565.565,0,0,1,.219.447,1.955,1.955,0,0,1-.132.447,6.638,6.638,0,0,1-.333.754,4.709,4.709,0,0,1-.447.719q-.246.325-.474.325a.362.362,0,0,1-.149-.035c-.052-.023-.079-.105-.079-.245a5.454,5.454,0,0,0-.035-.579,2.044,2.044,0,0,0-.175-.64,1.373,1.373,0,0,0-.412-.518,1.193,1.193,0,0,0-.745-.21,2.325,2.325,0,0,0-1.359.5,7.068,7.068,0,0,0-1.351,1.315A14,14,0,0,0,27.4,85.555,18.111,18.111,0,0,0,26.4,87.589a16.1,16.1,0,0,0-.684,1.947,6,6,0,0,0-.255,1.552q0,.842.667.842a1.559,1.559,0,0,0,.754-.2,3.967,3.967,0,0,0,.745-.544,7.065,7.065,0,0,0,.745-.8q.369-.456.754-.964c.012-.012.059-.076.141-.193s.186-.263.315-.439.263-.374.4-.6.271-.444.394-.666a5.382,5.382,0,0,0,.307-.649,1.545,1.545,0,0,0,.123-.544.59.59,0,0,0-.035-.175,1.587,1.587,0,0,1-.053-.193c0-.093.062-.164.184-.211a2.11,2.11,0,0,1,.456-.105c.182-.023.374-.038.579-.044s.395-.009.57-.009a3.406,3.406,0,0,1,.64.053c.181.035.272.105.272.211A.445.445,0,0,1,33.4,86c-.046.14-.134.357-.263.649q-.175.386-.491,1.043T31.806,89.439Zm7.172,2.131a6.127,6.127,0,0,1-1.009,1.21,4.933,4.933,0,0,1-1.306.868,3.811,3.811,0,0,1-1.6.333h-.026a2.709,2.709,0,0,1-1.087-.192,1.889,1.889,0,0,1-.7-.509,1.924,1.924,0,0,1-.377-.728,3.169,3.169,0,0,1-.114-.85,5.454,5.454,0,0,1,.141-1.14,8.141,8.141,0,0,1,.42-1.342,8.461,8.461,0,0,1,.711-1.368,6.117,6.117,0,0,1,1.008-1.21,4.946,4.946,0,0,1,1.307-.868,3.8,3.8,0,0,1,1.6-.333h.026a2.691,2.691,0,0,1,1.087.193,1.879,1.879,0,0,1,.7.508,1.931,1.931,0,0,1,.377.728,3.176,3.176,0,0,1,.114.851,5.522,5.522,0,0,1-.14,1.14,8.265,8.265,0,0,1-.421,1.341A8.493,8.493,0,0,1,38.978,91.57Zm6.971,2.744a1.292,1.292,0,0,0,.587.7.471.471,0,0,1,.123.07c.023.023.05.053.079.088a.166.166,0,0,1,.044.1.233.233,0,0,1-.167.193.9.9,0,0,1-.219.035,2.767,2.767,0,0,1-1.622-.552,2.1,2.1,0,0,1-.588-.7,2.121,2.121,0,0,1-.228-1.008,3.6,3.6,0,0,1,.044-.57,3.044,3.044,0,0,1,.114-.483c.047-.163.1-.321.158-.473q.123-.3.28-.64c.106-.228.222-.476.351-.745V90.3a.037.037,0,0,1,.009-.027.034.034,0,0,0,.009-.026c0-.047-.018-.07-.053-.07a.142.142,0,0,0-.087.052.21.21,0,0,1-.035.053c-.012.012-.077.1-.194.272s-.277.38-.482.631-.441.52-.71.807a10.126,10.126,0,0,1-.851.807,5.153,5.153,0,0,1-.911.622,1.9,1.9,0,0,1-.886.245,1.185,1.185,0,0,1-.316-.043.821.821,0,0,1-.289-.149.8.8,0,0,1-.219-.29,1.067,1.067,0,0,1-.088-.464,3.273,3.273,0,0,1,.333-1.395q.333-.71.649-1.429.246-.579.509-1.087t.482-.982a7.288,7.288,0,0,0,.359-.93,3.061,3.061,0,0,0,.141-.911.557.557,0,0,1,.044-.237c.029-.065.107-.108.236-.132q.246-.052.544-.105a3.43,3.43,0,0,1,.6-.053,1.311,1.311,0,0,1,.509.088.305.305,0,0,1,.21.3.554.554,0,0,1-.017.123l-.036.14a.748.748,0,0,0-.052.14,11.7,11.7,0,0,1-.438,1.176q-.3.7-.614,1.35-.369.771-.789,1.578c-.094.222-.173.407-.237.553a4.614,4.614,0,0,0-.167.438,1.2,1.2,0,0,0-.07.342q0,.333.246.333a.909.909,0,0,0,.263-.087,1.2,1.2,0,0,0,.122-.071,9.228,9.228,0,0,0,1.237-1.271q.622-.763,1.166-1.587t.991-1.622q.447-.8.71-1.377a.606.606,0,0,1,.123-.193,1.3,1.3,0,0,1,.14-.123.636.636,0,0,1,.175-.088,3.112,3.112,0,0,1,.544-.113,3.748,3.748,0,0,1,.386-.027,1.533,1.533,0,0,1,.447.062c.134.041.2.108.2.2a2.414,2.414,0,0,1-.211.553q-.21.465-.508,1.087T47.4,88.668q-.324.683-.57,1.192-.158.369-.316.754-.14.333-.28.737t-.228.754q-.052.157-.1.351c-.024.117-.047.257-.07.42a3.78,3.78,0,0,0-.036.544A2.741,2.741,0,0,0,45.949,94.314Zm7.225-5.173a.772.772,0,0,1-.167-.526,1.722,1.722,0,0,1,.061-.43,2.152,2.152,0,0,1,.237-.535.4.4,0,0,0,.053-.157.062.062,0,0,0-.07-.07.275.275,0,0,0-.088.017c-.035.012-.064.024-.088.035a.852.852,0,0,1-.087.053,7.129,7.129,0,0,0-1.035,1.034q-.544.65-1.035,1.333t-.886,1.315a10.841,10.841,0,0,0-.569,1c-.047.105-.094.205-.141.3s-.093.184-.14.272-.094.173-.14.254q-.316.613-1.421.614h-.166a.827.827,0,0,1-.167-.018.394.394,0,0,1-.3-.113.324.324,0,0,1-.053-.307.071.071,0,0,1,.018-.053q.228-.649.543-1.35t.632-1.395q.315-.692.631-1.359t.561-1.227q.246-.561.395-.991a2.224,2.224,0,0,0,.149-.675.3.3,0,0,0-.018-.123.253.253,0,0,1-.017-.105.308.308,0,0,1,.053-.158.384.384,0,0,1,.228-.14,3.755,3.755,0,0,1,.42-.071l.386-.035c.14-.011.281-.017.421-.017a2.138,2.138,0,0,1,.509.052c.14.035.21.1.21.193a2.366,2.366,0,0,1-.21.711q-.211.517-.456,1.078-.3.649-.667,1.4a.055.055,0,0,0-.017.035v.053a.046.046,0,0,0,.052.052.117.117,0,0,0,.088-.035A.194.194,0,0,0,50.92,89c.059-.07.167-.211.325-.421s.353-.447.587-.71.5-.538.8-.825a9.922,9.922,0,0,1,.929-.789,5.309,5.309,0,0,1,.991-.587,2.431,2.431,0,0,1,1-.228.651.651,0,0,1,.307.061.212.212,0,0,1,.114.2,1.955,1.955,0,0,1-.211.508q-.21.421-.491.965t-.535,1.1a4.384,4.384,0,0,0-.324.929.441.441,0,0,1-.035.193.25.25,0,0,1-.246.176q-.034,0-.21-.027a1.3,1.3,0,0,1-.377-.123A1.118,1.118,0,0,1,53.174,89.141ZM64.95,94.288a1.318,1.318,0,0,0,.613.693.416.416,0,0,1,.106.052l.078.079a.136.136,0,0,1,.044.1.216.216,0,0,1-.184.184,1.418,1.418,0,0,1-.359.044,2.448,2.448,0,0,1-1.07-.211,2.037,2.037,0,0,1-1.1-1.254,2.5,2.5,0,0,1-.123-.745,4.368,4.368,0,0,1,.2-1.289,9.671,9.671,0,0,1,.474-1.245q.272-.588.543-1.1t.43-.859q.157-.3.245-.509c.059-.14.114-.283.167-.429a1.1,1.1,0,0,0,.079-.36c0-.117-.053-.175-.158-.175a.468.468,0,0,0-.281.105.88.88,0,0,0-.1.088,14.333,14.333,0,0,0-1.175,1.21q-.561.648-1.043,1.3T61.46,91.2q-.387.587-.632,1.025c-.07.106-.134.211-.193.316-.1.176-.2.345-.28.509a.787.787,0,0,1-.289.324,1.649,1.649,0,0,1-.4.176,2.148,2.148,0,0,1-.421.078c-.14.012-.263.018-.368.018h-.211a.1.1,0,0,1-.07-.018c-.164-.011-.266-.052-.307-.122a.412.412,0,0,1-.061-.211V93.21a.135.135,0,0,1,.018-.053q.053-.175.157-.465t.255-.631q.149-.342.315-.719c.111-.251.225-.5.342-.745q.4-.859.877-1.859.157-.3.254-.509t.176-.429a1.132,1.132,0,0,0,.079-.36.155.155,0,0,0-.176-.175,1.542,1.542,0,0,0-.28.087.277.277,0,0,0-.106.088,15.587,15.587,0,0,0-1.166,1.228q-.552.648-1.026,1.3t-.85,1.228q-.378.579-.64,1.017c-.059.105-.117.205-.176.3s-.114.184-.166.272-.1.173-.149.254a1.045,1.045,0,0,1-.6.491,2.392,2.392,0,0,1-.79.14,1.8,1.8,0,0,1-.482-.07c-.169-.046-.254-.134-.254-.262a.314.314,0,0,1,.017-.123.071.071,0,0,1,.018-.053q.087-.228.237-.579c.1-.233.21-.491.333-.771s.251-.573.386-.877.271-.608.412-.912q.472-1.053,1.034-2.245c.094-.2.181-.4.263-.614.059-.163.117-.339.176-.526a1.653,1.653,0,0,0,.088-.473c-.012-.059-.021-.1-.027-.123a.355.355,0,0,1-.009-.088.394.394,0,0,1,.044-.175.343.343,0,0,1,.219-.14,2.756,2.756,0,0,1,.474-.088,5.583,5.583,0,0,1,.754-.053,2.31,2.31,0,0,1,.482.044c.135.03.2.091.2.184a2.543,2.543,0,0,1-.193.833q-.194.517-.465,1.079t-.543,1.113q-.273.553-.43.921a.052.052,0,0,0-.018.035v.053a.046.046,0,0,0,.053.052.118.118,0,0,0,.088-.035.221.221,0,0,0,.035-.052q.017-.034.263-.36t.631-.806q.386-.483.877-1.026t1.008-1.018a6.38,6.38,0,0,1,1.035-.78,1.886,1.886,0,0,1,.938-.307,1.074,1.074,0,0,1,.57.167.671.671,0,0,1,.272.622,2.493,2.493,0,0,1-.219.877q-.219.544-.474,1.1t-.473,1a1.921,1.921,0,0,0-.219.57c0,.035.011.052.035.052a.192.192,0,0,0,.14-.087q.017-.018.254-.351t.614-.807q.377-.472.859-1.017a13.946,13.946,0,0,1,1-1.017,6.478,6.478,0,0,1,1.026-.78,1.852,1.852,0,0,1,.947-.307,1.328,1.328,0,0,1,.587.14q.29.141.29.631a2.066,2.066,0,0,1-.114.632c-.077.234-.17.479-.281.736s-.231.518-.359.781-.246.506-.351.727q-.439.86-.772,1.666c-.093.235-.187.474-.28.719s-.176.486-.246.719-.129.459-.175.676a2.784,2.784,0,0,0-.07.587A2.39,2.39,0,0,0,64.95,94.288Zm4.822-1.675a1.644,1.644,0,0,0,.693-.14,2.134,2.134,0,0,0,.57-.386,3.339,3.339,0,0,0,.491-.587q.227-.342.473-.746a.852.852,0,0,1,.053-.087.193.193,0,0,1,.157-.105c.2,0,.3.093.3.28a.963.963,0,0,1-.088.351,4.342,4.342,0,0,1-1.649,1.955,3.956,3.956,0,0,1-1.069.482,4.047,4.047,0,0,1-1.105.158,2.425,2.425,0,0,1-.754-.114,1.579,1.579,0,0,1-.614-.368,1.833,1.833,0,0,1-.421-.649,2.578,2.578,0,0,1-.158-.956,5.219,5.219,0,0,1,.228-1.5,7.006,7.006,0,0,1,.632-1.473,8.333,8.333,0,0,1,.947-1.342,7.235,7.235,0,0,1,1.183-1.105,5.727,5.727,0,0,1,1.351-.745,3.973,3.973,0,0,1,1.429-.271,4.978,4.978,0,0,1,.561.035,1.642,1.642,0,0,1,.6.184,1.3,1.3,0,0,1,.474.438,1.4,1.4,0,0,1,.193.781,2.111,2.111,0,0,1-.412,1.245,3.879,3.879,0,0,1-1.061,1,5.755,5.755,0,0,1-1.447.667,5.4,5.4,0,0,1-1.587.245h-.193a1.374,1.374,0,0,1-.211-.017.186.186,0,0,0-.1.017.427.427,0,0,1-.061.035c-.024.024-.036.041-.036.053a6.67,6.67,0,0,0-.262.763,3.018,3.018,0,0,0-.123.833Q68.755,92.614,69.772,92.613Zm9.733-9.873q-.211.351-.421.789-.194.369-.439.9c-.163.35-.333.731-.508,1.139,0,.071.041.106.123.106h.912c.105,0,.169.02.192.061a.226.226,0,0,1,.035.114.432.432,0,0,1-.184.342.531.531,0,0,1-.289.149h-1a.219.219,0,0,0-.157.07l-.053.053q-.141.315-.394.842t-.553,1.166q-.3.641-.6,1.35T75.629,91.2q-.246.675-.4,1.28a4.143,4.143,0,0,0-.158,1.026,2.277,2.277,0,0,0,.167.868,1.3,1.3,0,0,0,.622.657.471.471,0,0,1,.105.053l.079.079a.154.154,0,0,1,.044.114.213.213,0,0,1-.193.193,1.654,1.654,0,0,1-.315.035,2.722,2.722,0,0,1-1.07-.193,2.082,2.082,0,0,1-.754-.526,2.15,2.15,0,0,1-.439-.746,2.653,2.653,0,0,1-.14-.867,4.623,4.623,0,0,1,.281-1.421q.279-.842.692-1.771t.86-1.859q.447-.93.8-1.666,0-.123-.105-.123H74.91c-.1,0-.17-.023-.193-.07a.29.29,0,0,1-.035-.123.354.354,0,0,1,.07-.228.6.6,0,0,1,.158-.14.889.889,0,0,1,.167-.079.425.425,0,0,1,.114-.026h.438a.707.707,0,0,0,.281-.071,1.056,1.056,0,0,0,.271-.184,1.456,1.456,0,0,0,.29-.377q.139-.263.447-.727a6.733,6.733,0,0,1,.719-.9,5.8,5.8,0,0,1,.868-.762,1.54,1.54,0,0,1,.894-.325c.141,0,.211.053.211.158A.512.512,0,0,1,79.505,82.74Zm10.2,8.426-1.636-.881-1.654.848.333-1.828L85.425,88l1.842-.249.839-1.658.805,1.674,1.837.286L89.4,89.332Z"/><polygon class="cls-1" points="63.713 102.869 50.696 126.999 37.679 102.869 33.407 102.869 50.696 134.917 67.985 102.869 63.713 102.869"/><path class="cls-1" d="M97.541,10.446l1.291-3.532q-1.525-.547-3.184-1.066C83.545,2.077,67.49,0,50.439,0S17.332,2.077,5.23,5.848Q3.1,6.513,1.187,7.228l.984,3.652q1.971-.753,4.177-1.443C18.1,5.776,33.756,3.759,50.439,3.759S82.779,5.776,94.53,9.437Q96.092,9.925,97.541,10.446Z"/><path class="cls-1" d="M25.42,25.02l-.534-6.408a5.29,5.29,0,0,0-5.991-4.8L8.911,15.174l.054.289h0l4.916,26.316,4.916-.868-1.276-9.465,3.023-.391A5.615,5.615,0,0,0,25.42,25.02Zm-7.142,1.291-1.422.206-1.005-7.452,1.379-.192a1.461,1.461,0,0,1,1.649,1.244l.638,4.541A1.465,1.465,0,0,1,18.278,26.311Z"/></g></g></svg>