<svg xmlns="http://www.w3.org/2000/svg" viewBox="0 0 156.99 90.424"><defs><style>.cls-1{fill:#9b9b9b;}</style></defs><title>marcaRecurso 20</title><g id="Capa_2" data-name="Capa 2"><g id="Capa_1-2" data-name="Capa 1"><path id="Trazado_63" data-name="Trazado 63" class="cls-1" d="M147.784,24.583v4.663h-1.406V24.574h-1.75V23.46h4.9v1.125Z"/><path id="Trazado_64" data-name="Trazado 64" class="cls-1" d="M155.612,29.246l-.19-2.134c-.013-.169-.025-.343-.037-.521s-.018-.361-.019-.549h-.018q-.1.279-.232.563t-.253.535l-1.093,2.123h-.563l-1.1-2.123c-.084-.169-.169-.346-.253-.531s-.163-.372-.236-.557H151.6c0,.194-.006.379-.019.557s-.024.344-.037.507l-.185,2.134h-1.352l.5-5.787h1.141l1.261,2.431c.084.169.183.368.295.6s.208.441.285.634h.018c.073-.193.157-.4.254-.612s.2-.422.3-.621l1.252-2.431h1.158l.518,5.787Z"/><path id="Trazado_65" data-name="Trazado 65" class="cls-1" d="M92.991,40.13a18.58,18.58,0,0,0-8.448-14.919,19.584,19.584,0,0,0-11.234-3.118H73.29a21.543,21.543,0,0,0-6.472.887c-.092.032-.185.062-.287.092-.142.047-.279.1-.419.153a2.861,2.861,0,0,0-1.443,2.494v3.062a2,2,0,1,1-4,.1c0-.033,0-.067,0-.1V5.079A5.026,5.026,0,0,0,55.68.016c-.111,0-.221,0-.331.009H55.3a4.9,4.9,0,0,0-5.374,5.167C49.9,5.731,49.9,6.276,49.9,6.8V65.157c0,.773,0,1.571.061,2.36a4.946,4.946,0,0,0,1.469,3.247,5.755,5.755,0,0,0,3.422,1.484,5.175,5.175,0,0,0,5.475-3.526,8.836,8.836,0,0,0,.362-2.985V58.859c-.006-5.464-.013-11.114.027-16.669a9.811,9.811,0,0,1,6.534-9.6,14.531,14.531,0,0,1,4.689-.846,10.625,10.625,0,0,1,7.584,3.179,9.737,9.737,0,0,1,2.788,7.358c.017,5.227.017,10.541.015,15.681v7.942a9.059,9.059,0,0,0,.061,1.527,5.1,5.1,0,0,0,3.458,4.487,5.842,5.842,0,0,0,1.912.322,5.563,5.563,0,0,0,3.963-1.618,4.932,4.932,0,0,0,1.408-3.633c-.029-1.478-.014-2.984,0-4.436.011-1.094.023-2.227.016-3.34-.015-2.072.01-4.183.034-6.211C93.233,48.779,93.287,44.416,92.991,40.13Z"/><path id="Trazado_66" data-name="Trazado 66" class="cls-1" d="M49.005,24.368a5.54,5.54,0,0,0-3.447-2.6A4.9,4.9,0,0,0,44.3,21.61a6.056,6.056,0,0,0-5.466,3.641C35.15,33.439,31.4,41.68,28.1,48.911h0a7.223,7.223,0,0,0,.138,5.2l.057.127h0l.872,1.933a2,2,0,1,1-3.605,1.744c-.016-.032-.03-.064-.044-.1l-4.59-10.166C17.813,40.8,14.606,33.737,11.446,26.79l-.07-.152A18.924,18.924,0,0,0,10.1,24.162a5.475,5.475,0,0,0-4.668-2.546,6.473,6.473,0,0,0-2.028.336c-2.27.749-3.51,2.768-3.4,5.542a7.249,7.249,0,0,0,.881,2.842l.1.213c4.668,9.959,9.34,19.885,13.689,29.127,1.477,3.135,2.724,5.762,4.011,8.4a6.2,6.2,0,0,0,6.164,3.9c.119,0,.24.009.356.009a6.039,6.039,0,0,0,5.231-3.109,18.76,18.76,0,0,0,1.163-2.21l.11-.234C37.923,53.275,43.373,41.687,48.4,31a17.348,17.348,0,0,0,1.036-2.563A5.258,5.258,0,0,0,49,24.369Z"/><path id="Trazado_67" data-name="Trazado 67" class="cls-1" d="M139.8,27.206l-.029-.066a5.7,5.7,0,0,0-5.9-3.7c-2.155.058-4.437.085-7.187.085-2.062,0-4.161-.017-6.189-.031l-3.155-.021h-.1a22.3,22.3,0,0,0-4.969.6,23,23,0,0,0-12.335,7.34A23.449,23.449,0,0,0,111.79,69.659a30.55,30.55,0,0,0,7.554.735c.541,0,1.091,0,1.623-.009l1.338-.009h.01c.219,0,.445.018.683.037l.1.007c1.508.038,1.8-.788,1.8-1.216V66.371a2,2,0,1,1,4-.1V69.2h-.058c-.026.337-.058.675-.092,1.014q-.027.264-.051.528a10.014,10.014,0,0,1-7.431,9.16,20.01,20.01,0,0,1-5.83.824,28.827,28.827,0,0,1-5.543-.58,18.145,18.145,0,0,1-7.063-3.168,5.317,5.317,0,1,0-6.3,8.569c.1.071.2.139.3.2a15.6,15.6,0,0,0,3.663,1.954,41.037,41.037,0,0,0,14.391,2.718,37.236,37.236,0,0,0,8.888-1.083c8.3-2.042,13.474-7.081,15.381-14.976a20.085,20.085,0,0,0,.633-2.981C139.879,70.423,139.8,27.206,139.8,27.206ZM128.81,60.414a.743.743,0,0,1-.609.268h-.967c-.76,0-1.528,0-2.272.01s-1.513.011-2.268.011c-1.365,0-3.169-.016-4.989-.127a13.715,13.715,0,0,1-1.892-27.016,20.411,20.411,0,0,1,3.99-.4c1.127-.022,2.354-.032,3.863-.032.877,0,1.763,0,2.662.006.816,0,1.648,0,2.484.006Z"/></g></g></svg>